<?xml version="1.0" encoding="UTF-8" standalone="no"?>
<!-- Generator: Adobe Illustrator 16.0.0, SVG Export Plug-In . SVG Version: 6.00 Build 0)  -->

<svg
   xmlns:dc="http://purl.org/dc/elements/1.1/"
   xmlns:cc="http://creativecommons.org/ns#"
   xmlns:rdf="http://www.w3.org/1999/02/22-rdf-syntax-ns#"
   xmlns:svg="http://www.w3.org/2000/svg"
   xmlns="http://www.w3.org/2000/svg"
   xmlns:sodipodi="http://sodipodi.sourceforge.net/DTD/sodipodi-0.dtd"
   xmlns:inkscape="http://www.inkscape.org/namespaces/inkscape"
   version="1.1"
   id="Layer_1"
   x="0px"
   y="0px"
   width="146"
   height="67"
   viewBox="0 0 146 67"
   enable-background="new 0 0 250 114"
   xml:space="preserve"
   inkscape:version="0.91 r13725"
   sodipodi:docname="p5js-beta.svg"><metadata
     id="metadata9"><rdf:RDF><cc:Work
         rdf:about=""><dc:format>image/svg+xml</dc:format><dc:type
           rdf:resource="http://purl.org/dc/dcmitype/StillImage" /><dc:title /></cc:Work></rdf:RDF></metadata><defs
     id="defs7" /><sodipodi:namedview
     pagecolor="#ffffff"
     bordercolor="#666666"
     borderopacity="1"
     objecttolerance="10"
     gridtolerance="10"
     guidetolerance="10"
     inkscape:pageopacity="0"
     inkscape:pageshadow="2"
     inkscape:window-width="1187"
     inkscape:window-height="856"
     id="namedview5"
     showgrid="false"
     inkscape:zoom="1.24"
     inkscape:cx="125"
     inkscape:cy="57"
     inkscape:window-x="0"
     inkscape:window-y="0"
     inkscape:window-maximized="0"
     inkscape:current-layer="Layer_1" /><path
     d="m 10.482305,16.76789 0,4.635627 0.208076,0 c 0.414412,-0.645093 0.956337,-1.302937 1.625773,-1.971793 0.669436,-0.668856 1.488408,-1.268161 2.457497,-1.799653 0.967929,-0.528593 2.063949,-0.967929 3.286322,-1.314529 1.221214,-0.34544 2.594862,-0.51932 4.117466,-0.51932 2.35259,0 4.520287,0.450348 6.504832,1.349305 1.983385,0.901275 3.690302,2.13524 5.12133,3.703054 1.42871,1.568972 2.535743,3.414413 3.321099,5.535743 0.783616,2.122489 1.176004,4.406106 1.176004,6.850852 0,2.444745 -0.380216,4.740534 -1.142388,6.885048 -0.760433,2.145093 -1.845441,4.013718 -3.252126,5.604715 -1.406685,1.591577 -3.113022,2.862057 -5.120171,3.805643 -2.007149,0.945324 -4.280333,1.417697 -6.816076,1.417697 -2.353749,0 -4.509854,-0.484544 -6.470635,-1.452473 -1.96194,-0.969089 -3.471794,-2.282458 -4.532459,-3.945326 l -0.137944,0 0,21.03652 -8.303905,0 0,-49.82111 7.957305,0 z m 19.375971,16.468706 c 0,-1.291925 -0.195904,-2.572257 -0.587713,-3.840998 -0.392968,-1.268161 -0.98126,-2.40997 -1.764877,-3.425426 -0.784776,-1.013138 -1.775889,-1.83269 -2.976237,-2.456337 -1.199768,-0.622489 -2.605874,-0.933733 -4.220055,-0.933733 -1.522605,0 -2.884661,0.322836 -4.08327,0.969088 -1.199768,0.646252 -2.226817,1.477396 -3.078826,2.490534 -0.854908,1.015456 -1.500001,2.168857 -1.938177,3.460781 -0.439335,1.291925 -0.656685,2.584429 -0.656685,3.875195 0,1.291924 0.21735,2.572257 0.656685,3.839838 0.438176,1.2699 1.083269,2.411129 1.938177,3.426585 0.852589,1.014297 1.879058,1.833849 3.078826,2.455179 1.198609,0.623068 2.560665,0.933153 4.08327,0.933153 1.614181,0 3.020287,-0.321677 4.220055,-0.967929 1.199769,-0.646252 2.191461,-1.476237 2.976237,-2.491693 0.783617,-1.014297 1.371909,-2.167698 1.764877,-3.460202 0.391809,-1.290765 0.587713,-2.58269 0.587713,-3.874035 z m 80.939744,-18.055646 0,36.807389 c 0,1.983381 -0.16171,3.863601 -0.48455,5.639491 -0.32399,1.77589 -0.93373,3.3211 -1.83385,4.63679 -0.89895,1.31569 -2.12248,2.3636 -3.66769,3.14838 -1.54637,0.78477 -3.56221,1.176 -6.053908,1.176 -0.69146,0 -1.38466,-0.0464 -2.076121,-0.13794 -0.69146,-0.0927 -1.244977,-0.1849 -1.660549,-0.27763 l 0.69262,-7.05835 c 0.369204,0.0927 0.759854,0.16171 1.174846,0.20808 0.415572,0.0446 0.784776,0.0684 1.107033,0.0684 0.967929,0 1.752125,-0.18373 2.352589,-0.55352 0.59873,-0.37036 1.06067,-0.87751 1.38582,-1.5226 0.32168,-0.64568 0.52975,-1.3951 0.62249,-2.24942 0.0904,-0.85433 0.13678,-1.76372 0.13678,-2.73281 l 0,-37.15225 8.30449,0 z m 28.30178,10.443782 c -0.73899,-0.969089 -1.75328,-1.810086 -3.04521,-2.52531 -1.29192,-0.715224 -2.69861,-1.073416 -4.22121,-1.073416 -1.33829,0 -2.55951,0.277627 -3.66654,0.831144 -1.10819,0.552357 -1.65939,1.476237 -1.65939,2.767582 0,1.291345 0.61032,2.204212 1.83153,2.732806 1.22237,0.530912 3.01101,1.073416 5.36476,1.626932 1.24382,0.277628 2.50039,0.646252 3.77087,1.107033 1.26874,0.46078 2.42272,1.072257 3.46078,1.833849 1.0369,0.760433 1.87906,1.706917 2.52531,2.837133 0.64393,1.130797 0.96909,2.502706 0.96909,4.117467 0,2.030912 -0.38138,3.750001 -1.14355,5.156106 -0.75985,1.407265 -1.77473,2.548494 -3.04521,3.425426 -1.26874,0.876353 -2.74382,1.510433 -4.42871,1.902821 -1.68431,0.391809 -3.42427,0.587713 -5.2245,0.587713 -2.58443,0 -5.09757,-0.472952 -7.54289,-1.418277 -2.44533,-0.944166 -4.47508,-2.29463 -6.08926,-4.046756 l 5.46677,-5.12133 c 0.92272,1.199768 2.12133,2.191461 3.59873,2.975078 1.47623,0.784776 3.11302,1.176005 4.91325,1.176005 0.59873,0 1.2102,-0.06781 1.83385,-0.206917 0.62249,-0.137364 1.19861,-0.355873 1.72952,-0.656685 0.52975,-0.300231 0.95634,-0.703052 1.28033,-1.21136 0.32168,-0.508308 0.48339,-1.129637 0.48339,-1.869204 0,-1.384661 -0.63408,-2.375194 -1.90166,-2.975078 -1.2699,-0.599885 -3.1733,-1.199769 -5.70905,-1.799074 -1.24613,-0.277627 -2.45749,-0.63408 -3.63408,-1.073995 -1.176,-0.438176 -2.22565,-1.014297 -3.14837,-1.728942 -0.92504,-0.715224 -1.66055,-1.60201 -2.21407,-2.664993 -0.55352,-1.060665 -0.8323,-2.375194 -0.8323,-3.944166 0,-1.845441 0.38021,-3.435859 1.14354,-4.773572 0.75986,-1.340031 1.76488,-2.432574 3.0087,-3.28864 1.24498,-0.852589 2.65224,-1.48725 4.22121,-1.901662 1.56782,-0.415572 3.18316,-0.623648 4.84371,-0.623648 2.39779,0 4.73995,0.415572 7.02299,1.244977 2.28304,0.831144 4.09312,2.101044 5.43257,3.806802 l -5.3949,4.774151 z m -49.035752,17.332307 4.945712,-1.493045 0.971407,2.988409 -4.925426,1.679096 3.057381,4.334815 -2.577474,1.869784 -3.218509,-4.259467 -3.134468,4.146446 -2.502705,-1.906299 3.057381,-4.186438 -4.96368,-1.790959 0.972566,-2.990727 4.984545,1.606067 0,-5.156107 3.335009,0 0,5.156686 -0.0017,0 z m -17.0825,-15.637562 c -0.853749,-1.913254 -2.040186,-3.528594 -3.563371,-4.843703 -1.521445,-1.314529 -3.310085,-2.318393 -5.362443,-3.009854 -2.053517,-0.691461 -4.279174,-1.03806 -6.677552,-1.03806 -0.876352,0 -1.856453,0.04753 -2.940882,0.137944 -1.084428,0.0939 -2.018161,0.254444 -2.801778,0.485703 l 0.483385,-10.588101 19.99788,0 0,-7.472761 -27.886212,0 -0.829985,26.778021 c 0.736669,-0.368045 1.579405,-0.714065 2.52531,-1.038061 0.945324,-0.321677 1.913253,-0.610317 2.906105,-0.863601 0.991693,-0.253864 2.007149,-0.449189 3.04521,-0.588872 1.03806,-0.137944 2.017002,-0.206917 2.940881,-0.206917 1.337134,0 2.652242,0.149537 3.944167,0.449189 1.290765,0.300232 2.456337,0.831144 3.494398,1.591577 1.03806,0.760433 1.879058,1.764877 2.52531,3.009854 0.645093,1.244977 0.969088,2.81395 0.969088,4.705758 0,1.476237 -0.242272,2.802938 -0.726816,3.978943 -0.484544,1.174266 -1.142388,2.156685 -1.971794,2.939143 -0.831144,0.785355 -1.799073,1.385239 -2.907265,1.799073 -1.107032,0.416731 -2.283037,0.623647 -3.528594,0.623647 -2.214065,0 -4.129638,-0.589451 -5.743819,-1.765456 -1.61534,-1.175425 -2.767582,-2.732806 -3.459622,-4.670983 l -0.09274,0.0342 -6.008695,5.631377 c 1.214838,1.982226 2.781492,3.639877 4.71735,4.957304 2.81337,1.913833 6.273572,2.871909 10.380605,2.871909 2.444166,0 4.750968,-0.392967 6.919245,-1.175425 2.168277,-0.783617 4.059506,-1.914993 5.674847,-3.392389 1.61476,-1.475077 2.894514,-3.286322 3.840998,-5.431415 0.944165,-2.145094 1.417117,-4.577088 1.417117,-7.3012 0,-2.489954 -0.426584,-4.691269 -1.280332,-6.606841 z m 4.047914,-22.600856 1.461167,0 c 0.141422,0 0.280526,0.01681 0.41905,0.04985 0.136785,0.0342 0.25908,0.0881 0.368045,0.164026 0.107805,0.07593 0.194745,0.174459 0.262558,0.294436 0.06665,0.119977 0.09969,0.264876 0.09969,0.434119 0,0.211554 -0.06028,0.386592 -0.180255,0.523957 -0.119977,0.137365 -0.277628,0.235897 -0.470634,0.296175 l 0,0.01159 c 0.236476,0.03188 0.430062,0.123454 0.583076,0.275309 0.151855,0.151855 0.227782,0.354134 0.227782,0.609158 0,0.205178 -0.04057,0.376739 -0.121136,0.516422 -0.08288,0.139103 -0.18779,0.251545 -0.321677,0.336167 -0.132728,0.08462 -0.282844,0.145479 -0.454985,0.181994 -0.170981,0.03709 -0.34544,0.05564 -0.520479,0.05564 l -1.350464,0 0,-3.748842 -0.0017,0 z m 0.667118,1.524923 0.592929,0 c 0.221986,0 0.391808,-0.04405 0.508308,-0.132728 0.116499,-0.08868 0.174459,-0.213871 0.174459,-0.375579 0,-0.169823 -0.06028,-0.289799 -0.180255,-0.359931 C 78.672044,5.304596 78.485413,5.26866 78.23039,5.26866 l -0.535549,0 0,0.974884 0.0017,0 z m 0,1.662288 0.597566,0 c 0.08462,0 0.177936,-0.0064 0.276468,-0.01855 0.09853,-0.01217 0.190108,-0.03709 0.272991,-0.07709 0.08288,-0.03825 0.151855,-0.09505 0.205757,-0.169243 0.05564,-0.07419 0.08288,-0.17272 0.08288,-0.296175 0,-0.198222 -0.06665,-0.335587 -0.2017,-0.413253 -0.133308,-0.07825 -0.337327,-0.1165 -0.609158,-0.1165 l -0.624807,0 0,1.090804 z m 2.732806,-3.187211 2.482419,0 0,0.581917 -1.81704,0 0,0.953439 1.720827,0 0,0.561631 -1.720827,0 0,1.058926 1.912094,0 0,0.59235 -2.577473,0 0,-3.748263 z m 4.145287,0.581917 -1.148764,0 0,-0.581917 2.965804,0 0,0.581917 -1.148763,0 0,3.166346 -0.667698,0 0,-3.166346 -5.79e-4,0 z m 3.107226,-0.581917 0.57728,0 1.61534,3.748263 -0.762751,0 -0.348918,-0.857226 -1.626932,0 -0.338486,0.857226 -0.747102,0 1.631569,-3.748263 z m 0.847952,2.318973 -0.577279,-1.524923 -0.587713,1.524923 1.164992,0 z"
     id="path3"
     style="fill:#26005b;fill-opacity:0.59763312"
     inkscape:connector-curvature="0" /></svg>