<?xml version="1.0" encoding="UTF-8" standalone="no"?>
<!-- Created with Inkscape (http://www.inkscape.org/) -->

<svg
   xmlns:dc="http://purl.org/dc/elements/1.1/"
   xmlns:cc="http://creativecommons.org/ns#"
   xmlns:rdf="http://www.w3.org/1999/02/22-rdf-syntax-ns#"
   xmlns:svg="http://www.w3.org/2000/svg"
   xmlns="http://www.w3.org/2000/svg"
   xmlns:sodipodi="http://sodipodi.sourceforge.net/DTD/sodipodi-0.dtd"
   xmlns:inkscape="http://www.inkscape.org/namespaces/inkscape"
   width="9.6000004cm"
   height="1.5cm"
   viewBox="0 0 340.15751 53.149598"
   id="svg2"
   version="1.1"
   inkscape:version="0.91 r13725"
   sodipodi:docname="meritology_logo_blog.svg">
  <defs
     id="defs4" />
  <sodipodi:namedview
     id="base"
     pagecolor="#d4d4d4"
     bordercolor="#666666"
     borderopacity="1.0"
     inkscape:pageopacity="0"
     inkscape:pageshadow="2"
     inkscape:zoom="5.6"
     inkscape:cx="253.64592"
     inkscape:cy="22.070953"
     inkscape:document-units="px"
     inkscape:current-layer="layer1"
     showgrid="false"
     inkscape:window-width="1440"
     inkscape:window-height="851"
     inkscape:window-x="6"
     inkscape:window-y="17"
     inkscape:window-maximized="0"
     units="cm" />
  <metadata
     id="metadata7">
    <rdf:RDF>
      <cc:Work
         rdf:about="">
        <dc:format>image/svg+xml</dc:format>
        <dc:type
           rdf:resource="http://purl.org/dc/dcmitype/StillImage" />
        <dc:title />
      </cc:Work>
    </rdf:RDF>
  </metadata>
  <g
     inkscape:label="Layer 1"
     inkscape:groupmode="layer"
     id="layer1"
     transform="translate(0,-999.21291)">
    <text
       xml:space="preserve"
       style="font-style:normal;font-weight:normal;font-size:40px;line-height:125%;font-family:sans-serif;letter-spacing:0px;word-spacing:0px;fill:#000000;fill-opacity:1;stroke:none;stroke-width:1px;stroke-linecap:butt;stroke-linejoin:miter;stroke-opacity:1"
       x="628.57141"
       y="962.36249"
       id="text4190"
       sodipodi:linespacing="125%"><tspan
         sodipodi:role="line"
         id="tspan4192"
         x="628.57141"
         y="962.36249" /></text>
    <g
       style="font-style:normal;font-weight:normal;font-size:28.69930649px;line-height:125%;font-family:sans-serif;letter-spacing:0px;word-spacing:0px;opacity:0.97000002;fill:#000000;fill-opacity:1;stroke:none;stroke-width:1px;stroke-linecap:butt;stroke-linejoin:miter;stroke-opacity:1"
       id="text4182"
       transform="translate(0,0.23984746)">
      <path
         d="m 242.33202,1039.0183 0,-6.5897 13.17954,3.2949 -13.17954,3.2948 z m 0.95378,-5.3662 0,4.1427 8.28539,-2.0713 -8.28539,-2.0714 z"
         style="font-size:19.73077393px;fill:#000000;fill-opacity:1"
         id="path4568"
         inkscape:connector-curvature="0" />
    </g>
    <g
       style="font-style:normal;font-weight:normal;font-size:28.69930649px;line-height:125%;font-family:sans-serif;letter-spacing:0px;word-spacing:0px;opacity:0.97000002;fill:#cecece;fill-opacity:1;stroke:none;stroke-width:1px;stroke-linecap:butt;stroke-linejoin:miter;stroke-opacity:1"
       id="text4273"
       transform="translate(0,53.09699)">
      <path
         d="m 241.40955,985.49496 0,-6.58977 13.17954,3.29489 -13.17954,3.29488 z m 0.95378,-5.36623 0,4.14269 8.28539,-2.07134 -8.28539,-2.07135 z"
         style="font-size:19.73077393px;fill:#cecece;fill-opacity:1"
         id="path4565"
         inkscape:connector-curvature="0" />
    </g>
    <g
       id="g4351"
       transform="translate(0,1.2475335)">
      <g
         id="text5703"
         style="font-style:normal;font-weight:normal;font-size:92.10561371px;line-height:125%;font-family:sans-serif;letter-spacing:0px;word-spacing:0px;fill:#000000;fill-opacity:1;stroke:none;stroke-width:1px;stroke-linecap:butt;stroke-linejoin:miter;stroke-opacity:1"
         transform="matrix(0.30679734,0,0,0.3467662,2.0121751,709.29191)">
        <path
           id="path5073"
           style="font-style:normal;font-variant:normal;font-weight:normal;font-stretch:normal;font-family:Copperplate;-inkscape-font-specification:Copperplate;fill:#000000;fill-opacity:1"
           d="m 233.06222,957.74963 q 0.73684,0 1.28948,-0.36842 0.55263,-0.46053 0.55263,-1.28948 l 0,-42.00016 q 0,-0.82895 -0.55263,-1.10527 -0.55264,-0.36842 -1.28948,-0.36842 l 0,-1.6579 17.22375,0 0,1.6579 q -0.46053,0 -1.01316,0.27632 -0.46053,0.27631 -0.46053,0.82895 0,0.46053 0.36842,1.19737 0.36842,0.73685 0.82895,1.5658 l 13.1711,23.94746 13.26321,-23.67115 q 0.64474,-1.19737 0.92106,-1.84211 0.36842,-0.73684 0.36842,-1.28948 0,-1.01316 -1.19737,-1.01316 l 0,-1.6579 17.03954,0 0,1.6579 q -0.73685,0 -1.28948,0.36842 -0.55264,0.27632 -0.55264,1.10527 l 0,42.00016 q 0,0.82895 0.55264,1.28948 0.55263,0.36842 1.28948,0.36842 l 0,1.6579 -14.46058,0 0,-1.6579 q 2.48685,0 2.48685,-1.6579 l 0,-30.57906 -0.18421,0 -18.51323,33.89486 -0.27632,0 -18.14481,-33.98697 -0.18421,0 0,30.67117 q 0,1.6579 2.57896,1.6579 l 0,1.6579 -13.81584,0 0,-1.6579 z"
           inkscape:connector-curvature="0" />
        <path
           id="path5075"
           style="font-style:normal;font-variant:normal;font-weight:normal;font-stretch:normal;font-family:Copperplate;-inkscape-font-specification:Copperplate;fill:#000000;fill-opacity:1"
           d="m 344.877,927.44688 q 0,-1.75 -2.85528,-1.75 l -22.47377,0 0,9.21056 14.18427,0 q 1.56579,0 2.30264,-0.18421 0.73684,-0.27632 0.73684,-1.28948 l 1.6579,0 0,9.76319 -1.84211,0 q 0.27632,-1.01316 -0.73684,-1.19737 -1.01317,-0.27632 -2.85528,-0.27632 l -13.44742,0 0,10.86847 23.57904,0 q 1.10527,0 1.84211,-0.46053 0.73685,-0.55264 0.73685,-1.38159 l 1.6579,0 0,9.67109 -1.6579,0 q 0,-0.82895 -0.73685,-0.92105 -0.73684,-0.0921 -1.84211,-0.0921 l -33.80276,0 0,-1.6579 q 0.46053,0 0.92105,-0.27632 0.46053,-0.36842 0.46053,-1.10526 l 0,-34.4475 q 0,-0.73685 -0.46053,-1.01316 -0.46052,-0.36843 -0.92105,-0.36843 l 0,-1.6579 32.69749,0 q 2.85528,0 2.85528,-1.6579 l 1.6579,0 0,10.22372 -1.6579,0 z"
           inkscape:connector-curvature="0" />
        <path
           id="path5077"
           style="font-style:normal;font-variant:normal;font-weight:normal;font-stretch:normal;font-family:Copperplate;-inkscape-font-specification:Copperplate;fill:#000000;fill-opacity:1"
           d="m 385.28258,936.38113 q 9.02635,0 9.02635,-5.71055 0,-2.30264 -2.21053,-3.59212 -2.11843,-1.38158 -6.81582,-1.38158 l -14.55269,0 0,10.68425 14.55269,0 z m 0.18421,-17.50007 q 8.1974,0 12.80268,2.76317 4.60528,2.67106 4.60528,9.21056 0,2.48685 -0.92105,4.42107 -0.92106,1.93422 -2.48686,3.40791 -1.47368,1.38158 -3.3158,2.30264 -1.84211,0.82895 -3.77633,1.28948 l 9.02635,13.1711 q 0.73685,1.01316 1.5658,1.5658 0.92105,0.46052 1.93422,0.73684 l 0,1.6579 -14.09216,0 0,-1.6579 q 1.19737,0 1.19737,-0.82895 0,-0.92106 -1.38158,-2.85527 l -7.27635,-10.86847 -12.80268,0 0,13.17111 q 0,0.73684 0.55264,1.10526 0.64474,0.27632 1.19737,0.27632 l 0,1.6579 -12.25005,0 0,-1.6579 q 1.6579,0 1.6579,-1.38158 l 0,-34.4475 q 0,-1.38159 -1.6579,-1.38159 l 0,-1.6579 25.42115,0 z"
           inkscape:connector-curvature="0" />
        <path
           id="path5079"
           style="font-style:normal;font-variant:normal;font-weight:normal;font-stretch:normal;font-family:Copperplate;-inkscape-font-specification:Copperplate;fill:#000000;fill-opacity:1"
           d="m 417.45766,957.74963 q 1.47369,0 2.02632,-0.27632 0.55263,-0.36842 0.55263,-1.10526 l 0,-34.4475 q 0,-0.73685 -0.55263,-1.01316 -0.55263,-0.36843 -2.02632,-0.36843 l 0,-1.6579 14.00005,0 0,1.6579 q -2.57896,0 -2.57896,1.38159 l 0,34.4475 q 0,1.38158 2.57896,1.38158 l 0,1.6579 -14.00005,0 0,-1.6579 z"
           inkscape:connector-curvature="0" />
        <path
           id="path5081"
           style="font-style:normal;font-variant:normal;font-weight:normal;font-stretch:normal;font-family:Copperplate;-inkscape-font-specification:Copperplate;fill:#000000;fill-opacity:1"
           d="m 457.15374,957.74963 q 0.46053,0 0.92106,-0.27632 0.46053,-0.36842 0.46053,-1.10526 l 0,-30.67117 -11.97373,0 q -0.73685,0 -1.38159,0.36842 -0.64474,0.36842 -0.64474,1.19737 l -1.6579,0 0,-10.59214 1.6579,0 q 0,1.28948 0.64474,1.75 0.64474,0.46053 1.38159,0.46053 l 32.7896,0 q 0.73684,0 1.38158,-0.46053 0.64474,-0.46052 0.64474,-1.75 l 1.6579,0 0,10.59214 -1.6579,0 q 0,-0.82895 -0.64474,-1.19737 -0.64474,-0.36842 -1.38158,-0.36842 l -11.97373,0 0,30.67117 q 0,1.38158 1.6579,1.38158 l 0,1.6579 -11.88163,0 0,-1.6579 z"
           inkscape:connector-curvature="0" />
        <path
           id="path5083"
           style="font-style:normal;font-variant:normal;font-weight:normal;font-stretch:normal;font-family:Copperplate;-inkscape-font-specification:Copperplate;fill:#000000;fill-opacity:1"
           d="m 513.89511,925.14424 q -2.94738,0 -5.80265,1.01317 -2.76317,0.92105 -4.9737,2.76316 -2.21054,1.75001 -3.59212,4.32897 -1.28948,2.57895 -1.28948,5.89476 0,3.3158 1.28948,5.89476 1.38158,2.57895 3.59212,4.42107 2.21053,1.75 4.9737,2.76316 2.85527,0.92106 5.80265,0.92106 2.94738,0 5.71055,-0.92106 2.85528,-1.01316 5.06581,-2.76316 2.21054,-1.84212 3.50001,-4.42107 1.38159,-2.57896 1.38159,-5.89476 0,-3.31581 -1.38159,-5.89476 -1.28947,-2.57896 -3.50001,-4.32897 -2.21053,-1.84211 -5.06581,-2.76316 -2.76317,-1.01317 -5.71055,-1.01317 z m 0,-6.81581 q 5.06581,0 9.48688,1.28948 4.51318,1.28948 7.82898,3.86843 3.3158,2.57896 5.25002,6.5395 1.93422,3.86844 1.93422,9.11846 0,5.25002 -1.93422,9.21056 -1.93422,3.86843 -5.25002,6.44739 -3.3158,2.57896 -7.82898,3.77633 -4.42107,1.10527 -9.48688,1.10527 -5.0658,0 -9.57898,-1.10527 -4.42107,-1.19737 -7.73687,-3.77633 -3.3158,-2.57896 -5.25002,-6.44739 -1.93422,-3.96054 -1.93422,-9.21056 0,-5.25002 1.93422,-9.11846 1.93422,-3.96054 5.25002,-6.5395 3.3158,-2.57895 7.73687,-3.86843 4.51318,-1.28948 9.57898,-1.28948 z"
           inkscape:connector-curvature="0" />
        <path
           id="path5085"
           style="font-style:normal;font-variant:normal;font-weight:normal;font-stretch:normal;font-family:Copperplate;-inkscape-font-specification:Copperplate;fill:#000000;fill-opacity:1"
           d="m 562.46501,918.88106 0,1.6579 q -2.11843,0 -2.11843,1.38159 l 0,30.67117 24.86851,0 q 1.10527,0 1.84211,-0.46053 0.73685,-0.55264 0.73685,-1.47369 l 1.6579,0 0,9.67109 -1.6579,0 q 0,-0.73685 -0.73685,-0.82895 -0.73684,-0.0921 -1.84211,-0.0921 l -36.1054,0 0,-1.6579 q 2.39475,0 2.39475,-1.38158 l 0,-34.4475 q 0,-1.38159 -2.39475,-1.38159 l 0,-1.6579 13.35532,0 z"
           inkscape:connector-curvature="0" />
        <path
           id="path5087"
           style="font-style:normal;font-variant:normal;font-weight:normal;font-stretch:normal;font-family:Copperplate;-inkscape-font-specification:Copperplate;fill:#000000;fill-opacity:1"
           d="m 621.47159,925.14424 q -2.94738,0 -5.80265,1.01317 -2.76317,0.92105 -4.97371,2.76316 -2.21053,1.75001 -3.59211,4.32897 -1.28948,2.57895 -1.28948,5.89476 0,3.3158 1.28948,5.89476 1.38158,2.57895 3.59211,4.42107 2.21054,1.75 4.97371,2.76316 2.85527,0.92106 5.80265,0.92106 2.94738,0 5.71055,-0.92106 2.85527,-1.01316 5.06581,-2.76316 2.21053,-1.84212 3.50001,-4.42107 1.38159,-2.57896 1.38159,-5.89476 0,-3.31581 -1.38159,-5.89476 -1.28948,-2.57896 -3.50001,-4.32897 -2.21054,-1.84211 -5.06581,-2.76316 -2.76317,-1.01317 -5.71055,-1.01317 z m 0,-6.81581 q 5.06581,0 9.48688,1.28948 4.51317,1.28948 7.82898,3.86843 3.3158,2.57896 5.25002,6.5395 1.93421,3.86844 1.93421,9.11846 0,5.25002 -1.93421,9.21056 -1.93422,3.86843 -5.25002,6.44739 -3.31581,2.57896 -7.82898,3.77633 -4.42107,1.10527 -9.48688,1.10527 -5.06581,0 -9.57898,-1.10527 -4.42107,-1.19737 -7.73687,-3.77633 -3.31581,-2.57896 -5.25002,-6.44739 -1.93422,-3.96054 -1.93422,-9.21056 0,-5.25002 1.93422,-9.11846 1.93421,-3.96054 5.25002,-6.5395 3.3158,-2.57895 7.73687,-3.86843 4.51317,-1.28948 9.57898,-1.28948 z"
           inkscape:connector-curvature="0" />
        <path
           id="path5089"
           style="font-style:normal;font-variant:normal;font-weight:normal;font-stretch:normal;font-family:Copperplate;-inkscape-font-specification:Copperplate;fill:#000000;fill-opacity:1"
           d="m 693.06789,932.23638 -1.10527,-0.64474 q 0.18421,-0.92106 0.18421,-1.01317 0,-0.82895 -1.19737,-1.75 -1.19738,-1.01316 -3.13159,-1.84211 -1.93422,-0.82895 -4.42107,-1.28948 -2.39475,-0.55264 -4.8816,-0.55264 -3.40791,0 -6.44739,0.82895 -3.03949,0.73685 -5.34213,2.48686 -2.30264,1.6579 -3.68422,4.32896 -1.38159,2.67106 -1.38159,6.5395 0,3.86843 1.47369,6.5395 1.47369,2.57895 3.77633,4.23685 2.39475,1.5658 5.25002,2.30265 2.85528,0.73684 5.52634,0.73684 3.96054,0 7.46055,-0.55263 3.59212,-0.55264 6.5395,-2.11843 l 0,-5.80266 -9.48688,0 q -1.01316,0 -1.75,0.46053 -0.73685,0.36842 -0.92106,1.47369 l -1.6579,0 0,-9.48688 1.6579,0 q 0.18421,0.92106 0.92106,1.19738 0.73684,0.27631 1.75,0.27631 l 18.0527,0 0,1.6579 q -0.82895,0.36843 -1.10526,0.82895 -0.27632,0.46053 -0.27632,1.38159 l 0,8.75003 q 0,0.82895 0.18421,1.19738 0.27632,0.27631 1.19737,0.64473 l 0,1.10527 q -0.82895,0.55264 -2.67106,1.5658 -1.75001,0.92105 -4.51317,1.84211 -2.67107,0.92106 -6.26319,1.56579 -3.59211,0.55264 -8.01318,0.55264 -5.98687,0 -10.86847,-1.28948 -4.78949,-1.38158 -8.1974,-4.05265 -3.3158,-2.67106 -5.15791,-6.44739 -1.75001,-3.86844 -1.75001,-8.75003 0,-4.8816 1.75001,-8.65793 1.84211,-3.86844 5.15791,-6.5395 3.40791,-2.76317 8.1974,-4.14475 4.8816,-1.47369 10.86847,-1.47369 3.59211,0 6.35528,0.64474 2.76317,0.64474 4.7895,1.38158 2.11842,0.73685 3.4079,1.38159 1.28948,0.64474 1.93422,0.64474 0.73685,0 1.10527,-0.0921 0.36842,-0.18421 0.92105,-0.64474 l 1.10527,0.55263 -5.34212,10.03952 z"
           inkscape:connector-curvature="0" />
        <path
           id="path5091"
           style="font-style:normal;font-variant:normal;font-weight:normal;font-stretch:normal;font-family:Copperplate;-inkscape-font-specification:Copperplate;fill:#000000;fill-opacity:1"
           d="m 711.33931,922.10476 q -0.64474,-0.82895 -1.5658,-1.19737 -0.92105,-0.36843 -1.75,-0.36843 l 0,-1.6579 15.19742,0 0,1.6579 q -0.46052,0 -1.01316,0.36843 -0.55263,0.27631 -0.55263,0.82895 0,0.55263 0.36842,1.01316 0.36842,0.46053 0.82895,1.10526 l 9.30267,12.15795 8.1974,-11.4211 q 0.82895,-1.19737 1.19737,-1.75001 0.46053,-0.64474 0.46053,-1.19737 0,-0.73684 -0.46053,-0.92106 -0.46053,-0.18421 -0.92105,-0.18421 l 0,-1.6579 14.09215,0 0,1.6579 q -1.10526,0 -2.48685,1.28948 -1.28948,1.19737 -2.30264,2.48685 l -14.09216,18.23691 0,13.81585 q 0,1.38158 1.75001,1.38158 l 0,1.6579 -12.25005,0 0,-1.6579 q 1.6579,0 1.6579,-1.38158 l 0,-14.18427 -15.65795,-20.07902 z"
           inkscape:connector-curvature="0" />
      </g>
      <g
         transform="matrix(0.30679734,0,0,0.3467662,0.94074647,708.0419)"
         style="font-style:normal;font-weight:normal;font-size:92.10561371px;line-height:125%;font-family:sans-serif;letter-spacing:0px;word-spacing:0px;fill:#ffffff;fill-opacity:1;stroke:none;stroke-width:1px;stroke-linecap:butt;stroke-linejoin:miter;stroke-opacity:1"
         id="g4329">
        <path
           inkscape:connector-curvature="0"
           d="m 233.06222,957.74963 q 0.73684,0 1.28948,-0.36842 0.55263,-0.46053 0.55263,-1.28948 l 0,-42.00016 q 0,-0.82895 -0.55263,-1.10527 -0.55264,-0.36842 -1.28948,-0.36842 l 0,-1.6579 17.22375,0 0,1.6579 q -0.46053,0 -1.01316,0.27632 -0.46053,0.27631 -0.46053,0.82895 0,0.46053 0.36842,1.19737 0.36842,0.73685 0.82895,1.5658 l 13.1711,23.94746 13.26321,-23.67115 q 0.64474,-1.19737 0.92106,-1.84211 0.36842,-0.73684 0.36842,-1.28948 0,-1.01316 -1.19737,-1.01316 l 0,-1.6579 17.03954,0 0,1.6579 q -0.73685,0 -1.28948,0.36842 -0.55264,0.27632 -0.55264,1.10527 l 0,42.00016 q 0,0.82895 0.55264,1.28948 0.55263,0.36842 1.28948,0.36842 l 0,1.6579 -14.46058,0 0,-1.6579 q 2.48685,0 2.48685,-1.6579 l 0,-30.57906 -0.18421,0 -18.51323,33.89486 -0.27632,0 -18.14481,-33.98697 -0.18421,0 0,30.67117 q 0,1.6579 2.57896,1.6579 l 0,1.6579 -13.81584,0 0,-1.6579 z"
           style="font-style:normal;font-variant:normal;font-weight:normal;font-stretch:normal;font-family:Copperplate;-inkscape-font-specification:Copperplate;fill:#ffffff;fill-opacity:1"
           id="path4331" />
        <path
           inkscape:connector-curvature="0"
           d="m 344.877,927.44688 q 0,-1.75 -2.85528,-1.75 l -22.47377,0 0,9.21056 14.18427,0 q 1.56579,0 2.30264,-0.18421 0.73684,-0.27632 0.73684,-1.28948 l 1.6579,0 0,9.76319 -1.84211,0 q 0.27632,-1.01316 -0.73684,-1.19737 -1.01317,-0.27632 -2.85528,-0.27632 l -13.44742,0 0,10.86847 23.57904,0 q 1.10527,0 1.84211,-0.46053 0.73685,-0.55264 0.73685,-1.38159 l 1.6579,0 0,9.67109 -1.6579,0 q 0,-0.82895 -0.73685,-0.92105 -0.73684,-0.0921 -1.84211,-0.0921 l -33.80276,0 0,-1.6579 q 0.46053,0 0.92105,-0.27632 0.46053,-0.36842 0.46053,-1.10526 l 0,-34.4475 q 0,-0.73685 -0.46053,-1.01316 -0.46052,-0.36843 -0.92105,-0.36843 l 0,-1.6579 32.69749,0 q 2.85528,0 2.85528,-1.6579 l 1.6579,0 0,10.22372 -1.6579,0 z"
           style="font-style:normal;font-variant:normal;font-weight:normal;font-stretch:normal;font-family:Copperplate;-inkscape-font-specification:Copperplate;fill:#ffffff;fill-opacity:1"
           id="path4333" />
        <path
           inkscape:connector-curvature="0"
           d="m 385.28258,936.38113 q 9.02635,0 9.02635,-5.71055 0,-2.30264 -2.21053,-3.59212 -2.11843,-1.38158 -6.81582,-1.38158 l -14.55269,0 0,10.68425 14.55269,0 z m 0.18421,-17.50007 q 8.1974,0 12.80268,2.76317 4.60528,2.67106 4.60528,9.21056 0,2.48685 -0.92105,4.42107 -0.92106,1.93422 -2.48686,3.40791 -1.47368,1.38158 -3.3158,2.30264 -1.84211,0.82895 -3.77633,1.28948 l 9.02635,13.1711 q 0.73685,1.01316 1.5658,1.5658 0.92105,0.46052 1.93422,0.73684 l 0,1.6579 -14.09216,0 0,-1.6579 q 1.19737,0 1.19737,-0.82895 0,-0.92106 -1.38158,-2.85527 l -7.27635,-10.86847 -12.80268,0 0,13.17111 q 0,0.73684 0.55264,1.10526 0.64474,0.27632 1.19737,0.27632 l 0,1.6579 -12.25005,0 0,-1.6579 q 1.6579,0 1.6579,-1.38158 l 0,-34.4475 q 0,-1.38159 -1.6579,-1.38159 l 0,-1.6579 25.42115,0 z"
           style="font-style:normal;font-variant:normal;font-weight:normal;font-stretch:normal;font-family:Copperplate;-inkscape-font-specification:Copperplate;fill:#ffffff;fill-opacity:1"
           id="path4335" />
        <path
           inkscape:connector-curvature="0"
           d="m 417.45766,957.74963 q 1.47369,0 2.02632,-0.27632 0.55263,-0.36842 0.55263,-1.10526 l 0,-34.4475 q 0,-0.73685 -0.55263,-1.01316 -0.55263,-0.36843 -2.02632,-0.36843 l 0,-1.6579 14.00005,0 0,1.6579 q -2.57896,0 -2.57896,1.38159 l 0,34.4475 q 0,1.38158 2.57896,1.38158 l 0,1.6579 -14.00005,0 0,-1.6579 z"
           style="font-style:normal;font-variant:normal;font-weight:normal;font-stretch:normal;font-family:Copperplate;-inkscape-font-specification:Copperplate;fill:#ffffff;fill-opacity:1"
           id="path4337" />
        <path
           inkscape:connector-curvature="0"
           d="m 457.15374,957.74963 q 0.46053,0 0.92106,-0.27632 0.46053,-0.36842 0.46053,-1.10526 l 0,-30.67117 -11.97373,0 q -0.73685,0 -1.38159,0.36842 -0.64474,0.36842 -0.64474,1.19737 l -1.6579,0 0,-10.59214 1.6579,0 q 0,1.28948 0.64474,1.75 0.64474,0.46053 1.38159,0.46053 l 32.7896,0 q 0.73684,0 1.38158,-0.46053 0.64474,-0.46052 0.64474,-1.75 l 1.6579,0 0,10.59214 -1.6579,0 q 0,-0.82895 -0.64474,-1.19737 -0.64474,-0.36842 -1.38158,-0.36842 l -11.97373,0 0,30.67117 q 0,1.38158 1.6579,1.38158 l 0,1.6579 -11.88163,0 0,-1.6579 z"
           style="font-style:normal;font-variant:normal;font-weight:normal;font-stretch:normal;font-family:Copperplate;-inkscape-font-specification:Copperplate;fill:#ffffff;fill-opacity:1"
           id="path4339" />
        <path
           inkscape:connector-curvature="0"
           d="m 513.89511,925.14424 q -2.94738,0 -5.80265,1.01317 -2.76317,0.92105 -4.9737,2.76316 -2.21054,1.75001 -3.59212,4.32897 -1.28948,2.57895 -1.28948,5.89476 0,3.3158 1.28948,5.89476 1.38158,2.57895 3.59212,4.42107 2.21053,1.75 4.9737,2.76316 2.85527,0.92106 5.80265,0.92106 2.94738,0 5.71055,-0.92106 2.85528,-1.01316 5.06581,-2.76316 2.21054,-1.84212 3.50001,-4.42107 1.38159,-2.57896 1.38159,-5.89476 0,-3.31581 -1.38159,-5.89476 -1.28947,-2.57896 -3.50001,-4.32897 -2.21053,-1.84211 -5.06581,-2.76316 -2.76317,-1.01317 -5.71055,-1.01317 z m 0,-6.81581 q 5.06581,0 9.48688,1.28948 4.51318,1.28948 7.82898,3.86843 3.3158,2.57896 5.25002,6.5395 1.93422,3.86844 1.93422,9.11846 0,5.25002 -1.93422,9.21056 -1.93422,3.86843 -5.25002,6.44739 -3.3158,2.57896 -7.82898,3.77633 -4.42107,1.10527 -9.48688,1.10527 -5.0658,0 -9.57898,-1.10527 -4.42107,-1.19737 -7.73687,-3.77633 -3.3158,-2.57896 -5.25002,-6.44739 -1.93422,-3.96054 -1.93422,-9.21056 0,-5.25002 1.93422,-9.11846 1.93422,-3.96054 5.25002,-6.5395 3.3158,-2.57895 7.73687,-3.86843 4.51318,-1.28948 9.57898,-1.28948 z"
           style="font-style:normal;font-variant:normal;font-weight:normal;font-stretch:normal;font-family:Copperplate;-inkscape-font-specification:Copperplate;fill:#ffffff;fill-opacity:1"
           id="path4341" />
        <path
           inkscape:connector-curvature="0"
           d="m 562.46501,918.88106 0,1.6579 q -2.11843,0 -2.11843,1.38159 l 0,30.67117 24.86851,0 q 1.10527,0 1.84211,-0.46053 0.73685,-0.55264 0.73685,-1.47369 l 1.6579,0 0,9.67109 -1.6579,0 q 0,-0.73685 -0.73685,-0.82895 -0.73684,-0.0921 -1.84211,-0.0921 l -36.1054,0 0,-1.6579 q 2.39475,0 2.39475,-1.38158 l 0,-34.4475 q 0,-1.38159 -2.39475,-1.38159 l 0,-1.6579 13.35532,0 z"
           style="font-style:normal;font-variant:normal;font-weight:normal;font-stretch:normal;font-family:Copperplate;-inkscape-font-specification:Copperplate;fill:#ffffff;fill-opacity:1"
           id="path4343" />
        <path
           inkscape:connector-curvature="0"
           d="m 621.47159,925.14424 q -2.94738,0 -5.80265,1.01317 -2.76317,0.92105 -4.97371,2.76316 -2.21053,1.75001 -3.59211,4.32897 -1.28948,2.57895 -1.28948,5.89476 0,3.3158 1.28948,5.89476 1.38158,2.57895 3.59211,4.42107 2.21054,1.75 4.97371,2.76316 2.85527,0.92106 5.80265,0.92106 2.94738,0 5.71055,-0.92106 2.85527,-1.01316 5.06581,-2.76316 2.21053,-1.84212 3.50001,-4.42107 1.38159,-2.57896 1.38159,-5.89476 0,-3.31581 -1.38159,-5.89476 -1.28948,-2.57896 -3.50001,-4.32897 -2.21054,-1.84211 -5.06581,-2.76316 -2.76317,-1.01317 -5.71055,-1.01317 z m 0,-6.81581 q 5.06581,0 9.48688,1.28948 4.51317,1.28948 7.82898,3.86843 3.3158,2.57896 5.25002,6.5395 1.93421,3.86844 1.93421,9.11846 0,5.25002 -1.93421,9.21056 -1.93422,3.86843 -5.25002,6.44739 -3.31581,2.57896 -7.82898,3.77633 -4.42107,1.10527 -9.48688,1.10527 -5.06581,0 -9.57898,-1.10527 -4.42107,-1.19737 -7.73687,-3.77633 -3.31581,-2.57896 -5.25002,-6.44739 -1.93422,-3.96054 -1.93422,-9.21056 0,-5.25002 1.93422,-9.11846 1.93421,-3.96054 5.25002,-6.5395 3.3158,-2.57895 7.73687,-3.86843 4.51317,-1.28948 9.57898,-1.28948 z"
           style="font-style:normal;font-variant:normal;font-weight:normal;font-stretch:normal;font-family:Copperplate;-inkscape-font-specification:Copperplate;fill:#ffffff;fill-opacity:1"
           id="path4345" />
        <path
           inkscape:connector-curvature="0"
           d="m 693.06789,932.23638 -1.10527,-0.64474 q 0.18421,-0.92106 0.18421,-1.01317 0,-0.82895 -1.19737,-1.75 -1.19738,-1.01316 -3.13159,-1.84211 -1.93422,-0.82895 -4.42107,-1.28948 -2.39475,-0.55264 -4.8816,-0.55264 -3.40791,0 -6.44739,0.82895 -3.03949,0.73685 -5.34213,2.48686 -2.30264,1.6579 -3.68422,4.32896 -1.38159,2.67106 -1.38159,6.5395 0,3.86843 1.47369,6.5395 1.47369,2.57895 3.77633,4.23685 2.39475,1.5658 5.25002,2.30265 2.85528,0.73684 5.52634,0.73684 3.96054,0 7.46055,-0.55263 3.59212,-0.55264 6.5395,-2.11843 l 0,-5.80266 -9.48688,0 q -1.01316,0 -1.75,0.46053 -0.73685,0.36842 -0.92106,1.47369 l -1.6579,0 0,-9.48688 1.6579,0 q 0.18421,0.92106 0.92106,1.19738 0.73684,0.27631 1.75,0.27631 l 18.0527,0 0,1.6579 q -0.82895,0.36843 -1.10526,0.82895 -0.27632,0.46053 -0.27632,1.38159 l 0,8.75003 q 0,0.82895 0.18421,1.19738 0.27632,0.27631 1.19737,0.64473 l 0,1.10527 q -0.82895,0.55264 -2.67106,1.5658 -1.75001,0.92105 -4.51317,1.84211 -2.67107,0.92106 -6.26319,1.56579 -3.59211,0.55264 -8.01318,0.55264 -5.98687,0 -10.86847,-1.28948 -4.78949,-1.38158 -8.1974,-4.05265 -3.3158,-2.67106 -5.15791,-6.44739 -1.75001,-3.86844 -1.75001,-8.75003 0,-4.8816 1.75001,-8.65793 1.84211,-3.86844 5.15791,-6.5395 3.40791,-2.76317 8.1974,-4.14475 4.8816,-1.47369 10.86847,-1.47369 3.59211,0 6.35528,0.64474 2.76317,0.64474 4.7895,1.38158 2.11842,0.73685 3.4079,1.38159 1.28948,0.64474 1.93422,0.64474 0.73685,0 1.10527,-0.0921 0.36842,-0.18421 0.92105,-0.64474 l 1.10527,0.55263 -5.34212,10.03952 z"
           style="font-style:normal;font-variant:normal;font-weight:normal;font-stretch:normal;font-family:Copperplate;-inkscape-font-specification:Copperplate;fill:#ffffff;fill-opacity:1"
           id="path4347" />
        <path
           inkscape:connector-curvature="0"
           d="m 711.33931,922.10476 q -0.64474,-0.82895 -1.5658,-1.19737 -0.92105,-0.36843 -1.75,-0.36843 l 0,-1.6579 15.19742,0 0,1.6579 q -0.46052,0 -1.01316,0.36843 -0.55263,0.27631 -0.55263,0.82895 0,0.55263 0.36842,1.01316 0.36842,0.46053 0.82895,1.10526 l 9.30267,12.15795 8.1974,-11.4211 q 0.82895,-1.19737 1.19737,-1.75001 0.46053,-0.64474 0.46053,-1.19737 0,-0.73684 -0.46053,-0.92106 -0.46053,-0.18421 -0.92105,-0.18421 l 0,-1.6579 14.09215,0 0,1.6579 q -1.10526,0 -2.48685,1.28948 -1.28948,1.19737 -2.30264,2.48685 l -14.09216,18.23691 0,13.81585 q 0,1.38158 1.75001,1.38158 l 0,1.6579 -12.25005,0 0,-1.6579 q 1.6579,0 1.6579,-1.38158 l 0,-14.18427 -15.65795,-20.07902 z"
           style="font-style:normal;font-variant:normal;font-weight:normal;font-stretch:normal;font-family:Copperplate;-inkscape-font-specification:Copperplate;fill:#ffffff;fill-opacity:1"
           id="path4349" />
      </g>
    </g>
    <g
       id="g4485">
      <g
         transform="matrix(1.0194895,0,0,1.0194895,-50.782033,24.934998)"
         id="g4461">
        <path
           sodipodi:nodetypes="cc"
           inkscape:connector-curvature="0"
           id="path4377"
           d="M 55.909351,1001.6229 66.56966,986.19471"
           style="fill:none;fill-rule:evenodd;stroke:#000000;stroke-width:1.13350129;stroke-linecap:butt;stroke-linejoin:miter;stroke-miterlimit:4;stroke-dasharray:none;stroke-opacity:1" />
        <path
           sodipodi:nodetypes="cc"
           style="fill:none;fill-rule:evenodd;stroke:#000000;stroke-width:1.13350129;stroke-linecap:butt;stroke-linejoin:miter;stroke-miterlimit:4;stroke-dasharray:none;stroke-opacity:1"
           d="m 59.192907,1007.4254 24.469234,-0.09"
           id="path4379"
           inkscape:connector-curvature="0" />
        <path
           inkscape:connector-curvature="0"
           id="path4381"
           d="m 89.330607,1007.4255 22.937993,-0.09"
           style="fill:none;fill-rule:evenodd;stroke:#000000;stroke-width:1.09847093;stroke-linecap:butt;stroke-linejoin:miter;stroke-miterlimit:4;stroke-dasharray:none;stroke-opacity:1"
           sodipodi:nodetypes="cc" />
        <path
           sodipodi:nodetypes="cc"
           style="fill:none;fill-rule:evenodd;stroke:#000000;stroke-width:1.13350129;stroke-linecap:butt;stroke-linejoin:miter;stroke-miterlimit:4;stroke-dasharray:none;stroke-opacity:1"
           d="M 116.40773,1001.7579 101.85664,981.53926"
           id="path4383"
           inkscape:connector-curvature="0" />
        <path
           sodipodi:nodetypes="cc"
           inkscape:connector-curvature="0"
           id="path4385"
           d="M 104.17312,984.98025 89.77945,963.07489"
           style="fill:none;fill-rule:evenodd;stroke:#000000;stroke-width:1.13350129;stroke-linecap:butt;stroke-linejoin:miter;stroke-miterlimit:4;stroke-dasharray:none;stroke-opacity:1" />
        <path
           style="fill:none;fill-rule:evenodd;stroke:#000000;stroke-width:1.13350129;stroke-linecap:butt;stroke-linejoin:miter;stroke-miterlimit:4;stroke-dasharray:none;stroke-opacity:1"
           d="M 68.980601,982.26344 81.754982,963.10187"
           id="path4387"
           inkscape:connector-curvature="0"
           sodipodi:nodetypes="cc" />
        <path
           sodipodi:type="star"
           style="opacity:1;fill:#000000;fill-opacity:1;stroke:none"
           id="path4389"
           sodipodi:sides="3"
           sodipodi:cx="364.28574"
           sodipodi:cy="505.00504"
           sodipodi:r1="296.37234"
           sodipodi:r2="148.18617"
           sodipodi:arg1="0.52359878"
           sodipodi:arg2="1.5707963"
           inkscape:flatsided="false"
           inkscape:rounded="0"
           inkscape:randomized="0"
           d="m 620.95172,653.19121 -256.66598,0 -256.66598,0 128.33298,-222.27926 128.333,-222.27926 128.33298,222.27926 z"
           inkscape:transform-center-y="-9.5178112"
           transform="matrix(0.01901145,0,0,0.01617851,78.843186,952.79007)" />
        <path
           sodipodi:type="star"
           style="opacity:1;fill:#000000;fill-opacity:1;stroke:none"
           id="path4391"
           sodipodi:sides="3"
           sodipodi:cx="364.28574"
           sodipodi:cy="505.00504"
           sodipodi:r1="296.37234"
           sodipodi:r2="148.18617"
           sodipodi:arg1="0.52359878"
           sodipodi:arg2="1.5707963"
           inkscape:flatsided="false"
           inkscape:rounded="0"
           inkscape:randomized="0"
           d="m 620.95172,653.19121 -256.66598,0 -256.66598,0 128.33298,-222.27926 128.333,-222.27926 128.33298,222.27926 z"
           inkscape:transform-center-y="-9.5178112"
           transform="matrix(0.01901145,0,0,0.01617851,48.814397,997.42843)" />
        <path
           transform="matrix(0.01901145,0,0,0.01617851,109.42073,997.31148)"
           inkscape:transform-center-y="-9.5178112"
           d="m 620.95172,653.19121 -256.66598,0 -256.66598,0 128.33298,-222.27926 128.333,-222.27926 128.33298,222.27926 z"
           inkscape:randomized="0"
           inkscape:rounded="0"
           inkscape:flatsided="false"
           sodipodi:arg2="1.5707963"
           sodipodi:arg1="0.52359878"
           sodipodi:r2="148.18617"
           sodipodi:r1="296.37234"
           sodipodi:cy="505.00504"
           sodipodi:cx="364.28574"
           sodipodi:sides="3"
           id="path4393"
           style="opacity:1;fill:#000000;fill-opacity:1;stroke:none"
           sodipodi:type="star" />
        <path
           sodipodi:nodetypes="cccccccc"
           inkscape:connector-curvature="0"
           id="path4395"
           d="m 81.449116,990.79169 -3.958259,-4.83537 28.292553,-0.045 -16.327817,22.01788 -5.937388,0 13.808925,-17.04757 0.134941,-0.13494 z"
           style="fill:#000000;fill-opacity:1;fill-rule:evenodd;stroke:none;stroke-width:1px;stroke-linecap:butt;stroke-linejoin:miter;stroke-opacity:1" />
        <path
           sodipodi:nodetypes="ccccccc"
           inkscape:connector-curvature="0"
           id="path4397"
           d="m 102.63929,981.6742 -33.943025,0.0279 14.938886,18.6164 2.811263,-3.44104 -8.904482,-10.92087 28.178508,-0.0543 z"
           style="fill:#000000;fill-opacity:1;fill-rule:evenodd;stroke:none;stroke-width:4;stroke-linecap:butt;stroke-linejoin:miter;stroke-miterlimit:4;stroke-dasharray:none;stroke-opacity:1" />
        <path
           sodipodi:nodetypes="ccccccc"
           inkscape:connector-curvature="0"
           id="path4399"
           d="m 83.509208,1007.9471 14.011335,-17.20489 -5.937388,0 -7.961498,9.55829 c -4.890783,-6.26311 -9.991198,-12.40228 -14.828696,-18.70677 l -2.736076,4.40307 z"
           style="fill:#000000;fill-opacity:1;fill-rule:evenodd;stroke:none;stroke-width:4;stroke-linecap:butt;stroke-linejoin:miter;stroke-miterlimit:4;stroke-dasharray:none;stroke-opacity:1" />
        <path
           sodipodi:nodetypes="cc"
           inkscape:connector-curvature="0"
           id="path4401"
           d="M 83.100549,1007.6843 65.966755,986.15885"
           style="fill:none;fill-rule:evenodd;stroke:#000000;stroke-width:0.37783378;stroke-linecap:butt;stroke-linejoin:miter;stroke-miterlimit:4;stroke-dasharray:none;stroke-opacity:1" />
        <path
           inkscape:connector-curvature="0"
           id="path4403"
           d="m 91.571648,990.72967 -7.93179,9.72933"
           style="fill:none;fill-rule:evenodd;stroke:#000000;stroke-width:0.25188917;stroke-linecap:butt;stroke-linejoin:miter;stroke-miterlimit:2;stroke-dasharray:none;stroke-opacity:1"
           sodipodi:nodetypes="cc" />
        <path
           sodipodi:nodetypes="cc"
           style="fill:none;fill-rule:evenodd;stroke:#000000;stroke-width:0.25293961;stroke-linecap:butt;stroke-linejoin:miter;stroke-miterlimit:2;stroke-dasharray:none;stroke-opacity:1"
           d="m 97.43166,990.79328 -15.927499,-0.0394"
           id="path4407"
           inkscape:connector-curvature="0" />
        <path
           sodipodi:nodetypes="cc"
           style="fill:none;fill-rule:evenodd;stroke:#000000;stroke-width:0.25188917;stroke-linecap:butt;stroke-linejoin:miter;stroke-miterlimit:2;stroke-dasharray:none;stroke-opacity:1"
           d="M 86.450912,996.9 77.782906,986.0784"
           id="path4409"
           inkscape:connector-curvature="0" />
        <path
           sodipodi:nodetypes="ccccc"
           inkscape:connector-curvature="0"
           id="path4415"
           d="m 105.75867,985.94732 -3.22233,-4.47553 -0.56725,0.0231 3.18235,4.41873 z"
           style="fill:#000000;fill-opacity:1;fill-rule:evenodd;stroke:none;stroke-width:1px;stroke-linecap:butt;stroke-linejoin:miter;stroke-opacity:1" />
        <path
           style="fill:none;fill-rule:evenodd;stroke:#000000;stroke-width:0.25188917;stroke-linecap:butt;stroke-linejoin:miter;stroke-miterlimit:4;stroke-dasharray:none;stroke-opacity:1"
           d="M 83.595332,1000.3975 68.890469,981.66083"
           id="path4417"
           inkscape:connector-curvature="0"
           sodipodi:nodetypes="cc" />
        <path
           style="fill:none;fill-rule:evenodd;stroke:#000000;stroke-width:0.37590075;stroke-linecap:butt;stroke-linejoin:miter;stroke-miterlimit:4;stroke-dasharray:none;stroke-opacity:1"
           d="m 102.50093,981.68308 -33.512591,0.0389"
           id="path4419"
           inkscape:connector-curvature="0"
           sodipodi:nodetypes="cc" />
        <path
           inkscape:connector-curvature="0"
           id="path4421"
           d="m 68.925205,982.06312 0.09542,-0.19083 -0.03181,-0.34987 -0.206738,0 -0.143126,0.25445 z"
           style="fill:#4d6364;fill-opacity:1;fill-rule:evenodd;stroke:none;stroke-width:1px;stroke-linecap:butt;stroke-linejoin:miter;stroke-opacity:1" />
        <path
           style="fill:#2d2354;fill-opacity:1;fill-rule:evenodd;stroke:none;stroke-width:1px;stroke-linecap:butt;stroke-linejoin:miter;stroke-opacity:1"
           d="m 66.060323,985.96322 2.758418,-4.4728 0.281001,0.34113 -2.78205,4.46371 z"
           id="path4427"
           inkscape:connector-curvature="0"
           sodipodi:nodetypes="ccccc" />
        <path
           style="fill:none;fill-rule:evenodd;stroke:#000000;stroke-width:0.37783378;stroke-linecap:butt;stroke-linejoin:miter;stroke-miterlimit:4;stroke-dasharray:none;stroke-opacity:1"
           d="M 89.761286,1007.7293 105.76738,986.1852"
           id="path4429"
           inkscape:connector-curvature="0"
           sodipodi:nodetypes="cc" />
      </g>
      <g
         transform="matrix(0.12594459,0,0,0.12594459,-11.50204,968.74535)"
         id="g5673">
        <path
           style="fill:none;fill-rule:evenodd;stroke:#7ac39f;stroke-width:9;stroke-linecap:butt;stroke-linejoin:miter;stroke-miterlimit:4;stroke-dasharray:none;stroke-opacity:1"
           d="m 142.50001,607.00507 84.64285,-122.5"
           id="path4249"
           inkscape:connector-curvature="0"
           sodipodi:nodetypes="cc" />
        <path
           inkscape:connector-curvature="0"
           id="path4251"
           d="m 168.57144,653.07649 194.28571,-0.71428"
           style="fill:none;fill-rule:evenodd;stroke:#7ac39f;stroke-width:9;stroke-linecap:butt;stroke-linejoin:miter;stroke-miterlimit:4;stroke-dasharray:none;stroke-opacity:1"
           sodipodi:nodetypes="cc" />
        <path
           sodipodi:nodetypes="cc"
           style="fill:none;fill-rule:evenodd;stroke:#967695;stroke-width:8.72185898;stroke-linecap:butt;stroke-linejoin:miter;stroke-miterlimit:4;stroke-dasharray:none;stroke-opacity:1"
           d="m 407.86477,653.07715 182.12764,-0.7156"
           id="path4253"
           inkscape:connector-curvature="0" />
        <path
           inkscape:connector-curvature="0"
           id="path4255"
           d="M 622.85715,608.0765 507.32144,447.54078"
           style="fill:none;fill-rule:evenodd;stroke:#967695;stroke-width:9;stroke-linecap:butt;stroke-linejoin:miter;stroke-miterlimit:4;stroke-dasharray:none;stroke-opacity:1"
           sodipodi:nodetypes="cc" />
        <path
           style="fill:none;fill-rule:evenodd;stroke:#fff500;stroke-width:9;stroke-linecap:butt;stroke-linejoin:miter;stroke-miterlimit:4;stroke-dasharray:none;stroke-opacity:1"
           d="M 525.71429,474.86222 411.42858,300.93365"
           id="path4257"
           inkscape:connector-curvature="0"
           sodipodi:nodetypes="cc" />
        <path
           sodipodi:nodetypes="cc"
           inkscape:connector-curvature="0"
           id="path4259"
           d="M 246.28573,453.29079 347.71431,301.14793"
           style="fill:none;fill-rule:evenodd;stroke:#fff500;stroke-width:9;stroke-linecap:butt;stroke-linejoin:miter;stroke-miterlimit:4;stroke-dasharray:none;stroke-opacity:1" />
        <path
           transform="matrix(0.15095089,0,0,0.12845739,324.59465,219.27221)"
           inkscape:transform-center-y="-9.5178112"
           d="m 620.95172,653.19121 -256.66598,0 -256.66598,0 128.33298,-222.27926 128.333,-222.27926 128.33298,222.27926 z"
           inkscape:randomized="0"
           inkscape:rounded="0"
           inkscape:flatsided="false"
           sodipodi:arg2="1.5707963"
           sodipodi:arg1="0.52359878"
           sodipodi:r2="148.18617"
           sodipodi:r1="296.37234"
           sodipodi:cy="505.00504"
           sodipodi:cx="364.28574"
           sodipodi:sides="3"
           id="path4243"
           style="opacity:1;fill:#f8c400;fill-opacity:1;stroke:none"
           sodipodi:type="star" />
        <path
           transform="matrix(0.15095089,0,0,0.12845739,86.166076,573.70079)"
           inkscape:transform-center-y="-9.5178112"
           d="m 620.95172,653.19121 -256.66598,0 -256.66598,0 128.33298,-222.27926 128.333,-222.27926 128.33298,222.27926 z"
           inkscape:randomized="0"
           inkscape:rounded="0"
           inkscape:flatsided="false"
           sodipodi:arg2="1.5707963"
           sodipodi:arg1="0.52359878"
           sodipodi:r2="148.18617"
           sodipodi:r1="296.37234"
           sodipodi:cy="505.00504"
           sodipodi:cx="364.28574"
           sodipodi:sides="3"
           id="path4247"
           style="opacity:1;fill:#5f7f7f;fill-opacity:1;stroke:none"
           sodipodi:type="star" />
        <path
           sodipodi:type="star"
           style="opacity:1;fill:#302254;fill-opacity:1;stroke:none"
           id="path4245"
           sodipodi:sides="3"
           sodipodi:cx="364.28574"
           sodipodi:cy="505.00504"
           sodipodi:r1="296.37234"
           sodipodi:r2="148.18617"
           sodipodi:arg1="0.52359878"
           sodipodi:arg2="1.5707963"
           inkscape:flatsided="false"
           inkscape:rounded="0"
           inkscape:randomized="0"
           d="m 620.95172,653.19121 -256.66598,0 -256.66598,0 128.33298,-222.27926 128.333,-222.27926 128.33298,222.27926 z"
           inkscape:transform-center-y="-9.5178112"
           transform="matrix(0.15095089,0,0,0.12845739,567.38037,572.77221)" />
        <path
           style="fill:#2d2354;fill-opacity:1;fill-rule:evenodd;stroke:none;stroke-width:1px;stroke-linecap:butt;stroke-linejoin:miter;stroke-opacity:1"
           d="m 345.28573,521.00507 -31.42857,-38.39286 224.64285,-0.35714 -129.64285,174.82143 -47.14286,0 109.64286,-135.35714 1.07143,-1.07143 z"
           id="path4263"
           inkscape:connector-curvature="0"
           sodipodi:nodetypes="cccccccc" />
        <path
           style="fill:#fffba8;fill-opacity:1;fill-rule:evenodd;stroke:none;stroke-width:4;stroke-linecap:butt;stroke-linejoin:miter;stroke-miterlimit:4;stroke-dasharray:none;stroke-opacity:1"
           d="M 513.53572,448.61221 244.0281,448.8341 362.64285,596.64792 384.96428,569.32649 314.26269,482.61475 538,482.18364 Z"
           id="path4261"
           inkscape:connector-curvature="0"
           sodipodi:nodetypes="ccccccc" />
        <path
           style="fill:#5f7f7f;fill-opacity:1;fill-rule:evenodd;stroke:none;stroke-width:4;stroke-linecap:butt;stroke-linejoin:miter;stroke-miterlimit:4;stroke-dasharray:none;stroke-opacity:1"
           d="m 361.64286,657.21934 111.25,-136.60714 -47.14286,0 -63.21429,75.89286 C 323.70289,546.7759 283.2056,498.0309 244.79587,447.97325 l -21.72445,34.96038 z"
           id="path4265"
           inkscape:connector-curvature="0"
           sodipodi:nodetypes="ccccccc" />
        <path
           style="fill:none;fill-rule:evenodd;stroke:#7ac39f;stroke-width:3;stroke-linecap:butt;stroke-linejoin:miter;stroke-miterlimit:4;stroke-dasharray:none;stroke-opacity:1"
           d="M 358.39811,655.13269 222.35579,484.22035"
           id="path4310"
           inkscape:connector-curvature="0"
           sodipodi:nodetypes="cc" />
        <path
           sodipodi:nodetypes="cc"
           style="fill:none;fill-rule:evenodd;stroke:#2d2354;stroke-width:2;stroke-linecap:butt;stroke-linejoin:miter;stroke-miterlimit:2;stroke-dasharray:none;stroke-opacity:1"
           d="m 425.65863,520.51267 -62.97841,77.25077"
           id="path4314"
           inkscape:connector-curvature="0" />
        <path
           style="fill:#b8da7d;fill-opacity:1;fill-rule:evenodd;stroke:none;stroke-width:1px;stroke-linecap:butt;stroke-linejoin:miter;stroke-opacity:1"
           d="m 431.35715,571.36219 -4.64285,6.42857 -24.5816,-30.29587 5.27422,-6.40689 z"
           id="path4285"
           inkscape:connector-curvature="0"
           sodipodi:nodetypes="ccccc" />
        <path
           inkscape:connector-curvature="0"
           id="path4316"
           d="M 472.18713,521.01772 345.72279,520.70474"
           style="fill:none;fill-rule:evenodd;stroke:#4d6364;stroke-width:2.00834036;stroke-linecap:butt;stroke-linejoin:miter;stroke-miterlimit:2;stroke-dasharray:none;stroke-opacity:1"
           sodipodi:nodetypes="cc" />
        <path
           inkscape:connector-curvature="0"
           id="path4312"
           d="M 384.99999,569.50507 316.17603,483.58158"
           style="fill:none;fill-rule:evenodd;stroke:#2d2354;stroke-width:2;stroke-linecap:butt;stroke-linejoin:miter;stroke-miterlimit:2;stroke-dasharray:none;stroke-opacity:1"
           sodipodi:nodetypes="cc" />
        <path
           style="fill:#9cb682;fill-opacity:1;fill-rule:evenodd;stroke:none;stroke-width:1px;stroke-linecap:butt;stroke-linejoin:miter;stroke-opacity:1"
           d="m 386.18501,521.78688 9.15944,0.12627 30.90555,-39.72951 -8.57143,0 z"
           id="path4279"
           inkscape:connector-curvature="0"
           sodipodi:nodetypes="ccccc" />
        <path
           sodipodi:nodetypes="ccccc"
           inkscape:connector-curvature="0"
           id="path4289"
           d="m 426.57166,482.45046 -9.09072,-0.096 -25.30481,-34.45302 9.85702,-0.10835 z"
           style="fill:#4d6364;fill-opacity:1;fill-rule:evenodd;stroke:none;stroke-width:1px;stroke-linecap:butt;stroke-linejoin:miter;stroke-opacity:1" />
        <path
           style="fill:#4d6364;fill-opacity:1;fill-rule:evenodd;stroke:none;stroke-width:1px;stroke-linecap:butt;stroke-linejoin:miter;stroke-opacity:1"
           d="m 538.30358,482.54078 -25.58531,-35.53572 -4.50399,0.18315 25.26787,35.08471 z"
           id="path4320"
           inkscape:connector-curvature="0"
           sodipodi:nodetypes="ccccc" />
        <path
           sodipodi:nodetypes="cc"
           inkscape:connector-curvature="0"
           id="path4328"
           d="M 362.32669,597.27554 245.57008,448.50606"
           style="fill:none;fill-rule:evenodd;stroke:#7ac39f;stroke-width:2;stroke-linecap:butt;stroke-linejoin:miter;stroke-miterlimit:4;stroke-dasharray:none;stroke-opacity:1" />
        <path
           sodipodi:nodetypes="cc"
           inkscape:connector-curvature="0"
           id="path4318"
           d="m 512.43715,448.68273 -266.08998,0.30858"
           style="fill:none;fill-rule:evenodd;stroke:#4d6364;stroke-width:2.9846518;stroke-linecap:butt;stroke-linejoin:miter;stroke-miterlimit:4;stroke-dasharray:none;stroke-opacity:1" />
        <path
           style="fill:#4d6364;fill-opacity:1;fill-rule:evenodd;stroke:none;stroke-width:1px;stroke-linecap:butt;stroke-linejoin:miter;stroke-opacity:1"
           d="m 245.84588,451.70025 0.75761,-1.51523 -0.25254,-2.77792 -1.6415,0 -1.13642,2.0203 z"
           id="path4326"
           inkscape:connector-curvature="0" />
        <path
           sodipodi:nodetypes="ccccc"
           inkscape:connector-curvature="0"
           id="path4281"
           d="m 292.79215,574.00369 4.01151,4.87373 26.38896,-31.64149 -4.76913,-6.15436 z"
           style="fill:#2d2354;fill-opacity:1;fill-rule:evenodd;stroke:none;stroke-width:1px;stroke-linecap:butt;stroke-linejoin:miter;stroke-opacity:1" />
        <path
           style="fill:#4d6364;fill-opacity:1;fill-rule:evenodd;stroke:none;stroke-width:1px;stroke-linecap:butt;stroke-linejoin:miter;stroke-opacity:1"
           d="m 318.19262,540.9553 45.63135,0.25254 5.02166,6.3023 -45.65301,0.23087 z"
           id="path4283"
           inkscape:connector-curvature="0"
           sodipodi:nodetypes="ccccc" />
        <path
           sodipodi:nodetypes="ccccc"
           inkscape:connector-curvature="0"
           id="path4322"
           d="m 223.09872,482.66705 21.90184,-35.51405 2.23115,2.70853 -22.08948,35.44185 z"
           style="fill:#2d2354;fill-opacity:1;fill-rule:evenodd;stroke:none;stroke-width:1px;stroke-linecap:butt;stroke-linejoin:miter;stroke-opacity:1" />
        <path
           sodipodi:nodetypes="cc"
           inkscape:connector-curvature="0"
           id="path4330"
           d="M 411.28436,655.48983 538.37273,484.42956"
           style="fill:none;fill-rule:evenodd;stroke:#967695;stroke-width:3;stroke-linecap:butt;stroke-linejoin:miter;stroke-miterlimit:4;stroke-dasharray:none;stroke-opacity:1" />
        <path
           inkscape:connector-curvature="0"
           id="path4287"
           d="m 426.35714,577.79077 41.717,0 4.39033,-6.42857 -41.10733,-0.35714 z"
           style="fill:#99b083;fill-opacity:1;fill-rule:evenodd;stroke:none;stroke-width:1px;stroke-linecap:butt;stroke-linejoin:miter;stroke-opacity:1"
           sodipodi:nodetypes="ccccc" />
      </g>
    </g>
    <g
       id="g4244"
       transform="translate(2.7779195,1.5355339)">
      <g
         style="font-style:normal;font-variant:normal;font-weight:bold;font-stretch:normal;font-size:25px;line-height:125%;font-family:Optima;-inkscape-font-specification:'Optima, Bold';text-align:start;letter-spacing:0px;word-spacing:0px;writing-mode:lr-tb;text-anchor:start;fill:#000000;fill-opacity:1;stroke:none;stroke-width:1px;stroke-linecap:butt;stroke-linejoin:miter;stroke-opacity:1"
         id="text4232">
        <path
           d="m 266.1737,1037.056 q 0,0.825 -0.225,1.45 -0.225,0.625 -0.6,1.075 -0.375,0.425 -0.875,0.65 -0.5,0.225 -1.05,0.225 -0.425,0 -0.725,0 -0.3,-0.025 -0.65,-0.05 0,-0.325 -0.025,-0.825 0,-0.5 0,-1.1 0,-0.6 -0.025,-1.225 0,-0.625 0,-1.225 0,-0.775 0,-1.325 0.025,-0.575 0.025,-1.1 0.225,0 0.475,0 0.25,-0.025 0.6,-0.025 1.5,0 2.275,0.875 0.8,0.85 0.8,2.6 z m -0.175,-8.075 q 0,0.8 -0.25,1.4 -0.25,0.6 -0.65,1 -0.4,0.375 -0.925,0.575 -0.5,0.2 -1.025,0.2 l -1.125,0 q 0,-0.65 -0.025,-1.25 0,-0.625 0,-1.3 0,-0.65 0.025,-1.6 0.025,-0.95 0.075,-1.875 0.25,-0.05 0.45,-0.05 0.225,-0.025 0.775,-0.025 0.75,0 1.25,0.25 0.5,0.225 0.825,0.625 0.325,0.375 0.45,0.925 0.15,0.525 0.15,1.125 z m -7.7,2.575 0,3.4 q 0,2.075 -0.05,3.7 -0.05,1.6 -0.15,3.15 0.425,-0.05 1.125,-0.05 0.725,0 1.4,0 0.95,0 1.8,0.025 0.875,0.025 1.875,0.025 1.125,0 2.175,-0.225 1.05,-0.25 1.85,-0.85 0.825,-0.6 1.3,-1.55 0.5,-0.95 0.5,-2.3 0,-1.125 -0.5,-1.9 -0.475,-0.8 -1.175,-1.3 -0.7,-0.5 -1.475,-0.725 -0.775,-0.25 -1.35,-0.275 l 0,-0.05 q 0.575,-0.1 1.275,-0.375 0.725,-0.275 1.325,-0.75 0.625,-0.5 1.05,-1.225 0.425,-0.75 0.425,-1.775 0,-1.025 -0.375,-1.75 -0.35,-0.75 -1.025,-1.2 -0.675,-0.475 -1.6,-0.7 -0.925,-0.225 -2.05,-0.225 -1.075,0 -2.25,0.075 -1.175,0.05 -2.25,0.05 -0.625,0 -1.125,-0.025 -0.5,-0.05 -0.925,-0.1 0.1,1.625 0.15,3.25 0.05,1.6 0.05,3.675 z"
           id="path4252"
           inkscape:connector-curvature="0" />
        <path
           d="m 273.1569,1031.606 0,1.625 q 0,2.45 -0.05,4.5 -0.05,2.05 -0.15,4.075 0.325,-0.05 0.825,-0.05 0.5,0 1.05,0 0.55,0 1.05,0 0.5,0 0.825,0.05 -0.1,-2.025 -0.15,-4.075 -0.05,-2.05 -0.05,-4.5 l 0,-1.625 q 0,-2.45 0.05,-4.5 0.05,-2.05 0.15,-4.15 -0.325,0.05 -0.825,0.1 -0.5,0.025 -1.05,0.025 -0.55,0 -1.05,-0.025 -0.5,-0.05 -0.825,-0.1 0.1,2.1 0.15,4.15 0.05,2.05 0.05,4.5 z"
           id="path4254"
           inkscape:connector-curvature="0" />
        <path
           d="m 287.71432,1035.206 q 0,5.875 -2.4,5.875 -0.7,0 -1.175,-0.375 -0.45,-0.375 -0.75,-1.025 -0.275,-0.675 -0.4,-1.575 -0.125,-0.9 -0.125,-1.95 0,-2.875 0.65,-4.225 0.675,-1.35 1.825,-1.35 1.275,0 1.825,1.225 0.55,1.2 0.55,3.4 z m -8.55,0.925 q 0,1.675 0.525,2.825 0.55,1.15 1.425,1.875 0.875,0.7 1.95,1 1.1,0.3 2.225,0.3 1.35,0 2.475,-0.425 1.125,-0.425 1.925,-1.275 0.825,-0.875 1.275,-2.1 0.45,-1.225 0.45,-2.75 0,-2.825 -1.6,-4.475 -1.6,-1.65 -4.525,-1.65 -1.175,0 -2.3,0.425 -1.1,0.4 -1.95,1.25 -0.85,0.825 -1.375,2.075 -0.5,1.25 -0.5,2.925 z"
           id="path4256"
           inkscape:connector-curvature="0" />
        <path
           d="m 298.35534,1030.481 q 0.675,0 1.125,0.7 0.45,0.675 0.45,2.375 0,1.725 -0.4,2.45 -0.4,0.725 -1.225,0.725 -0.3,0 -0.6,-0.15 -0.275,-0.15 -0.525,-0.5 -0.225,-0.35 -0.375,-0.9 -0.15,-0.575 -0.15,-1.4 0,-3.3 1.7,-3.3 z m 3.8,0.2 2.2,0.1 q -0.025,-0.15 -0.05,-0.3 0,-0.15 0,-0.3 0,-0.15 0,-0.3 0.025,-0.15 0.05,-0.3 -0.675,0 -1.35,0.025 -0.675,0 -1.3,0 -0.4,0 -0.75,0 -0.325,-0.025 -0.65,-0.05 -0.45,-0.025 -0.925,-0.05 -0.475,-0.05 -0.925,-0.05 -1.175,0 -2.15,0.275 -0.975,0.275 -1.675,0.8 -0.7,0.5 -1.1,1.25 -0.375,0.75 -0.375,1.7 0,1.6 0.85,2.6 0.825,0.975 2.35,1.35 l 0,0.05 q -1.05,0.275 -1.7,1.05 -0.625,0.775 -0.625,1.6 0,0.7 0.375,1.175 0.4,0.45 1.05,0.675 l 0,0.05 q -1.125,0.425 -1.8,1.15 -0.65,0.75 -0.65,1.95 0,1.5 1.3,2.4 1.325,0.925 3.675,0.925 1.1,0 2.275,-0.275 1.175,-0.275 2.125,-0.925 0.975,-0.625 1.575,-1.65 0.625,-1 0.625,-2.5 0,-1.675 -1,-2.425 -0.975,-0.775 -3.075,-0.8 l -1.85,-0.025 q -1,-0.025 -1.475,-0.375 -0.45,-0.35 -0.45,-0.95 0,-0.35 0.2,-0.625 0.225,-0.275 0.525,-0.275 0.325,0 0.575,0.025 0.275,0 0.55,0 1.1,0 1.975,-0.3 0.9,-0.3 1.525,-0.85 0.65,-0.55 1,-1.3 0.35,-0.775 0.35,-1.7 0,-0.95 -0.375,-1.625 -0.35,-0.7 -0.975,-1.15 l 0.075,-0.05 z m -0.475,13.775 q 0,0.6 -0.225,1.125 -0.2,0.55 -0.625,0.95 -0.4,0.425 -0.975,0.65 -0.575,0.25 -1.3,0.25 -0.675,0 -1.275,-0.2 -0.575,-0.175 -1.025,-0.525 -0.45,-0.35 -0.725,-0.9 -0.25,-0.525 -0.25,-1.25 0,-0.875 0.325,-1.45 0.35,-0.575 0.65,-0.725 0.5,-0.25 1.8,-0.25 0.85,0 1.525,0.075 0.675,0.1 1.125,0.35 0.475,0.25 0.725,0.7 0.25,0.475 0.25,1.2 z"
           id="path4258"
           inkscape:connector-curvature="0" />
      </g>
      <g
         style="font-style:normal;font-variant:normal;font-weight:bold;font-stretch:normal;font-size:25px;line-height:125%;font-family:Optima;-inkscape-font-specification:'Optima, Bold';text-align:start;letter-spacing:0px;word-spacing:0px;writing-mode:lr-tb;text-anchor:start;fill:#eeeebb;fill-opacity:1;stroke:none;stroke-width:1px;stroke-linecap:butt;stroke-linejoin:miter;stroke-opacity:1"
         id="text4240">
        <path
           d="m 264.91102,1035.7933 q 0,0.825 -0.225,1.45 -0.225,0.625 -0.6,1.075 -0.375,0.425 -0.875,0.65 -0.5,0.225 -1.05,0.225 -0.425,0 -0.725,0 -0.3,-0.025 -0.65,-0.05 0,-0.325 -0.025,-0.825 0,-0.5 0,-1.1 0,-0.6 -0.025,-1.225 0,-0.625 0,-1.225 0,-0.775 0,-1.325 0.025,-0.575 0.025,-1.1 0.225,0 0.475,0 0.25,-0.025 0.6,-0.025 1.5,0 2.275,0.875 0.8,0.85 0.8,2.6 z m -0.175,-8.075 q 0,0.8 -0.25,1.4 -0.25,0.6 -0.65,1 -0.4,0.375 -0.925,0.575 -0.5,0.2 -1.025,0.2 l -1.125,0 q 0,-0.65 -0.025,-1.25 0,-0.625 0,-1.3 0,-0.65 0.025,-1.6 0.025,-0.95 0.075,-1.875 0.25,-0.05 0.45,-0.05 0.225,-0.025 0.775,-0.025 0.75,0 1.25,0.25 0.5,0.225 0.825,0.625 0.325,0.375 0.45,0.925 0.15,0.525 0.15,1.125 z m -7.7,2.575 0,3.4 q 0,2.075 -0.05,3.7 -0.05,1.6 -0.15,3.15 0.425,-0.05 1.125,-0.05 0.725,0 1.4,0 0.95,0 1.8,0.025 0.875,0.025 1.875,0.025 1.125,0 2.175,-0.225 1.05,-0.25 1.85,-0.85 0.825,-0.6 1.3,-1.55 0.5,-0.95 0.5,-2.3 0,-1.125 -0.5,-1.9 -0.475,-0.8 -1.175,-1.3 -0.7,-0.5 -1.475,-0.725 -0.775,-0.25 -1.35,-0.275 l 0,-0.05 q 0.575,-0.1 1.275,-0.375 0.725,-0.275 1.325,-0.75 0.625,-0.5 1.05,-1.225 0.425,-0.75 0.425,-1.775 0,-1.025 -0.375,-1.75 -0.35,-0.75 -1.025,-1.2 -0.675,-0.475 -1.6,-0.7 -0.925,-0.225 -2.05,-0.225 -1.075,0 -2.25,0.075 -1.175,0.05 -2.25,0.05 -0.625,0 -1.125,-0.025 -0.5,-0.05 -0.925,-0.1 0.1,1.625 0.15,3.25 0.05,1.6 0.05,3.675 z"
           id="path4262"
           inkscape:connector-curvature="0" />
        <path
           d="m 271.89422,1030.3433 0,1.625 q 0,2.45 -0.05,4.5 -0.05,2.05 -0.15,4.075 0.325,-0.05 0.825,-0.05 0.5,0 1.05,0 0.55,0 1.05,0 0.5,0 0.825,0.05 -0.1,-2.025 -0.15,-4.075 -0.05,-2.05 -0.05,-4.5 l 0,-1.625 q 0,-2.45 0.05,-4.5 0.05,-2.05 0.15,-4.15 -0.325,0.05 -0.825,0.1 -0.5,0.025 -1.05,0.025 -0.55,0 -1.05,-0.025 -0.5,-0.05 -0.825,-0.1 0.1,2.1 0.15,4.15 0.05,2.05 0.05,4.5 z"
           id="path4264"
           inkscape:connector-curvature="0" />
        <path
           d="m 286.45164,1033.9433 q 0,5.875 -2.4,5.875 -0.7,0 -1.175,-0.375 -0.45,-0.375 -0.75,-1.025 -0.275,-0.675 -0.4,-1.575 -0.125,-0.9 -0.125,-1.95 0,-2.875 0.65,-4.225 0.675,-1.35 1.825,-1.35 1.275,0 1.825,1.225 0.55,1.2 0.55,3.4 z m -8.55,0.925 q 0,1.675 0.525,2.825 0.55,1.15 1.425,1.875 0.875,0.7 1.95,1 1.1,0.3 2.225,0.3 1.35,0 2.475,-0.425 1.125,-0.425 1.925,-1.275 0.825,-0.875 1.275,-2.1 0.45,-1.225 0.45,-2.75 0,-2.825 -1.6,-4.475 -1.6,-1.65 -4.525,-1.65 -1.175,0 -2.3,0.425 -1.1,0.4 -1.95,1.25 -0.85,0.825 -1.375,2.075 -0.5,1.25 -0.5,2.925 z"
           id="path4266"
           inkscape:connector-curvature="0" />
        <path
           d="m 297.09266,1029.2183 q 0.675,0 1.125,0.7 0.45,0.675 0.45,2.375 0,1.725 -0.4,2.45 -0.4,0.725 -1.225,0.725 -0.3,0 -0.6,-0.15 -0.275,-0.15 -0.525,-0.5 -0.225,-0.35 -0.375,-0.9 -0.15,-0.575 -0.15,-1.4 0,-3.3 1.7,-3.3 z m 3.8,0.2 2.2,0.1 q -0.025,-0.15 -0.05,-0.3 0,-0.15 0,-0.3 0,-0.15 0,-0.3 0.025,-0.15 0.05,-0.3 -0.675,0 -1.35,0.025 -0.675,0 -1.3,0 -0.4,0 -0.75,0 -0.325,-0.025 -0.65,-0.05 -0.45,-0.025 -0.925,-0.05 -0.475,-0.05 -0.925,-0.05 -1.175,0 -2.15,0.275 -0.975,0.275 -1.675,0.8 -0.7,0.5 -1.1,1.25 -0.375,0.75 -0.375,1.7 0,1.6 0.85,2.6 0.825,0.975 2.35,1.35 l 0,0.05 q -1.05,0.275 -1.7,1.05 -0.625,0.775 -0.625,1.6 0,0.7 0.375,1.175 0.4,0.45 1.05,0.675 l 0,0.05 q -1.125,0.425 -1.8,1.15 -0.65,0.75 -0.65,1.95 0,1.5 1.3,2.4 1.325,0.925 3.675,0.925 1.1,0 2.275,-0.275 1.175,-0.275 2.125,-0.925 0.975,-0.625 1.575,-1.65 0.625,-1 0.625,-2.5 0,-1.675 -1,-2.425 -0.975,-0.775 -3.075,-0.8 l -1.85,-0.025 q -1,-0.025 -1.475,-0.375 -0.45,-0.35 -0.45,-0.95 0,-0.35 0.2,-0.625 0.225,-0.275 0.525,-0.275 0.325,0 0.575,0.025 0.275,0 0.55,0 1.1,0 1.975,-0.3 0.9,-0.3 1.525,-0.85 0.65,-0.55 1,-1.3 0.35,-0.775 0.35,-1.7 0,-0.95 -0.375,-1.625 -0.35,-0.7 -0.975,-1.15 l 0.075,-0.05 z m -0.475,13.775 q 0,0.6 -0.225,1.125 -0.2,0.55 -0.625,0.95 -0.4,0.425 -0.975,0.65 -0.575,0.25 -1.3,0.25 -0.675,0 -1.275,-0.2 -0.575,-0.175 -1.025,-0.525 -0.45,-0.35 -0.725,-0.9 -0.25,-0.525 -0.25,-1.25 0,-0.875 0.325,-1.45 0.35,-0.575 0.65,-0.725 0.5,-0.25 1.8,-0.25 0.85,0 1.525,0.075 0.675,0.1 1.125,0.35 0.475,0.25 0.725,0.7 0.25,0.475 0.25,1.2 z"
           id="path4268"
           inkscape:connector-curvature="0" />
      </g>
    </g>
  </g>
</svg>
