<?xml version="1.0" encoding="UTF-8" standalone="no"?>
<!-- Created with Inkscape (http://www.inkscape.org/) -->

<svg
   xmlns:dc="http://purl.org/dc/elements/1.1/"
   xmlns:cc="http://creativecommons.org/ns#"
   xmlns:rdf="http://www.w3.org/1999/02/22-rdf-syntax-ns#"
   xmlns:svg="http://www.w3.org/2000/svg"
   xmlns="http://www.w3.org/2000/svg"
   xmlns:sodipodi="http://sodipodi.sourceforge.net/DTD/sodipodi-0.dtd"
   xmlns:inkscape="http://www.inkscape.org/namespaces/inkscape"
   width="9.6000004cm"
   height="1.5cm"
   viewBox="0 0 340.15751 53.149598"
   id="svg2"
   version="1.1"
   inkscape:version="0.91 r13725"
   sodipodi:docname="meritology_logo_text_white_small.svg">
  <defs
     id="defs4" />
  <sodipodi:namedview
     id="base"
     pagecolor="#d4d4d4"
     bordercolor="#666666"
     borderopacity="1.0"
     inkscape:pageopacity="0"
     inkscape:pageshadow="2"
     inkscape:zoom="1.979899"
     inkscape:cx="230.95721"
     inkscape:cy="52.375529"
     inkscape:document-units="px"
     inkscape:current-layer="layer1"
     showgrid="false"
     inkscape:window-width="1440"
     inkscape:window-height="851"
     inkscape:window-x="6"
     inkscape:window-y="17"
     inkscape:window-maximized="0"
     units="cm" />
  <metadata
     id="metadata7">
    <rdf:RDF>
      <cc:Work
         rdf:about="">
        <dc:format>image/svg+xml</dc:format>
        <dc:type
           rdf:resource="http://purl.org/dc/dcmitype/StillImage" />
        <dc:title></dc:title>
      </cc:Work>
    </rdf:RDF>
  </metadata>
  <g
     inkscape:label="Layer 1"
     inkscape:groupmode="layer"
     id="layer1"
     transform="translate(0,-999.21291)">
    <text
       xml:space="preserve"
       style="font-style:normal;font-weight:normal;font-size:40px;line-height:125%;font-family:sans-serif;letter-spacing:0px;word-spacing:0px;fill:#000000;fill-opacity:1;stroke:none;stroke-width:1px;stroke-linecap:butt;stroke-linejoin:miter;stroke-opacity:1"
       x="628.57141"
       y="962.36249"
       id="text4190"
       sodipodi:linespacing="125%"><tspan
         sodipodi:role="line"
         id="tspan4192"
         x="628.57141"
         y="962.36249" /></text>
    <g
       id="g4585"
       transform="translate(0,-1.7244383)">
      <g
         id="text4200"
         style="font-style:normal;font-weight:normal;font-size:24.2551136px;line-height:125%;font-family:sans-serif;letter-spacing:0px;word-spacing:0px;fill:#000000;fill-opacity:1;stroke:none;stroke-width:1px;stroke-linecap:butt;stroke-linejoin:miter;stroke-opacity:1">
        <path
           id="path4571"
           style="font-style:normal;font-variant:normal;font-weight:bold;font-stretch:normal;font-family:Optima;-inkscape-font-specification:'Optima Bold';fill:#000000;fill-opacity:1"
           d="m 265.65858,1034.6388 0,3.2987 q 0,2.0132 -0.0485,3.5898 -0.0485,1.5523 -0.14553,3.0561 0.19404,-0.024 0.46085,-0.048 0.29106,0 0.82467,0 0.55787,0 1.45531,0 0.92169,0 2.40126,0 1.6736,0 2.61955,0 0.9702,0.024 1.62509,0.048 -0.0485,-0.1455 -0.0728,-0.3638 -0.0243,-0.2183 -0.0243,-0.6064 0,-0.3881 0.0243,-0.6064 0.0242,-0.2183 0.0728,-0.4851 -1.4068,0.1698 -2.78934,0.2426 -1.38254,0.073 -2.76508,0.073 -0.0243,-0.946 -0.0485,-2.2315 0,-1.2855 0,-2.6681 l 0,-3.2987 q 0,-2.0131 0.0485,-3.5655 0.0485,-1.5766 0.14553,-3.1531 -0.41234,0.048 -0.89744,0.097 -0.4851,0.024 -1.09148,0.024 -0.60638,0 -1.09148,-0.024 -0.4851,-0.049 -0.89744,-0.097 0.097,1.5765 0.14553,3.1531 0.0485,1.5524 0.0485,3.5655 z"
           inkscape:connector-curvature="0" />
        <path
           id="path4573"
           style="font-style:normal;font-variant:normal;font-weight:bold;font-stretch:normal;font-family:Optima;-inkscape-font-specification:'Optima Bold';fill:#000000;fill-opacity:1"
           d="m 277.08274,1028.3325 q 0,0.8004 0.55787,1.3583 0.55787,0.5579 1.35829,0.5579 0.80041,0 1.35828,-0.5579 0.55787,-0.5579 0.55787,-1.3583 0,-0.8004 -0.55787,-1.3583 -0.55787,-0.5579 -1.35828,-0.5579 -0.80042,0 -1.35829,0.5579 -0.55787,0.5579 -0.55787,1.3583 z m 0.29106,9.9688 0,0.9703 q 0,1.4795 -0.0485,2.7893 -0.0242,1.3098 -0.14553,2.5225 0.33957,-0.048 0.80042,-0.048 0.46085,0 1.01872,0 0.55786,0 1.01871,0 0.4851,0 0.80042,0.048 -0.12128,-1.2127 -0.16979,-2.5225 -0.0242,-1.3098 -0.0242,-2.7893 l 0,-0.9703 q 0,-1.4795 0.0242,-2.765 0.0485,-1.3098 0.16979,-2.6196 -0.67914,0.1213 -1.81913,0.1213 -0.55787,0 -1.01872,-0.024 -0.46085,-0.048 -0.80042,-0.097 0.12128,1.3098 0.14553,2.6196 0.0485,1.2855 0.0485,2.765 z"
           inkscape:connector-curvature="0" />
        <path
           id="path4575"
           style="font-style:normal;font-variant:normal;font-weight:bold;font-stretch:normal;font-family:Optima;-inkscape-font-specification:'Optima Bold';fill:#000000;fill-opacity:1"
           d="m 287.13156,1038.8592 q 0,-1.3098 0.14553,-2.2072 0.16979,-0.9217 0.46085,-1.4796 0.31531,-0.5821 0.72765,-0.8246 0.43659,-0.2426 0.94595,-0.2426 2.08594,0 2.08594,4.2204 0,2.9591 -0.63063,4.2689 -0.60638,1.2855 -1.64935,1.2855 -0.65489,0 -1.06723,-0.3881 -0.38808,-0.388 -0.63063,-1.0429 -0.2183,-0.6792 -0.31532,-1.6009 -0.0728,-0.9217 -0.0728,-1.9889 z m -3.25019,-4.1719 0,1.5766 q 0,2.377 -0.0485,4.3902 -0.0485,1.9889 -0.14553,4.0263 l 0.58213,0 q 0.53361,-0.3395 1.04297,-0.7276 0.53361,-0.3881 1.04297,-0.6792 0.50935,0.7277 1.30977,1.1885 0.80042,0.4366 1.96467,0.4366 0.94594,0 1.91615,-0.3153 0.9702,-0.3153 1.74637,-1.0915 0.80042,-0.7761 1.28552,-2.0131 0.50936,-1.2613 0.50936,-3.0804 0,-1.2128 -0.33958,-2.2558 -0.33957,-1.0672 -0.9702,-1.8433 -0.60638,-0.7762 -1.47956,-1.2371 -0.84893,-0.4608 -1.8919,-0.4608 -1.09148,0 -1.96467,0.5336 -0.84892,0.5336 -1.26126,1.5523 l -0.0485,0 q 0,-2.377 0.0485,-4.3659 0.0485,-1.9889 0.14553,-4.0263 -0.31532,0.048 -0.80042,0.097 -0.4851,0.024 -1.01871,0.024 -0.53362,0 -1.01872,-0.024 -0.4851,-0.049 -0.80042,-0.097 0.097,2.0374 0.14553,4.0263 0.0485,1.9889 0.0485,4.3659 z"
           inkscape:connector-curvature="0" />
        <path
           id="path4577"
           style="font-style:normal;font-variant:normal;font-weight:bold;font-stretch:normal;font-family:Optima;-inkscape-font-specification:'Optima Bold';fill:#000000;fill-opacity:1"
           d="m 300.63294,1035.8758 0.0728,-2.9591 q -0.41234,0.049 -0.84893,0.097 -0.41234,0.024 -0.82468,0.024 -0.41233,0 -0.84892,-0.024 -0.41234,-0.048 -0.82468,-0.097 0.12128,1.3098 0.14553,2.6196 0.0485,1.2855 0.0485,2.765 l 0,0.9703 q 0,1.4795 -0.0485,2.7893 -0.0242,1.3098 -0.14553,2.5225 0.33957,-0.048 0.80042,-0.048 0.46085,0 1.01871,0 0.55787,0 1.01872,0 0.4851,0 0.80042,0.048 -0.12128,-1.2127 -0.16979,-2.5225 -0.0242,-1.3098 -0.0242,-2.7893 l 0,-0.9703 q 0,-0.9702 0.63063,-1.6736 0.63063,-0.7276 1.72211,-0.7276 0.38809,0 0.67915,0.097 0.31531,0.097 0.55786,0.2426 l 0.2183,-0.1941 q -0.0242,-0.194 -0.0242,-0.4123 0,-0.2183 0,-0.4124 l 0,-0.7761 q 0,-0.5579 0.0242,-0.9702 0.0485,-0.4124 0.12128,-0.7762 -0.097,0 -0.19405,0 -0.0728,-0.024 -0.19404,-0.024 -1.23701,0 -2.13445,0.8004 -0.89744,0.7761 -1.52807,2.4497 l -0.0485,-0.048 z"
           inkscape:connector-curvature="0" />
        <path
           id="path4579"
           style="font-style:normal;font-variant:normal;font-weight:bold;font-stretch:normal;font-family:Optima;-inkscape-font-specification:'Optima Bold';fill:#000000;fill-opacity:1"
           d="m 312.48573,1040.8966 q 0,1.1885 -0.50935,1.7949 -0.48511,0.6064 -1.28553,0.6064 -0.63063,0 -1.01871,-0.4608 -0.36383,-0.4851 -0.36383,-1.3826 0,-0.9217 0.29106,-1.4068 0.31532,-0.4851 0.77617,-0.7519 0.4851,-0.2911 1.04297,-0.4608 0.58212,-0.1941 1.09148,-0.4851 0,0.4123 -0.0243,0.9702 0,0.5336 0,1.5765 z m -5.74846,-6.5973 0.31532,1.4553 0.16978,0 q 0.16979,-0.2668 0.48511,-0.4851 0.33957,-0.2426 0.72765,-0.4366 0.41234,-0.1941 0.84893,-0.2911 0.43659,-0.1213 0.84893,-0.1213 1.09148,0 1.69786,0.6307 0.63063,0.6063 0.63063,1.4795 0,0.3153 -0.097,0.5336 -0.0728,0.2183 -0.36383,0.4124 -0.29106,0.1698 -0.89744,0.3638 -0.58212,0.1698 -1.60084,0.4123 -0.82467,0.1941 -1.47956,0.4851 -0.65489,0.2668 -1.13999,0.6792 -0.46085,0.4123 -0.72765,0.9944 -0.24255,0.5822 -0.24255,1.3826 0,0.5821 0.19404,1.1642 0.19404,0.5579 0.60638,1.0187 0.43659,0.4366 1.09148,0.6792 0.65488,0.2425 1.57658,0.2425 1.11573,0 1.84339,-0.4608 0.75191,-0.4609 1.30977,-1.237 0.29106,0.8247 0.84893,1.2612 0.55787,0.4366 1.45531,0.4366 0.55787,0 1.04297,-0.1455 0.4851,-0.1455 1.1885,-0.4366 l 0,-0.5821 q -0.36383,0 -0.65489,-0.049 -0.2668,-0.048 -0.43659,-0.2183 -0.16979,-0.1698 -0.26681,-0.4851 -0.0728,-0.3396 -0.0728,-0.9217 0,-1.3098 0.0242,-2.6196 0.0485,-1.334 0.0485,-2.8863 0,-1.0672 -0.33957,-1.8192 -0.31531,-0.7519 -0.92169,-1.2127 -0.58213,-0.4851 -1.4068,-0.7034 -0.80042,-0.2183 -1.77062,-0.2183 -1.16425,0 -2.35275,0.4366 -1.16424,0.4366 -2.18296,1.2613 z"
           inkscape:connector-curvature="0" />
        <path
           id="path4581"
           style="font-style:normal;font-variant:normal;font-weight:bold;font-stretch:normal;font-family:Optima;-inkscape-font-specification:'Optima Bold';fill:#000000;fill-opacity:1"
           d="m 322.18778,1035.8758 0.0728,-2.9591 q -0.41233,0.049 -0.84893,0.097 -0.41233,0.024 -0.82467,0.024 -0.41234,0 -0.84893,-0.024 -0.41234,-0.048 -0.82467,-0.097 0.12127,1.3098 0.14553,2.6196 0.0485,1.2855 0.0485,2.765 l 0,0.9703 q 0,1.4795 -0.0485,2.7893 -0.0243,1.3098 -0.14553,2.5225 0.33957,-0.048 0.80042,-0.048 0.46084,0 1.01871,0 0.55787,0 1.01872,0 0.4851,0 0.80041,0.048 -0.12127,-1.2127 -0.16978,-2.5225 -0.0243,-1.3098 -0.0243,-2.7893 l 0,-0.9703 q 0,-0.9702 0.63064,-1.6736 0.63063,-0.7276 1.72211,-0.7276 0.38808,0 0.67914,0.097 0.31532,0.097 0.55787,0.2426 l 0.2183,-0.1941 q -0.0243,-0.194 -0.0243,-0.4123 0,-0.2183 0,-0.4124 l 0,-0.7761 q 0,-0.5579 0.0243,-0.9702 0.0485,-0.4124 0.12127,-0.7762 -0.097,0 -0.19404,0 -0.0728,-0.024 -0.19404,-0.024 -1.23701,0 -2.13445,0.8004 -0.89744,0.7761 -1.52807,2.4497 l -0.0485,-0.048 z"
           inkscape:connector-curvature="0" />
        <path
           id="path4583"
           style="font-style:normal;font-variant:normal;font-weight:bold;font-stretch:normal;font-family:Optima;-inkscape-font-specification:'Optima Bold';fill:#000000;fill-opacity:1"
           d="m 333.84653,1040.5328 q -0.77616,-1.9161 -1.50382,-3.808 -0.7034,-1.8919 -1.40679,-3.8081 -0.46085,0.049 -0.89744,0.097 -0.4366,0.024 -0.89744,0.024 -0.46085,0 -0.9217,-0.024 -0.43659,-0.048 -0.89744,-0.097 0.29106,0.7277 0.84893,2.1102 0.58212,1.3825 1.26127,3.0562 0.7034,1.6736 1.40679,3.4199 0.72766,1.7464 1.30978,3.1289 -0.72765,1.6009 -1.50382,3.1532 -0.77616,1.5766 -1.57658,3.1774 0.26681,-0.049 0.50936,-0.097 0.24255,-0.024 0.50936,-0.024 0.2668,0 0.50935,0.024 0.24255,0.048 0.50936,0.097 0.55787,-1.5038 1.28552,-3.3472 0.75191,-1.8434 1.52807,-3.711 0.80042,-1.8919 1.57659,-3.7353 0.77616,-1.8434 1.40679,-3.3472 0.65489,-1.5281 1.09148,-2.5468 0.46085,-1.043 0.58213,-1.3583 -0.29107,0.049 -0.53362,0.097 -0.24255,0.024 -0.4851,0.024 -0.24255,0 -0.4851,-0.024 -0.2183,-0.048 -0.4851,-0.097 -0.31532,0.9945 -0.63064,1.8919 -0.29106,0.8975 -0.63063,1.7949 -0.31532,0.8974 -0.67914,1.8676 -0.36383,0.946 -0.80042,2.0617 z"
           inkscape:connector-curvature="0" />
      </g>
      <g
         transform="translate(0,52.857143)"
         id="text4269"
         style="font-style:normal;font-weight:normal;font-size:24.2551136px;line-height:125%;font-family:sans-serif;letter-spacing:0px;word-spacing:0px;fill:#eeeebb;fill-opacity:1;stroke:none;stroke-width:1px;stroke-linecap:butt;stroke-linejoin:miter;stroke-opacity:1">
        <path
           inkscape:connector-curvature="0"
           id="path4550"
           style="font-style:normal;font-variant:normal;font-weight:bold;font-stretch:normal;font-family:Optima;-inkscape-font-specification:'Optima Bold';fill:#eeeebb;fill-opacity:1"
           d="m 264.68403,980.59067 0,3.29869 q 0,2.01318 -0.0485,3.58976 -0.0485,1.55233 -0.14553,3.05615 0.19404,-0.0243 0.46085,-0.0485 0.29106,0 0.82467,0 0.55787,0 1.45531,0 0.9217,0 2.40126,0 1.6736,0 2.61955,0 0.9702,0.0243 1.62509,0.0485 -0.0485,-0.14554 -0.0728,-0.36383 -0.0243,-0.2183 -0.0243,-0.60638 0,-0.38808 0.0243,-0.60638 0.0242,-0.21829 0.0728,-0.4851 -1.40679,0.16979 -2.78934,0.24255 -1.38254,0.0728 -2.76508,0.0728 -0.0242,-0.94595 -0.0485,-2.23147 0,-1.28552 0,-2.66807 l 0,-3.29869 q 0,-2.01318 0.0485,-3.5655 0.0485,-1.57659 0.14553,-3.15317 -0.41233,0.0485 -0.89744,0.097 -0.4851,0.0243 -1.09148,0.0243 -0.60637,0 -1.09148,-0.0243 -0.4851,-0.0485 -0.89744,-0.097 0.097,1.57658 0.14553,3.15317 0.0485,1.55232 0.0485,3.5655 z" />
        <path
           inkscape:connector-curvature="0"
           id="path4552"
           style="font-style:normal;font-variant:normal;font-weight:bold;font-stretch:normal;font-family:Optima;-inkscape-font-specification:'Optima Bold';fill:#eeeebb;fill-opacity:1"
           d="m 276.10819,974.28434 q 0,0.80042 0.55787,1.35829 0.55787,0.55786 1.35829,0.55786 0.80042,0 1.35828,-0.55786 0.55787,-0.55787 0.55787,-1.35829 0,-0.80042 -0.55787,-1.35829 -0.55786,-0.55786 -1.35828,-0.55786 -0.80042,0 -1.35829,0.55786 -0.55787,0.55787 -0.55787,1.35829 z m 0.29106,9.96885 0,0.97021 q 0,1.47956 -0.0485,2.78933 -0.0242,1.30978 -0.14553,2.52254 0.33958,-0.0485 0.80042,-0.0485 0.46085,0 1.01872,0 0.55786,0 1.01871,0 0.4851,0 0.80042,0.0485 -0.12127,-1.21276 -0.16979,-2.52254 -0.0242,-1.30977 -0.0242,-2.78933 l 0,-0.97021 q 0,-1.47956 0.0242,-2.76508 0.0485,-1.30978 0.16979,-2.61955 -0.67914,0.12127 -1.81913,0.12127 -0.55787,0 -1.01872,-0.0242 -0.46084,-0.0485 -0.80042,-0.097 0.12128,1.30977 0.14553,2.61955 0.0485,1.28552 0.0485,2.76508 z" />
        <path
           inkscape:connector-curvature="0"
           id="path4554"
           style="font-style:normal;font-variant:normal;font-weight:bold;font-stretch:normal;font-family:Optima;-inkscape-font-specification:'Optima Bold';fill:#eeeebb;fill-opacity:1"
           d="m 286.15701,984.81106 q 0,-1.30978 0.14553,-2.20722 0.16979,-0.92169 0.46085,-1.47956 0.31531,-0.58212 0.72765,-0.82467 0.43659,-0.24255 0.94595,-0.24255 2.08594,0 2.08594,4.22039 0,2.95912 -0.63063,4.2689 -0.60638,1.28552 -1.64935,1.28552 -0.65489,0 -1.06722,-0.38808 -0.38809,-0.38809 -0.63064,-1.04297 -0.21829,-0.67915 -0.31531,-1.60084 -0.0728,-0.9217 -0.0728,-1.98892 z m -3.25018,-4.17188 0,1.57658 q 0,2.377 -0.0485,4.39018 -0.0485,1.98892 -0.14553,4.02635 l 0.58213,0 q 0.53361,-0.33958 1.04297,-0.72766 0.53361,-0.38808 1.04297,-0.67914 0.50935,0.72765 1.30977,1.1885 0.80042,0.43659 1.96467,0.43659 0.94595,0 1.91615,-0.31531 0.97021,-0.31532 1.74637,-1.09148 0.80042,-0.77617 1.28552,-2.01318 0.50936,-1.26126 0.50936,-3.0804 0,-1.21275 -0.33957,-2.25572 -0.33958,-1.06723 -0.97021,-1.84339 -0.60638,-0.77617 -1.47956,-1.23701 -0.84893,-0.46085 -1.8919,-0.46085 -1.09148,0 -1.96466,0.53361 -0.84893,0.53361 -1.26127,1.55233 l -0.0485,0 q 0,-2.377 0.0485,-4.36592 0.0485,-1.98892 0.14553,-4.02635 -0.31532,0.0485 -0.80042,0.097 -0.4851,0.0243 -1.01871,0.0243 -0.53361,0 -1.01872,-0.0243 -0.4851,-0.0485 -0.80042,-0.097 0.097,2.03743 0.14553,4.02635 0.0485,1.98892 0.0485,4.36592 z" />
        <path
           inkscape:connector-curvature="0"
           id="path4556"
           style="font-style:normal;font-variant:normal;font-weight:bold;font-stretch:normal;font-family:Optima;-inkscape-font-specification:'Optima Bold';fill:#eeeebb;fill-opacity:1"
           d="m 299.65839,981.82768 0.0728,-2.95912 q -0.41234,0.0485 -0.84893,0.097 -0.41234,0.0242 -0.82467,0.0242 -0.41234,0 -0.84893,-0.0242 -0.41234,-0.0485 -0.82468,-0.097 0.12128,1.30977 0.14553,2.61955 0.0485,1.28552 0.0485,2.76508 l 0,0.97021 q 0,1.47956 -0.0485,2.78933 -0.0242,1.30978 -0.14553,2.52254 0.33957,-0.0485 0.80042,-0.0485 0.46085,0 1.01872,0 0.55786,0 1.01871,0 0.4851,0 0.80042,0.0485 -0.12128,-1.21276 -0.16979,-2.52254 -0.0243,-1.30977 -0.0243,-2.78933 l 0,-0.97021 q 0,-0.9702 0.63063,-1.6736 0.63063,-0.72766 1.72212,-0.72766 0.38808,0 0.67914,0.097 0.31531,0.097 0.55787,0.24255 l 0.21829,-0.19404 q -0.0242,-0.19405 -0.0242,-0.41234 0,-0.2183 0,-0.41234 l 0,-0.77616 q 0,-0.55787 0.0242,-0.97021 0.0485,-0.41233 0.12128,-0.77616 -0.097,0 -0.19404,0 -0.0728,-0.0243 -0.19404,-0.0243 -1.23702,0 -2.13445,0.80042 -0.89744,0.77617 -1.52808,2.44977 l -0.0485,-0.0485 z" />
        <path
           inkscape:connector-curvature="0"
           id="path4558"
           style="font-style:normal;font-variant:normal;font-weight:bold;font-stretch:normal;font-family:Optima;-inkscape-font-specification:'Optima Bold';fill:#eeeebb;fill-opacity:1"
           d="m 311.51119,986.84849 q 0,1.1885 -0.50936,1.79488 -0.4851,0.60637 -1.28552,0.60637 -0.63064,0 -1.01872,-0.46084 -0.36382,-0.4851 -0.36382,-1.38254 0,-0.9217 0.29106,-1.4068 0.31531,-0.4851 0.77616,-0.75191 0.4851,-0.29106 1.04297,-0.46085 0.58212,-0.19404 1.09148,-0.4851 0,0.41234 -0.0242,0.97021 0,0.53361 0,1.57658 z m -5.74847,-6.59739 0.31532,1.4553 0.16979,0 q 0.16978,-0.2668 0.4851,-0.4851 0.33957,-0.24255 0.72765,-0.43659 0.41234,-0.19404 0.84893,-0.29106 0.43659,-0.12128 0.84893,-0.12128 1.09148,0 1.69786,0.63064 0.63063,0.60637 0.63063,1.47956 0,0.31531 -0.097,0.53361 -0.0728,0.2183 -0.36383,0.41234 -0.29106,0.16978 -0.89744,0.36382 -0.58212,0.16979 -1.60083,0.41234 -0.82468,0.19404 -1.47957,0.4851 -0.65488,0.26681 -1.13999,0.67915 -0.46084,0.41233 -0.72765,0.99446 -0.24255,0.58212 -0.24255,1.38254 0,0.58212 0.19404,1.16424 0.19404,0.55787 0.60638,1.01872 0.43659,0.43659 1.09148,0.67914 0.65489,0.24255 1.57658,0.24255 1.11574,0 1.84339,-0.46085 0.75191,-0.46084 1.30978,-1.23701 0.29106,0.82468 0.84892,1.26127 0.55787,0.43659 1.45531,0.43659 0.55787,0 1.04297,-0.14553 0.4851,-0.14553 1.1885,-0.43659 l 0,-0.58212 q -0.36383,0 -0.65489,-0.0485 -0.2668,-0.0485 -0.43659,-0.2183 -0.16978,-0.16979 -0.2668,-0.4851 -0.0728,-0.33957 -0.0728,-0.9217 0,-1.30977 0.0242,-2.61955 0.0485,-1.33403 0.0485,-2.88636 0,-1.06722 -0.33958,-1.81913 -0.31531,-0.75191 -0.92169,-1.21276 -0.58212,-0.4851 -1.4068,-0.70339 -0.80042,-0.2183 -1.77062,-0.2183 -1.16425,0 -2.35275,0.43659 -1.16424,0.43659 -2.18296,1.26127 z" />
        <path
           inkscape:connector-curvature="0"
           id="path4560"
           style="font-style:normal;font-variant:normal;font-weight:bold;font-stretch:normal;font-family:Optima;-inkscape-font-specification:'Optima Bold';fill:#eeeebb;fill-opacity:1"
           d="m 321.21323,981.82768 0.0728,-2.95912 q -0.41233,0.0485 -0.84892,0.097 -0.41234,0.0242 -0.82468,0.0242 -0.41233,0 -0.84893,-0.0242 -0.41233,-0.0485 -0.82467,-0.097 0.12127,1.30977 0.14553,2.61955 0.0485,1.28552 0.0485,2.76508 l 0,0.97021 q 0,1.47956 -0.0485,2.78933 -0.0243,1.30978 -0.14553,2.52254 0.33957,-0.0485 0.80042,-0.0485 0.46085,0 1.01871,0 0.55787,0 1.01872,0 0.4851,0 0.80042,0.0485 -0.12128,-1.21276 -0.16979,-2.52254 -0.0242,-1.30977 -0.0242,-2.78933 l 0,-0.97021 q 0,-0.9702 0.63063,-1.6736 0.63063,-0.72766 1.72211,-0.72766 0.38808,0 0.67914,0.097 0.31532,0.097 0.55787,0.24255 l 0.2183,-0.19404 q -0.0243,-0.19405 -0.0243,-0.41234 0,-0.2183 0,-0.41234 l 0,-0.77616 q 0,-0.55787 0.0243,-0.97021 0.0485,-0.41233 0.12127,-0.77616 -0.097,0 -0.19404,0 -0.0728,-0.0243 -0.19404,-0.0243 -1.23701,0 -2.13445,0.80042 -0.89744,0.77617 -1.52807,2.44977 l -0.0485,-0.0485 z" />
        <path
           inkscape:connector-curvature="0"
           id="path4562"
           style="font-style:normal;font-variant:normal;font-weight:bold;font-stretch:normal;font-family:Optima;-inkscape-font-specification:'Optima Bold';fill:#eeeebb;fill-opacity:1"
           d="m 332.87198,986.48466 q -0.77616,-1.91615 -1.50382,-3.80805 -0.70339,-1.8919 -1.40679,-3.80805 -0.46085,0.0485 -0.89744,0.097 -0.43659,0.0242 -0.89744,0.0242 -0.46085,0 -0.9217,-0.0242 -0.43659,-0.0485 -0.89744,-0.097 0.29107,0.72765 0.84893,2.11019 0.58213,1.38254 1.26127,3.05615 0.7034,1.6736 1.4068,3.41997 0.72765,1.74636 1.30977,3.12891 -0.72765,1.60083 -1.50381,3.15316 -0.77617,1.57658 -1.57659,3.17742 0.26681,-0.0485 0.50936,-0.097 0.24255,-0.0243 0.50936,-0.0243 0.2668,0 0.50936,0.0243 0.24255,0.0485 0.50935,0.097 0.55787,-1.50382 1.28552,-3.34721 0.75191,-1.84338 1.52808,-3.71103 0.80041,-1.8919 1.57658,-3.73529 0.77616,-1.84338 1.40679,-3.3472 0.65489,-1.52807 1.09148,-2.54679 0.46085,-1.04297 0.58213,-1.35828 -0.29106,0.0485 -0.53361,0.097 -0.24256,0.0242 -0.48511,0.0242 -0.24255,0 -0.4851,-0.0242 -0.2183,-0.0485 -0.4851,-0.097 -0.31532,0.99446 -0.63063,1.89189 -0.29107,0.89744 -0.63064,1.79488 -0.31531,0.89744 -0.67914,1.86765 -0.36383,0.94595 -0.80042,2.06168 z" />
      </g>
    </g>
    <g
       style="font-style:normal;font-weight:normal;font-size:28.69930649px;line-height:125%;font-family:sans-serif;letter-spacing:0px;word-spacing:0px;opacity:0.97000002;fill:#000000;fill-opacity:1;stroke:none;stroke-width:1px;stroke-linecap:butt;stroke-linejoin:miter;stroke-opacity:1"
       id="text4182"
       transform="translate(0,0.23984746)">
      <path
         d="m 242.33202,1039.0183 0,-6.5897 13.17954,3.2949 -13.17954,3.2948 z m 0.95378,-5.3662 0,4.1427 8.28539,-2.0713 -8.28539,-2.0714 z"
         style="font-size:19.73077393px;fill:#000000;fill-opacity:1"
         id="path4568"
         inkscape:connector-curvature="0" />
    </g>
    <g
       style="font-style:normal;font-weight:normal;font-size:28.69930649px;line-height:125%;font-family:sans-serif;letter-spacing:0px;word-spacing:0px;opacity:0.97000002;fill:#cecece;fill-opacity:1;stroke:none;stroke-width:1px;stroke-linecap:butt;stroke-linejoin:miter;stroke-opacity:1"
       id="text4273"
       transform="translate(0,53.09699)">
      <path
         d="m 241.40955,985.49496 0,-6.58977 13.17954,3.29489 -13.17954,3.29488 z m 0.95378,-5.36623 0,4.14269 8.28539,-2.07134 -8.28539,-2.07135 z"
         style="font-size:19.73077393px;fill:#cecece;fill-opacity:1"
         id="path4565"
         inkscape:connector-curvature="0" />
    </g>
    <g
       id="g4351"
       transform="translate(0,1.2475335)">
      <g
         id="text5703"
         style="font-style:normal;font-weight:normal;font-size:92.10561371px;line-height:125%;font-family:sans-serif;letter-spacing:0px;word-spacing:0px;fill:#000000;fill-opacity:1;stroke:none;stroke-width:1px;stroke-linecap:butt;stroke-linejoin:miter;stroke-opacity:1"
         transform="matrix(0.30679734,0,0,0.3467662,2.0121751,709.29191)">
        <path
           id="path5073"
           style="font-style:normal;font-variant:normal;font-weight:normal;font-stretch:normal;font-family:Copperplate;-inkscape-font-specification:Copperplate;fill:#000000;fill-opacity:1"
           d="m 233.06222,957.74963 q 0.73684,0 1.28948,-0.36842 0.55263,-0.46053 0.55263,-1.28948 l 0,-42.00016 q 0,-0.82895 -0.55263,-1.10527 -0.55264,-0.36842 -1.28948,-0.36842 l 0,-1.6579 17.22375,0 0,1.6579 q -0.46053,0 -1.01316,0.27632 -0.46053,0.27631 -0.46053,0.82895 0,0.46053 0.36842,1.19737 0.36842,0.73685 0.82895,1.5658 l 13.1711,23.94746 13.26321,-23.67115 q 0.64474,-1.19737 0.92106,-1.84211 0.36842,-0.73684 0.36842,-1.28948 0,-1.01316 -1.19737,-1.01316 l 0,-1.6579 17.03954,0 0,1.6579 q -0.73685,0 -1.28948,0.36842 -0.55264,0.27632 -0.55264,1.10527 l 0,42.00016 q 0,0.82895 0.55264,1.28948 0.55263,0.36842 1.28948,0.36842 l 0,1.6579 -14.46058,0 0,-1.6579 q 2.48685,0 2.48685,-1.6579 l 0,-30.57906 -0.18421,0 -18.51323,33.89486 -0.27632,0 -18.14481,-33.98697 -0.18421,0 0,30.67117 q 0,1.6579 2.57896,1.6579 l 0,1.6579 -13.81584,0 0,-1.6579 z"
           inkscape:connector-curvature="0" />
        <path
           id="path5075"
           style="font-style:normal;font-variant:normal;font-weight:normal;font-stretch:normal;font-family:Copperplate;-inkscape-font-specification:Copperplate;fill:#000000;fill-opacity:1"
           d="m 344.877,927.44688 q 0,-1.75 -2.85528,-1.75 l -22.47377,0 0,9.21056 14.18427,0 q 1.56579,0 2.30264,-0.18421 0.73684,-0.27632 0.73684,-1.28948 l 1.6579,0 0,9.76319 -1.84211,0 q 0.27632,-1.01316 -0.73684,-1.19737 -1.01317,-0.27632 -2.85528,-0.27632 l -13.44742,0 0,10.86847 23.57904,0 q 1.10527,0 1.84211,-0.46053 0.73685,-0.55264 0.73685,-1.38159 l 1.6579,0 0,9.67109 -1.6579,0 q 0,-0.82895 -0.73685,-0.92105 -0.73684,-0.0921 -1.84211,-0.0921 l -33.80276,0 0,-1.6579 q 0.46053,0 0.92105,-0.27632 0.46053,-0.36842 0.46053,-1.10526 l 0,-34.4475 q 0,-0.73685 -0.46053,-1.01316 -0.46052,-0.36843 -0.92105,-0.36843 l 0,-1.6579 32.69749,0 q 2.85528,0 2.85528,-1.6579 l 1.6579,0 0,10.22372 -1.6579,0 z"
           inkscape:connector-curvature="0" />
        <path
           id="path5077"
           style="font-style:normal;font-variant:normal;font-weight:normal;font-stretch:normal;font-family:Copperplate;-inkscape-font-specification:Copperplate;fill:#000000;fill-opacity:1"
           d="m 385.28258,936.38113 q 9.02635,0 9.02635,-5.71055 0,-2.30264 -2.21053,-3.59212 -2.11843,-1.38158 -6.81582,-1.38158 l -14.55269,0 0,10.68425 14.55269,0 z m 0.18421,-17.50007 q 8.1974,0 12.80268,2.76317 4.60528,2.67106 4.60528,9.21056 0,2.48685 -0.92105,4.42107 -0.92106,1.93422 -2.48686,3.40791 -1.47368,1.38158 -3.3158,2.30264 -1.84211,0.82895 -3.77633,1.28948 l 9.02635,13.1711 q 0.73685,1.01316 1.5658,1.5658 0.92105,0.46052 1.93422,0.73684 l 0,1.6579 -14.09216,0 0,-1.6579 q 1.19737,0 1.19737,-0.82895 0,-0.92106 -1.38158,-2.85527 l -7.27635,-10.86847 -12.80268,0 0,13.17111 q 0,0.73684 0.55264,1.10526 0.64474,0.27632 1.19737,0.27632 l 0,1.6579 -12.25005,0 0,-1.6579 q 1.6579,0 1.6579,-1.38158 l 0,-34.4475 q 0,-1.38159 -1.6579,-1.38159 l 0,-1.6579 25.42115,0 z"
           inkscape:connector-curvature="0" />
        <path
           id="path5079"
           style="font-style:normal;font-variant:normal;font-weight:normal;font-stretch:normal;font-family:Copperplate;-inkscape-font-specification:Copperplate;fill:#000000;fill-opacity:1"
           d="m 417.45766,957.74963 q 1.47369,0 2.02632,-0.27632 0.55263,-0.36842 0.55263,-1.10526 l 0,-34.4475 q 0,-0.73685 -0.55263,-1.01316 -0.55263,-0.36843 -2.02632,-0.36843 l 0,-1.6579 14.00005,0 0,1.6579 q -2.57896,0 -2.57896,1.38159 l 0,34.4475 q 0,1.38158 2.57896,1.38158 l 0,1.6579 -14.00005,0 0,-1.6579 z"
           inkscape:connector-curvature="0" />
        <path
           id="path5081"
           style="font-style:normal;font-variant:normal;font-weight:normal;font-stretch:normal;font-family:Copperplate;-inkscape-font-specification:Copperplate;fill:#000000;fill-opacity:1"
           d="m 457.15374,957.74963 q 0.46053,0 0.92106,-0.27632 0.46053,-0.36842 0.46053,-1.10526 l 0,-30.67117 -11.97373,0 q -0.73685,0 -1.38159,0.36842 -0.64474,0.36842 -0.64474,1.19737 l -1.6579,0 0,-10.59214 1.6579,0 q 0,1.28948 0.64474,1.75 0.64474,0.46053 1.38159,0.46053 l 32.7896,0 q 0.73684,0 1.38158,-0.46053 0.64474,-0.46052 0.64474,-1.75 l 1.6579,0 0,10.59214 -1.6579,0 q 0,-0.82895 -0.64474,-1.19737 -0.64474,-0.36842 -1.38158,-0.36842 l -11.97373,0 0,30.67117 q 0,1.38158 1.6579,1.38158 l 0,1.6579 -11.88163,0 0,-1.6579 z"
           inkscape:connector-curvature="0" />
        <path
           id="path5083"
           style="font-style:normal;font-variant:normal;font-weight:normal;font-stretch:normal;font-family:Copperplate;-inkscape-font-specification:Copperplate;fill:#000000;fill-opacity:1"
           d="m 513.89511,925.14424 q -2.94738,0 -5.80265,1.01317 -2.76317,0.92105 -4.9737,2.76316 -2.21054,1.75001 -3.59212,4.32897 -1.28948,2.57895 -1.28948,5.89476 0,3.3158 1.28948,5.89476 1.38158,2.57895 3.59212,4.42107 2.21053,1.75 4.9737,2.76316 2.85527,0.92106 5.80265,0.92106 2.94738,0 5.71055,-0.92106 2.85528,-1.01316 5.06581,-2.76316 2.21054,-1.84212 3.50001,-4.42107 1.38159,-2.57896 1.38159,-5.89476 0,-3.31581 -1.38159,-5.89476 -1.28947,-2.57896 -3.50001,-4.32897 -2.21053,-1.84211 -5.06581,-2.76316 -2.76317,-1.01317 -5.71055,-1.01317 z m 0,-6.81581 q 5.06581,0 9.48688,1.28948 4.51318,1.28948 7.82898,3.86843 3.3158,2.57896 5.25002,6.5395 1.93422,3.86844 1.93422,9.11846 0,5.25002 -1.93422,9.21056 -1.93422,3.86843 -5.25002,6.44739 -3.3158,2.57896 -7.82898,3.77633 -4.42107,1.10527 -9.48688,1.10527 -5.0658,0 -9.57898,-1.10527 -4.42107,-1.19737 -7.73687,-3.77633 -3.3158,-2.57896 -5.25002,-6.44739 -1.93422,-3.96054 -1.93422,-9.21056 0,-5.25002 1.93422,-9.11846 1.93422,-3.96054 5.25002,-6.5395 3.3158,-2.57895 7.73687,-3.86843 4.51318,-1.28948 9.57898,-1.28948 z"
           inkscape:connector-curvature="0" />
        <path
           id="path5085"
           style="font-style:normal;font-variant:normal;font-weight:normal;font-stretch:normal;font-family:Copperplate;-inkscape-font-specification:Copperplate;fill:#000000;fill-opacity:1"
           d="m 562.46501,918.88106 0,1.6579 q -2.11843,0 -2.11843,1.38159 l 0,30.67117 24.86851,0 q 1.10527,0 1.84211,-0.46053 0.73685,-0.55264 0.73685,-1.47369 l 1.6579,0 0,9.67109 -1.6579,0 q 0,-0.73685 -0.73685,-0.82895 -0.73684,-0.0921 -1.84211,-0.0921 l -36.1054,0 0,-1.6579 q 2.39475,0 2.39475,-1.38158 l 0,-34.4475 q 0,-1.38159 -2.39475,-1.38159 l 0,-1.6579 13.35532,0 z"
           inkscape:connector-curvature="0" />
        <path
           id="path5087"
           style="font-style:normal;font-variant:normal;font-weight:normal;font-stretch:normal;font-family:Copperplate;-inkscape-font-specification:Copperplate;fill:#000000;fill-opacity:1"
           d="m 621.47159,925.14424 q -2.94738,0 -5.80265,1.01317 -2.76317,0.92105 -4.97371,2.76316 -2.21053,1.75001 -3.59211,4.32897 -1.28948,2.57895 -1.28948,5.89476 0,3.3158 1.28948,5.89476 1.38158,2.57895 3.59211,4.42107 2.21054,1.75 4.97371,2.76316 2.85527,0.92106 5.80265,0.92106 2.94738,0 5.71055,-0.92106 2.85527,-1.01316 5.06581,-2.76316 2.21053,-1.84212 3.50001,-4.42107 1.38159,-2.57896 1.38159,-5.89476 0,-3.31581 -1.38159,-5.89476 -1.28948,-2.57896 -3.50001,-4.32897 -2.21054,-1.84211 -5.06581,-2.76316 -2.76317,-1.01317 -5.71055,-1.01317 z m 0,-6.81581 q 5.06581,0 9.48688,1.28948 4.51317,1.28948 7.82898,3.86843 3.3158,2.57896 5.25002,6.5395 1.93421,3.86844 1.93421,9.11846 0,5.25002 -1.93421,9.21056 -1.93422,3.86843 -5.25002,6.44739 -3.31581,2.57896 -7.82898,3.77633 -4.42107,1.10527 -9.48688,1.10527 -5.06581,0 -9.57898,-1.10527 -4.42107,-1.19737 -7.73687,-3.77633 -3.31581,-2.57896 -5.25002,-6.44739 -1.93422,-3.96054 -1.93422,-9.21056 0,-5.25002 1.93422,-9.11846 1.93421,-3.96054 5.25002,-6.5395 3.3158,-2.57895 7.73687,-3.86843 4.51317,-1.28948 9.57898,-1.28948 z"
           inkscape:connector-curvature="0" />
        <path
           id="path5089"
           style="font-style:normal;font-variant:normal;font-weight:normal;font-stretch:normal;font-family:Copperplate;-inkscape-font-specification:Copperplate;fill:#000000;fill-opacity:1"
           d="m 693.06789,932.23638 -1.10527,-0.64474 q 0.18421,-0.92106 0.18421,-1.01317 0,-0.82895 -1.19737,-1.75 -1.19738,-1.01316 -3.13159,-1.84211 -1.93422,-0.82895 -4.42107,-1.28948 -2.39475,-0.55264 -4.8816,-0.55264 -3.40791,0 -6.44739,0.82895 -3.03949,0.73685 -5.34213,2.48686 -2.30264,1.6579 -3.68422,4.32896 -1.38159,2.67106 -1.38159,6.5395 0,3.86843 1.47369,6.5395 1.47369,2.57895 3.77633,4.23685 2.39475,1.5658 5.25002,2.30265 2.85528,0.73684 5.52634,0.73684 3.96054,0 7.46055,-0.55263 3.59212,-0.55264 6.5395,-2.11843 l 0,-5.80266 -9.48688,0 q -1.01316,0 -1.75,0.46053 -0.73685,0.36842 -0.92106,1.47369 l -1.6579,0 0,-9.48688 1.6579,0 q 0.18421,0.92106 0.92106,1.19738 0.73684,0.27631 1.75,0.27631 l 18.0527,0 0,1.6579 q -0.82895,0.36843 -1.10526,0.82895 -0.27632,0.46053 -0.27632,1.38159 l 0,8.75003 q 0,0.82895 0.18421,1.19738 0.27632,0.27631 1.19737,0.64473 l 0,1.10527 q -0.82895,0.55264 -2.67106,1.5658 -1.75001,0.92105 -4.51317,1.84211 -2.67107,0.92106 -6.26319,1.56579 -3.59211,0.55264 -8.01318,0.55264 -5.98687,0 -10.86847,-1.28948 -4.78949,-1.38158 -8.1974,-4.05265 -3.3158,-2.67106 -5.15791,-6.44739 -1.75001,-3.86844 -1.75001,-8.75003 0,-4.8816 1.75001,-8.65793 1.84211,-3.86844 5.15791,-6.5395 3.40791,-2.76317 8.1974,-4.14475 4.8816,-1.47369 10.86847,-1.47369 3.59211,0 6.35528,0.64474 2.76317,0.64474 4.7895,1.38158 2.11842,0.73685 3.4079,1.38159 1.28948,0.64474 1.93422,0.64474 0.73685,0 1.10527,-0.0921 0.36842,-0.18421 0.92105,-0.64474 l 1.10527,0.55263 -5.34212,10.03952 z"
           inkscape:connector-curvature="0" />
        <path
           id="path5091"
           style="font-style:normal;font-variant:normal;font-weight:normal;font-stretch:normal;font-family:Copperplate;-inkscape-font-specification:Copperplate;fill:#000000;fill-opacity:1"
           d="m 711.33931,922.10476 q -0.64474,-0.82895 -1.5658,-1.19737 -0.92105,-0.36843 -1.75,-0.36843 l 0,-1.6579 15.19742,0 0,1.6579 q -0.46052,0 -1.01316,0.36843 -0.55263,0.27631 -0.55263,0.82895 0,0.55263 0.36842,1.01316 0.36842,0.46053 0.82895,1.10526 l 9.30267,12.15795 8.1974,-11.4211 q 0.82895,-1.19737 1.19737,-1.75001 0.46053,-0.64474 0.46053,-1.19737 0,-0.73684 -0.46053,-0.92106 -0.46053,-0.18421 -0.92105,-0.18421 l 0,-1.6579 14.09215,0 0,1.6579 q -1.10526,0 -2.48685,1.28948 -1.28948,1.19737 -2.30264,2.48685 l -14.09216,18.23691 0,13.81585 q 0,1.38158 1.75001,1.38158 l 0,1.6579 -12.25005,0 0,-1.6579 q 1.6579,0 1.6579,-1.38158 l 0,-14.18427 -15.65795,-20.07902 z"
           inkscape:connector-curvature="0" />
      </g>
      <g
         transform="matrix(0.30679734,0,0,0.3467662,0.94074647,708.0419)"
         style="font-style:normal;font-weight:normal;font-size:92.10561371px;line-height:125%;font-family:sans-serif;letter-spacing:0px;word-spacing:0px;fill:#ffffff;fill-opacity:1;stroke:none;stroke-width:1px;stroke-linecap:butt;stroke-linejoin:miter;stroke-opacity:1"
         id="g4329">
        <path
           inkscape:connector-curvature="0"
           d="m 233.06222,957.74963 q 0.73684,0 1.28948,-0.36842 0.55263,-0.46053 0.55263,-1.28948 l 0,-42.00016 q 0,-0.82895 -0.55263,-1.10527 -0.55264,-0.36842 -1.28948,-0.36842 l 0,-1.6579 17.22375,0 0,1.6579 q -0.46053,0 -1.01316,0.27632 -0.46053,0.27631 -0.46053,0.82895 0,0.46053 0.36842,1.19737 0.36842,0.73685 0.82895,1.5658 l 13.1711,23.94746 13.26321,-23.67115 q 0.64474,-1.19737 0.92106,-1.84211 0.36842,-0.73684 0.36842,-1.28948 0,-1.01316 -1.19737,-1.01316 l 0,-1.6579 17.03954,0 0,1.6579 q -0.73685,0 -1.28948,0.36842 -0.55264,0.27632 -0.55264,1.10527 l 0,42.00016 q 0,0.82895 0.55264,1.28948 0.55263,0.36842 1.28948,0.36842 l 0,1.6579 -14.46058,0 0,-1.6579 q 2.48685,0 2.48685,-1.6579 l 0,-30.57906 -0.18421,0 -18.51323,33.89486 -0.27632,0 -18.14481,-33.98697 -0.18421,0 0,30.67117 q 0,1.6579 2.57896,1.6579 l 0,1.6579 -13.81584,0 0,-1.6579 z"
           style="font-style:normal;font-variant:normal;font-weight:normal;font-stretch:normal;font-family:Copperplate;-inkscape-font-specification:Copperplate;fill:#ffffff;fill-opacity:1"
           id="path4331" />
        <path
           inkscape:connector-curvature="0"
           d="m 344.877,927.44688 q 0,-1.75 -2.85528,-1.75 l -22.47377,0 0,9.21056 14.18427,0 q 1.56579,0 2.30264,-0.18421 0.73684,-0.27632 0.73684,-1.28948 l 1.6579,0 0,9.76319 -1.84211,0 q 0.27632,-1.01316 -0.73684,-1.19737 -1.01317,-0.27632 -2.85528,-0.27632 l -13.44742,0 0,10.86847 23.57904,0 q 1.10527,0 1.84211,-0.46053 0.73685,-0.55264 0.73685,-1.38159 l 1.6579,0 0,9.67109 -1.6579,0 q 0,-0.82895 -0.73685,-0.92105 -0.73684,-0.0921 -1.84211,-0.0921 l -33.80276,0 0,-1.6579 q 0.46053,0 0.92105,-0.27632 0.46053,-0.36842 0.46053,-1.10526 l 0,-34.4475 q 0,-0.73685 -0.46053,-1.01316 -0.46052,-0.36843 -0.92105,-0.36843 l 0,-1.6579 32.69749,0 q 2.85528,0 2.85528,-1.6579 l 1.6579,0 0,10.22372 -1.6579,0 z"
           style="font-style:normal;font-variant:normal;font-weight:normal;font-stretch:normal;font-family:Copperplate;-inkscape-font-specification:Copperplate;fill:#ffffff;fill-opacity:1"
           id="path4333" />
        <path
           inkscape:connector-curvature="0"
           d="m 385.28258,936.38113 q 9.02635,0 9.02635,-5.71055 0,-2.30264 -2.21053,-3.59212 -2.11843,-1.38158 -6.81582,-1.38158 l -14.55269,0 0,10.68425 14.55269,0 z m 0.18421,-17.50007 q 8.1974,0 12.80268,2.76317 4.60528,2.67106 4.60528,9.21056 0,2.48685 -0.92105,4.42107 -0.92106,1.93422 -2.48686,3.40791 -1.47368,1.38158 -3.3158,2.30264 -1.84211,0.82895 -3.77633,1.28948 l 9.02635,13.1711 q 0.73685,1.01316 1.5658,1.5658 0.92105,0.46052 1.93422,0.73684 l 0,1.6579 -14.09216,0 0,-1.6579 q 1.19737,0 1.19737,-0.82895 0,-0.92106 -1.38158,-2.85527 l -7.27635,-10.86847 -12.80268,0 0,13.17111 q 0,0.73684 0.55264,1.10526 0.64474,0.27632 1.19737,0.27632 l 0,1.6579 -12.25005,0 0,-1.6579 q 1.6579,0 1.6579,-1.38158 l 0,-34.4475 q 0,-1.38159 -1.6579,-1.38159 l 0,-1.6579 25.42115,0 z"
           style="font-style:normal;font-variant:normal;font-weight:normal;font-stretch:normal;font-family:Copperplate;-inkscape-font-specification:Copperplate;fill:#ffffff;fill-opacity:1"
           id="path4335" />
        <path
           inkscape:connector-curvature="0"
           d="m 417.45766,957.74963 q 1.47369,0 2.02632,-0.27632 0.55263,-0.36842 0.55263,-1.10526 l 0,-34.4475 q 0,-0.73685 -0.55263,-1.01316 -0.55263,-0.36843 -2.02632,-0.36843 l 0,-1.6579 14.00005,0 0,1.6579 q -2.57896,0 -2.57896,1.38159 l 0,34.4475 q 0,1.38158 2.57896,1.38158 l 0,1.6579 -14.00005,0 0,-1.6579 z"
           style="font-style:normal;font-variant:normal;font-weight:normal;font-stretch:normal;font-family:Copperplate;-inkscape-font-specification:Copperplate;fill:#ffffff;fill-opacity:1"
           id="path4337" />
        <path
           inkscape:connector-curvature="0"
           d="m 457.15374,957.74963 q 0.46053,0 0.92106,-0.27632 0.46053,-0.36842 0.46053,-1.10526 l 0,-30.67117 -11.97373,0 q -0.73685,0 -1.38159,0.36842 -0.64474,0.36842 -0.64474,1.19737 l -1.6579,0 0,-10.59214 1.6579,0 q 0,1.28948 0.64474,1.75 0.64474,0.46053 1.38159,0.46053 l 32.7896,0 q 0.73684,0 1.38158,-0.46053 0.64474,-0.46052 0.64474,-1.75 l 1.6579,0 0,10.59214 -1.6579,0 q 0,-0.82895 -0.64474,-1.19737 -0.64474,-0.36842 -1.38158,-0.36842 l -11.97373,0 0,30.67117 q 0,1.38158 1.6579,1.38158 l 0,1.6579 -11.88163,0 0,-1.6579 z"
           style="font-style:normal;font-variant:normal;font-weight:normal;font-stretch:normal;font-family:Copperplate;-inkscape-font-specification:Copperplate;fill:#ffffff;fill-opacity:1"
           id="path4339" />
        <path
           inkscape:connector-curvature="0"
           d="m 513.89511,925.14424 q -2.94738,0 -5.80265,1.01317 -2.76317,0.92105 -4.9737,2.76316 -2.21054,1.75001 -3.59212,4.32897 -1.28948,2.57895 -1.28948,5.89476 0,3.3158 1.28948,5.89476 1.38158,2.57895 3.59212,4.42107 2.21053,1.75 4.9737,2.76316 2.85527,0.92106 5.80265,0.92106 2.94738,0 5.71055,-0.92106 2.85528,-1.01316 5.06581,-2.76316 2.21054,-1.84212 3.50001,-4.42107 1.38159,-2.57896 1.38159,-5.89476 0,-3.31581 -1.38159,-5.89476 -1.28947,-2.57896 -3.50001,-4.32897 -2.21053,-1.84211 -5.06581,-2.76316 -2.76317,-1.01317 -5.71055,-1.01317 z m 0,-6.81581 q 5.06581,0 9.48688,1.28948 4.51318,1.28948 7.82898,3.86843 3.3158,2.57896 5.25002,6.5395 1.93422,3.86844 1.93422,9.11846 0,5.25002 -1.93422,9.21056 -1.93422,3.86843 -5.25002,6.44739 -3.3158,2.57896 -7.82898,3.77633 -4.42107,1.10527 -9.48688,1.10527 -5.0658,0 -9.57898,-1.10527 -4.42107,-1.19737 -7.73687,-3.77633 -3.3158,-2.57896 -5.25002,-6.44739 -1.93422,-3.96054 -1.93422,-9.21056 0,-5.25002 1.93422,-9.11846 1.93422,-3.96054 5.25002,-6.5395 3.3158,-2.57895 7.73687,-3.86843 4.51318,-1.28948 9.57898,-1.28948 z"
           style="font-style:normal;font-variant:normal;font-weight:normal;font-stretch:normal;font-family:Copperplate;-inkscape-font-specification:Copperplate;fill:#ffffff;fill-opacity:1"
           id="path4341" />
        <path
           inkscape:connector-curvature="0"
           d="m 562.46501,918.88106 0,1.6579 q -2.11843,0 -2.11843,1.38159 l 0,30.67117 24.86851,0 q 1.10527,0 1.84211,-0.46053 0.73685,-0.55264 0.73685,-1.47369 l 1.6579,0 0,9.67109 -1.6579,0 q 0,-0.73685 -0.73685,-0.82895 -0.73684,-0.0921 -1.84211,-0.0921 l -36.1054,0 0,-1.6579 q 2.39475,0 2.39475,-1.38158 l 0,-34.4475 q 0,-1.38159 -2.39475,-1.38159 l 0,-1.6579 13.35532,0 z"
           style="font-style:normal;font-variant:normal;font-weight:normal;font-stretch:normal;font-family:Copperplate;-inkscape-font-specification:Copperplate;fill:#ffffff;fill-opacity:1"
           id="path4343" />
        <path
           inkscape:connector-curvature="0"
           d="m 621.47159,925.14424 q -2.94738,0 -5.80265,1.01317 -2.76317,0.92105 -4.97371,2.76316 -2.21053,1.75001 -3.59211,4.32897 -1.28948,2.57895 -1.28948,5.89476 0,3.3158 1.28948,5.89476 1.38158,2.57895 3.59211,4.42107 2.21054,1.75 4.97371,2.76316 2.85527,0.92106 5.80265,0.92106 2.94738,0 5.71055,-0.92106 2.85527,-1.01316 5.06581,-2.76316 2.21053,-1.84212 3.50001,-4.42107 1.38159,-2.57896 1.38159,-5.89476 0,-3.31581 -1.38159,-5.89476 -1.28948,-2.57896 -3.50001,-4.32897 -2.21054,-1.84211 -5.06581,-2.76316 -2.76317,-1.01317 -5.71055,-1.01317 z m 0,-6.81581 q 5.06581,0 9.48688,1.28948 4.51317,1.28948 7.82898,3.86843 3.3158,2.57896 5.25002,6.5395 1.93421,3.86844 1.93421,9.11846 0,5.25002 -1.93421,9.21056 -1.93422,3.86843 -5.25002,6.44739 -3.31581,2.57896 -7.82898,3.77633 -4.42107,1.10527 -9.48688,1.10527 -5.06581,0 -9.57898,-1.10527 -4.42107,-1.19737 -7.73687,-3.77633 -3.31581,-2.57896 -5.25002,-6.44739 -1.93422,-3.96054 -1.93422,-9.21056 0,-5.25002 1.93422,-9.11846 1.93421,-3.96054 5.25002,-6.5395 3.3158,-2.57895 7.73687,-3.86843 4.51317,-1.28948 9.57898,-1.28948 z"
           style="font-style:normal;font-variant:normal;font-weight:normal;font-stretch:normal;font-family:Copperplate;-inkscape-font-specification:Copperplate;fill:#ffffff;fill-opacity:1"
           id="path4345" />
        <path
           inkscape:connector-curvature="0"
           d="m 693.06789,932.23638 -1.10527,-0.64474 q 0.18421,-0.92106 0.18421,-1.01317 0,-0.82895 -1.19737,-1.75 -1.19738,-1.01316 -3.13159,-1.84211 -1.93422,-0.82895 -4.42107,-1.28948 -2.39475,-0.55264 -4.8816,-0.55264 -3.40791,0 -6.44739,0.82895 -3.03949,0.73685 -5.34213,2.48686 -2.30264,1.6579 -3.68422,4.32896 -1.38159,2.67106 -1.38159,6.5395 0,3.86843 1.47369,6.5395 1.47369,2.57895 3.77633,4.23685 2.39475,1.5658 5.25002,2.30265 2.85528,0.73684 5.52634,0.73684 3.96054,0 7.46055,-0.55263 3.59212,-0.55264 6.5395,-2.11843 l 0,-5.80266 -9.48688,0 q -1.01316,0 -1.75,0.46053 -0.73685,0.36842 -0.92106,1.47369 l -1.6579,0 0,-9.48688 1.6579,0 q 0.18421,0.92106 0.92106,1.19738 0.73684,0.27631 1.75,0.27631 l 18.0527,0 0,1.6579 q -0.82895,0.36843 -1.10526,0.82895 -0.27632,0.46053 -0.27632,1.38159 l 0,8.75003 q 0,0.82895 0.18421,1.19738 0.27632,0.27631 1.19737,0.64473 l 0,1.10527 q -0.82895,0.55264 -2.67106,1.5658 -1.75001,0.92105 -4.51317,1.84211 -2.67107,0.92106 -6.26319,1.56579 -3.59211,0.55264 -8.01318,0.55264 -5.98687,0 -10.86847,-1.28948 -4.78949,-1.38158 -8.1974,-4.05265 -3.3158,-2.67106 -5.15791,-6.44739 -1.75001,-3.86844 -1.75001,-8.75003 0,-4.8816 1.75001,-8.65793 1.84211,-3.86844 5.15791,-6.5395 3.40791,-2.76317 8.1974,-4.14475 4.8816,-1.47369 10.86847,-1.47369 3.59211,0 6.35528,0.64474 2.76317,0.64474 4.7895,1.38158 2.11842,0.73685 3.4079,1.38159 1.28948,0.64474 1.93422,0.64474 0.73685,0 1.10527,-0.0921 0.36842,-0.18421 0.92105,-0.64474 l 1.10527,0.55263 -5.34212,10.03952 z"
           style="font-style:normal;font-variant:normal;font-weight:normal;font-stretch:normal;font-family:Copperplate;-inkscape-font-specification:Copperplate;fill:#ffffff;fill-opacity:1"
           id="path4347" />
        <path
           inkscape:connector-curvature="0"
           d="m 711.33931,922.10476 q -0.64474,-0.82895 -1.5658,-1.19737 -0.92105,-0.36843 -1.75,-0.36843 l 0,-1.6579 15.19742,0 0,1.6579 q -0.46052,0 -1.01316,0.36843 -0.55263,0.27631 -0.55263,0.82895 0,0.55263 0.36842,1.01316 0.36842,0.46053 0.82895,1.10526 l 9.30267,12.15795 8.1974,-11.4211 q 0.82895,-1.19737 1.19737,-1.75001 0.46053,-0.64474 0.46053,-1.19737 0,-0.73684 -0.46053,-0.92106 -0.46053,-0.18421 -0.92105,-0.18421 l 0,-1.6579 14.09215,0 0,1.6579 q -1.10526,0 -2.48685,1.28948 -1.28948,1.19737 -2.30264,2.48685 l -14.09216,18.23691 0,13.81585 q 0,1.38158 1.75001,1.38158 l 0,1.6579 -12.25005,0 0,-1.6579 q 1.6579,0 1.6579,-1.38158 l 0,-14.18427 -15.65795,-20.07902 z"
           style="font-style:normal;font-variant:normal;font-weight:normal;font-stretch:normal;font-family:Copperplate;-inkscape-font-specification:Copperplate;fill:#ffffff;fill-opacity:1"
           id="path4349" />
      </g>
    </g>
    <g
       id="g4485">
      <g
         transform="matrix(1.0194895,0,0,1.0194895,-50.782033,24.934998)"
         id="g4461">
        <path
           sodipodi:nodetypes="cc"
           inkscape:connector-curvature="0"
           id="path4377"
           d="M 55.909351,1001.6229 66.56966,986.19471"
           style="fill:none;fill-rule:evenodd;stroke:#000000;stroke-width:1.13350129;stroke-linecap:butt;stroke-linejoin:miter;stroke-miterlimit:4;stroke-dasharray:none;stroke-opacity:1" />
        <path
           sodipodi:nodetypes="cc"
           style="fill:none;fill-rule:evenodd;stroke:#000000;stroke-width:1.13350129;stroke-linecap:butt;stroke-linejoin:miter;stroke-miterlimit:4;stroke-dasharray:none;stroke-opacity:1"
           d="m 59.192907,1007.4254 24.469234,-0.09"
           id="path4379"
           inkscape:connector-curvature="0" />
        <path
           inkscape:connector-curvature="0"
           id="path4381"
           d="m 89.330607,1007.4255 22.937993,-0.09"
           style="fill:none;fill-rule:evenodd;stroke:#000000;stroke-width:1.09847093;stroke-linecap:butt;stroke-linejoin:miter;stroke-miterlimit:4;stroke-dasharray:none;stroke-opacity:1"
           sodipodi:nodetypes="cc" />
        <path
           sodipodi:nodetypes="cc"
           style="fill:none;fill-rule:evenodd;stroke:#000000;stroke-width:1.13350129;stroke-linecap:butt;stroke-linejoin:miter;stroke-miterlimit:4;stroke-dasharray:none;stroke-opacity:1"
           d="M 116.40773,1001.7579 101.85664,981.53926"
           id="path4383"
           inkscape:connector-curvature="0" />
        <path
           sodipodi:nodetypes="cc"
           inkscape:connector-curvature="0"
           id="path4385"
           d="M 104.17312,984.98025 89.77945,963.07489"
           style="fill:none;fill-rule:evenodd;stroke:#000000;stroke-width:1.13350129;stroke-linecap:butt;stroke-linejoin:miter;stroke-miterlimit:4;stroke-dasharray:none;stroke-opacity:1" />
        <path
           style="fill:none;fill-rule:evenodd;stroke:#000000;stroke-width:1.13350129;stroke-linecap:butt;stroke-linejoin:miter;stroke-miterlimit:4;stroke-dasharray:none;stroke-opacity:1"
           d="M 68.980601,982.26344 81.754982,963.10187"
           id="path4387"
           inkscape:connector-curvature="0"
           sodipodi:nodetypes="cc" />
        <path
           sodipodi:type="star"
           style="opacity:1;fill:#000000;fill-opacity:1;stroke:none"
           id="path4389"
           sodipodi:sides="3"
           sodipodi:cx="364.28574"
           sodipodi:cy="505.00504"
           sodipodi:r1="296.37234"
           sodipodi:r2="148.18617"
           sodipodi:arg1="0.52359878"
           sodipodi:arg2="1.5707963"
           inkscape:flatsided="false"
           inkscape:rounded="0"
           inkscape:randomized="0"
           d="m 620.95172,653.19121 -256.66598,0 -256.66598,0 128.33298,-222.27926 128.333,-222.27926 128.33298,222.27926 z"
           inkscape:transform-center-y="-9.5178112"
           transform="matrix(0.01901145,0,0,0.01617851,78.843186,952.79007)" />
        <path
           sodipodi:type="star"
           style="opacity:1;fill:#000000;fill-opacity:1;stroke:none"
           id="path4391"
           sodipodi:sides="3"
           sodipodi:cx="364.28574"
           sodipodi:cy="505.00504"
           sodipodi:r1="296.37234"
           sodipodi:r2="148.18617"
           sodipodi:arg1="0.52359878"
           sodipodi:arg2="1.5707963"
           inkscape:flatsided="false"
           inkscape:rounded="0"
           inkscape:randomized="0"
           d="m 620.95172,653.19121 -256.66598,0 -256.66598,0 128.33298,-222.27926 128.333,-222.27926 128.33298,222.27926 z"
           inkscape:transform-center-y="-9.5178112"
           transform="matrix(0.01901145,0,0,0.01617851,48.814397,997.42843)" />
        <path
           transform="matrix(0.01901145,0,0,0.01617851,109.42073,997.31148)"
           inkscape:transform-center-y="-9.5178112"
           d="m 620.95172,653.19121 -256.66598,0 -256.66598,0 128.33298,-222.27926 128.333,-222.27926 128.33298,222.27926 z"
           inkscape:randomized="0"
           inkscape:rounded="0"
           inkscape:flatsided="false"
           sodipodi:arg2="1.5707963"
           sodipodi:arg1="0.52359878"
           sodipodi:r2="148.18617"
           sodipodi:r1="296.37234"
           sodipodi:cy="505.00504"
           sodipodi:cx="364.28574"
           sodipodi:sides="3"
           id="path4393"
           style="opacity:1;fill:#000000;fill-opacity:1;stroke:none"
           sodipodi:type="star" />
        <path
           sodipodi:nodetypes="cccccccc"
           inkscape:connector-curvature="0"
           id="path4395"
           d="m 81.449116,990.79169 -3.958259,-4.83537 28.292553,-0.045 -16.327817,22.01788 -5.937388,0 13.808925,-17.04757 0.134941,-0.13494 z"
           style="fill:#000000;fill-opacity:1;fill-rule:evenodd;stroke:none;stroke-width:1px;stroke-linecap:butt;stroke-linejoin:miter;stroke-opacity:1" />
        <path
           sodipodi:nodetypes="ccccccc"
           inkscape:connector-curvature="0"
           id="path4397"
           d="m 102.63929,981.6742 -33.943025,0.0279 14.938886,18.6164 2.811263,-3.44104 -8.904482,-10.92087 28.178508,-0.0543 z"
           style="fill:#000000;fill-opacity:1;fill-rule:evenodd;stroke:none;stroke-width:4;stroke-linecap:butt;stroke-linejoin:miter;stroke-miterlimit:4;stroke-dasharray:none;stroke-opacity:1" />
        <path
           sodipodi:nodetypes="ccccccc"
           inkscape:connector-curvature="0"
           id="path4399"
           d="m 83.509208,1007.9471 14.011335,-17.20489 -5.937388,0 -7.961498,9.55829 c -4.890783,-6.26311 -9.991198,-12.40228 -14.828696,-18.70677 l -2.736076,4.40307 z"
           style="fill:#000000;fill-opacity:1;fill-rule:evenodd;stroke:none;stroke-width:4;stroke-linecap:butt;stroke-linejoin:miter;stroke-miterlimit:4;stroke-dasharray:none;stroke-opacity:1" />
        <path
           sodipodi:nodetypes="cc"
           inkscape:connector-curvature="0"
           id="path4401"
           d="M 83.100549,1007.6843 65.966755,986.15885"
           style="fill:none;fill-rule:evenodd;stroke:#000000;stroke-width:0.37783378;stroke-linecap:butt;stroke-linejoin:miter;stroke-miterlimit:4;stroke-dasharray:none;stroke-opacity:1" />
        <path
           inkscape:connector-curvature="0"
           id="path4403"
           d="m 91.571648,990.72967 -7.93179,9.72933"
           style="fill:none;fill-rule:evenodd;stroke:#000000;stroke-width:0.25188917;stroke-linecap:butt;stroke-linejoin:miter;stroke-miterlimit:2;stroke-dasharray:none;stroke-opacity:1"
           sodipodi:nodetypes="cc" />
        <path
           sodipodi:nodetypes="cc"
           style="fill:none;fill-rule:evenodd;stroke:#000000;stroke-width:0.25293961;stroke-linecap:butt;stroke-linejoin:miter;stroke-miterlimit:2;stroke-dasharray:none;stroke-opacity:1"
           d="m 97.43166,990.79328 -15.927499,-0.0394"
           id="path4407"
           inkscape:connector-curvature="0" />
        <path
           sodipodi:nodetypes="cc"
           style="fill:none;fill-rule:evenodd;stroke:#000000;stroke-width:0.25188917;stroke-linecap:butt;stroke-linejoin:miter;stroke-miterlimit:2;stroke-dasharray:none;stroke-opacity:1"
           d="M 86.450912,996.9 77.782906,986.0784"
           id="path4409"
           inkscape:connector-curvature="0" />
        <path
           sodipodi:nodetypes="ccccc"
           inkscape:connector-curvature="0"
           id="path4415"
           d="m 105.75867,985.94732 -3.22233,-4.47553 -0.56725,0.0231 3.18235,4.41873 z"
           style="fill:#000000;fill-opacity:1;fill-rule:evenodd;stroke:none;stroke-width:1px;stroke-linecap:butt;stroke-linejoin:miter;stroke-opacity:1" />
        <path
           style="fill:none;fill-rule:evenodd;stroke:#000000;stroke-width:0.25188917;stroke-linecap:butt;stroke-linejoin:miter;stroke-miterlimit:4;stroke-dasharray:none;stroke-opacity:1"
           d="M 83.595332,1000.3975 68.890469,981.66083"
           id="path4417"
           inkscape:connector-curvature="0"
           sodipodi:nodetypes="cc" />
        <path
           style="fill:none;fill-rule:evenodd;stroke:#000000;stroke-width:0.37590075;stroke-linecap:butt;stroke-linejoin:miter;stroke-miterlimit:4;stroke-dasharray:none;stroke-opacity:1"
           d="m 102.50093,981.68308 -33.512591,0.0389"
           id="path4419"
           inkscape:connector-curvature="0"
           sodipodi:nodetypes="cc" />
        <path
           inkscape:connector-curvature="0"
           id="path4421"
           d="m 68.925205,982.06312 0.09542,-0.19083 -0.03181,-0.34987 -0.206738,0 -0.143126,0.25445 z"
           style="fill:#4d6364;fill-opacity:1;fill-rule:evenodd;stroke:none;stroke-width:1px;stroke-linecap:butt;stroke-linejoin:miter;stroke-opacity:1" />
        <path
           style="fill:#2d2354;fill-opacity:1;fill-rule:evenodd;stroke:none;stroke-width:1px;stroke-linecap:butt;stroke-linejoin:miter;stroke-opacity:1"
           d="m 66.060323,985.96322 2.758418,-4.4728 0.281001,0.34113 -2.78205,4.46371 z"
           id="path4427"
           inkscape:connector-curvature="0"
           sodipodi:nodetypes="ccccc" />
        <path
           style="fill:none;fill-rule:evenodd;stroke:#000000;stroke-width:0.37783378;stroke-linecap:butt;stroke-linejoin:miter;stroke-miterlimit:4;stroke-dasharray:none;stroke-opacity:1"
           d="M 89.761286,1007.7293 105.76738,986.1852"
           id="path4429"
           inkscape:connector-curvature="0"
           sodipodi:nodetypes="cc" />
      </g>
      <g
         transform="matrix(0.12594459,0,0,0.12594459,-11.50204,968.74535)"
         id="g5673">
        <path
           style="fill:none;fill-rule:evenodd;stroke:#7ac39f;stroke-width:9;stroke-linecap:butt;stroke-linejoin:miter;stroke-miterlimit:4;stroke-dasharray:none;stroke-opacity:1"
           d="m 142.50001,607.00507 84.64285,-122.5"
           id="path4249"
           inkscape:connector-curvature="0"
           sodipodi:nodetypes="cc" />
        <path
           inkscape:connector-curvature="0"
           id="path4251"
           d="m 168.57144,653.07649 194.28571,-0.71428"
           style="fill:none;fill-rule:evenodd;stroke:#7ac39f;stroke-width:9;stroke-linecap:butt;stroke-linejoin:miter;stroke-miterlimit:4;stroke-dasharray:none;stroke-opacity:1"
           sodipodi:nodetypes="cc" />
        <path
           sodipodi:nodetypes="cc"
           style="fill:none;fill-rule:evenodd;stroke:#967695;stroke-width:8.72185898;stroke-linecap:butt;stroke-linejoin:miter;stroke-miterlimit:4;stroke-dasharray:none;stroke-opacity:1"
           d="m 407.86477,653.07715 182.12764,-0.7156"
           id="path4253"
           inkscape:connector-curvature="0" />
        <path
           inkscape:connector-curvature="0"
           id="path4255"
           d="M 622.85715,608.0765 507.32144,447.54078"
           style="fill:none;fill-rule:evenodd;stroke:#967695;stroke-width:9;stroke-linecap:butt;stroke-linejoin:miter;stroke-miterlimit:4;stroke-dasharray:none;stroke-opacity:1"
           sodipodi:nodetypes="cc" />
        <path
           style="fill:none;fill-rule:evenodd;stroke:#fff500;stroke-width:9;stroke-linecap:butt;stroke-linejoin:miter;stroke-miterlimit:4;stroke-dasharray:none;stroke-opacity:1"
           d="M 525.71429,474.86222 411.42858,300.93365"
           id="path4257"
           inkscape:connector-curvature="0"
           sodipodi:nodetypes="cc" />
        <path
           sodipodi:nodetypes="cc"
           inkscape:connector-curvature="0"
           id="path4259"
           d="M 246.28573,453.29079 347.71431,301.14793"
           style="fill:none;fill-rule:evenodd;stroke:#fff500;stroke-width:9;stroke-linecap:butt;stroke-linejoin:miter;stroke-miterlimit:4;stroke-dasharray:none;stroke-opacity:1" />
        <path
           transform="matrix(0.15095089,0,0,0.12845739,324.59465,219.27221)"
           inkscape:transform-center-y="-9.5178112"
           d="m 620.95172,653.19121 -256.66598,0 -256.66598,0 128.33298,-222.27926 128.333,-222.27926 128.33298,222.27926 z"
           inkscape:randomized="0"
           inkscape:rounded="0"
           inkscape:flatsided="false"
           sodipodi:arg2="1.5707963"
           sodipodi:arg1="0.52359878"
           sodipodi:r2="148.18617"
           sodipodi:r1="296.37234"
           sodipodi:cy="505.00504"
           sodipodi:cx="364.28574"
           sodipodi:sides="3"
           id="path4243"
           style="opacity:1;fill:#f8c400;fill-opacity:1;stroke:none"
           sodipodi:type="star" />
        <path
           transform="matrix(0.15095089,0,0,0.12845739,86.166076,573.70079)"
           inkscape:transform-center-y="-9.5178112"
           d="m 620.95172,653.19121 -256.66598,0 -256.66598,0 128.33298,-222.27926 128.333,-222.27926 128.33298,222.27926 z"
           inkscape:randomized="0"
           inkscape:rounded="0"
           inkscape:flatsided="false"
           sodipodi:arg2="1.5707963"
           sodipodi:arg1="0.52359878"
           sodipodi:r2="148.18617"
           sodipodi:r1="296.37234"
           sodipodi:cy="505.00504"
           sodipodi:cx="364.28574"
           sodipodi:sides="3"
           id="path4247"
           style="opacity:1;fill:#5f7f7f;fill-opacity:1;stroke:none"
           sodipodi:type="star" />
        <path
           sodipodi:type="star"
           style="opacity:1;fill:#302254;fill-opacity:1;stroke:none"
           id="path4245"
           sodipodi:sides="3"
           sodipodi:cx="364.28574"
           sodipodi:cy="505.00504"
           sodipodi:r1="296.37234"
           sodipodi:r2="148.18617"
           sodipodi:arg1="0.52359878"
           sodipodi:arg2="1.5707963"
           inkscape:flatsided="false"
           inkscape:rounded="0"
           inkscape:randomized="0"
           d="m 620.95172,653.19121 -256.66598,0 -256.66598,0 128.33298,-222.27926 128.333,-222.27926 128.33298,222.27926 z"
           inkscape:transform-center-y="-9.5178112"
           transform="matrix(0.15095089,0,0,0.12845739,567.38037,572.77221)" />
        <path
           style="fill:#2d2354;fill-opacity:1;fill-rule:evenodd;stroke:none;stroke-width:1px;stroke-linecap:butt;stroke-linejoin:miter;stroke-opacity:1"
           d="m 345.28573,521.00507 -31.42857,-38.39286 224.64285,-0.35714 -129.64285,174.82143 -47.14286,0 109.64286,-135.35714 1.07143,-1.07143 z"
           id="path4263"
           inkscape:connector-curvature="0"
           sodipodi:nodetypes="cccccccc" />
        <path
           style="fill:#fffba8;fill-opacity:1;fill-rule:evenodd;stroke:none;stroke-width:4;stroke-linecap:butt;stroke-linejoin:miter;stroke-miterlimit:4;stroke-dasharray:none;stroke-opacity:1"
           d="M 513.53572,448.61221 244.0281,448.8341 362.64285,596.64792 384.96428,569.32649 314.26269,482.61475 538,482.18364 Z"
           id="path4261"
           inkscape:connector-curvature="0"
           sodipodi:nodetypes="ccccccc" />
        <path
           style="fill:#5f7f7f;fill-opacity:1;fill-rule:evenodd;stroke:none;stroke-width:4;stroke-linecap:butt;stroke-linejoin:miter;stroke-miterlimit:4;stroke-dasharray:none;stroke-opacity:1"
           d="m 361.64286,657.21934 111.25,-136.60714 -47.14286,0 -63.21429,75.89286 C 323.70289,546.7759 283.2056,498.0309 244.79587,447.97325 l -21.72445,34.96038 z"
           id="path4265"
           inkscape:connector-curvature="0"
           sodipodi:nodetypes="ccccccc" />
        <path
           style="fill:none;fill-rule:evenodd;stroke:#7ac39f;stroke-width:3;stroke-linecap:butt;stroke-linejoin:miter;stroke-miterlimit:4;stroke-dasharray:none;stroke-opacity:1"
           d="M 358.39811,655.13269 222.35579,484.22035"
           id="path4310"
           inkscape:connector-curvature="0"
           sodipodi:nodetypes="cc" />
        <path
           sodipodi:nodetypes="cc"
           style="fill:none;fill-rule:evenodd;stroke:#2d2354;stroke-width:2;stroke-linecap:butt;stroke-linejoin:miter;stroke-miterlimit:2;stroke-dasharray:none;stroke-opacity:1"
           d="m 425.65863,520.51267 -62.97841,77.25077"
           id="path4314"
           inkscape:connector-curvature="0" />
        <path
           style="fill:#b8da7d;fill-opacity:1;fill-rule:evenodd;stroke:none;stroke-width:1px;stroke-linecap:butt;stroke-linejoin:miter;stroke-opacity:1"
           d="m 431.35715,571.36219 -4.64285,6.42857 -24.5816,-30.29587 5.27422,-6.40689 z"
           id="path4285"
           inkscape:connector-curvature="0"
           sodipodi:nodetypes="ccccc" />
        <path
           inkscape:connector-curvature="0"
           id="path4316"
           d="M 472.18713,521.01772 345.72279,520.70474"
           style="fill:none;fill-rule:evenodd;stroke:#4d6364;stroke-width:2.00834036;stroke-linecap:butt;stroke-linejoin:miter;stroke-miterlimit:2;stroke-dasharray:none;stroke-opacity:1"
           sodipodi:nodetypes="cc" />
        <path
           inkscape:connector-curvature="0"
           id="path4312"
           d="M 384.99999,569.50507 316.17603,483.58158"
           style="fill:none;fill-rule:evenodd;stroke:#2d2354;stroke-width:2;stroke-linecap:butt;stroke-linejoin:miter;stroke-miterlimit:2;stroke-dasharray:none;stroke-opacity:1"
           sodipodi:nodetypes="cc" />
        <path
           style="fill:#9cb682;fill-opacity:1;fill-rule:evenodd;stroke:none;stroke-width:1px;stroke-linecap:butt;stroke-linejoin:miter;stroke-opacity:1"
           d="m 386.18501,521.78688 9.15944,0.12627 30.90555,-39.72951 -8.57143,0 z"
           id="path4279"
           inkscape:connector-curvature="0"
           sodipodi:nodetypes="ccccc" />
        <path
           sodipodi:nodetypes="ccccc"
           inkscape:connector-curvature="0"
           id="path4289"
           d="m 426.57166,482.45046 -9.09072,-0.096 -25.30481,-34.45302 9.85702,-0.10835 z"
           style="fill:#4d6364;fill-opacity:1;fill-rule:evenodd;stroke:none;stroke-width:1px;stroke-linecap:butt;stroke-linejoin:miter;stroke-opacity:1" />
        <path
           style="fill:#4d6364;fill-opacity:1;fill-rule:evenodd;stroke:none;stroke-width:1px;stroke-linecap:butt;stroke-linejoin:miter;stroke-opacity:1"
           d="m 538.30358,482.54078 -25.58531,-35.53572 -4.50399,0.18315 25.26787,35.08471 z"
           id="path4320"
           inkscape:connector-curvature="0"
           sodipodi:nodetypes="ccccc" />
        <path
           sodipodi:nodetypes="cc"
           inkscape:connector-curvature="0"
           id="path4328"
           d="M 362.32669,597.27554 245.57008,448.50606"
           style="fill:none;fill-rule:evenodd;stroke:#7ac39f;stroke-width:2;stroke-linecap:butt;stroke-linejoin:miter;stroke-miterlimit:4;stroke-dasharray:none;stroke-opacity:1" />
        <path
           sodipodi:nodetypes="cc"
           inkscape:connector-curvature="0"
           id="path4318"
           d="m 512.43715,448.68273 -266.08998,0.30858"
           style="fill:none;fill-rule:evenodd;stroke:#4d6364;stroke-width:2.9846518;stroke-linecap:butt;stroke-linejoin:miter;stroke-miterlimit:4;stroke-dasharray:none;stroke-opacity:1" />
        <path
           style="fill:#4d6364;fill-opacity:1;fill-rule:evenodd;stroke:none;stroke-width:1px;stroke-linecap:butt;stroke-linejoin:miter;stroke-opacity:1"
           d="m 245.84588,451.70025 0.75761,-1.51523 -0.25254,-2.77792 -1.6415,0 -1.13642,2.0203 z"
           id="path4326"
           inkscape:connector-curvature="0" />
        <path
           sodipodi:nodetypes="ccccc"
           inkscape:connector-curvature="0"
           id="path4281"
           d="m 292.79215,574.00369 4.01151,4.87373 26.38896,-31.64149 -4.76913,-6.15436 z"
           style="fill:#2d2354;fill-opacity:1;fill-rule:evenodd;stroke:none;stroke-width:1px;stroke-linecap:butt;stroke-linejoin:miter;stroke-opacity:1" />
        <path
           style="fill:#4d6364;fill-opacity:1;fill-rule:evenodd;stroke:none;stroke-width:1px;stroke-linecap:butt;stroke-linejoin:miter;stroke-opacity:1"
           d="m 318.19262,540.9553 45.63135,0.25254 5.02166,6.3023 -45.65301,0.23087 z"
           id="path4283"
           inkscape:connector-curvature="0"
           sodipodi:nodetypes="ccccc" />
        <path
           sodipodi:nodetypes="ccccc"
           inkscape:connector-curvature="0"
           id="path4322"
           d="m 223.09872,482.66705 21.90184,-35.51405 2.23115,2.70853 -22.08948,35.44185 z"
           style="fill:#2d2354;fill-opacity:1;fill-rule:evenodd;stroke:none;stroke-width:1px;stroke-linecap:butt;stroke-linejoin:miter;stroke-opacity:1" />
        <path
           sodipodi:nodetypes="cc"
           inkscape:connector-curvature="0"
           id="path4330"
           d="M 411.28436,655.48983 538.37273,484.42956"
           style="fill:none;fill-rule:evenodd;stroke:#967695;stroke-width:3;stroke-linecap:butt;stroke-linejoin:miter;stroke-miterlimit:4;stroke-dasharray:none;stroke-opacity:1" />
        <path
           inkscape:connector-curvature="0"
           id="path4287"
           d="m 426.35714,577.79077 41.717,0 4.39033,-6.42857 -41.10733,-0.35714 z"
           style="fill:#99b083;fill-opacity:1;fill-rule:evenodd;stroke:none;stroke-width:1px;stroke-linecap:butt;stroke-linejoin:miter;stroke-opacity:1"
           sodipodi:nodetypes="ccccc" />
      </g>
    </g>
  </g>
</svg>
