<?xml version="1.0" encoding="UTF-8" standalone="no"?>
<!-- Created with Inkscape (http://www.inkscape.org/) -->

<svg
   xmlns:dc="http://purl.org/dc/elements/1.1/"
   xmlns:cc="http://creativecommons.org/ns#"
   xmlns:rdf="http://www.w3.org/1999/02/22-rdf-syntax-ns#"
   xmlns:svg="http://www.w3.org/2000/svg"
   xmlns="http://www.w3.org/2000/svg"
   xmlns:sodipodi="http://sodipodi.sourceforge.net/DTD/sodipodi-0.dtd"
   xmlns:inkscape="http://www.inkscape.org/namespaces/inkscape"
   width="6.5999999cm"
   height="1.5cm"
   viewBox="0 0 233.85828 53.149598"
   id="svg2"
   version="1.1"
   inkscape:version="0.91 r13725"
   sodipodi:docname="meritology_logo_text_white_small.svg">
  <defs
     id="defs4" />
  <sodipodi:namedview
     id="base"
     pagecolor="#d4d4d4"
     bordercolor="#666666"
     borderopacity="1.0"
     inkscape:pageopacity="0"
     inkscape:pageshadow="2"
     inkscape:zoom="2.8"
     inkscape:cx="54.829819"
     inkscape:cy="84.600845"
     inkscape:document-units="px"
     inkscape:current-layer="layer1"
     showgrid="false"
     inkscape:window-width="1440"
     inkscape:window-height="851"
     inkscape:window-x="5"
     inkscape:window-y="11"
     inkscape:window-maximized="0"
     units="cm" />
  <metadata
     id="metadata7">
    <rdf:RDF>
      <cc:Work
         rdf:about="">
        <dc:format>image/svg+xml</dc:format>
        <dc:type
           rdf:resource="http://purl.org/dc/dcmitype/StillImage" />
        <dc:title></dc:title>
      </cc:Work>
    </rdf:RDF>
  </metadata>
  <g
     inkscape:label="Layer 1"
     inkscape:groupmode="layer"
     id="layer1"
     transform="translate(0,-999.21291)">
    <g
       id="g5093"
       transform="matrix(0.32617012,0,0,0.32617012,0.94074649,708.57762)">
      <g
         transform="matrix(0.38613161,0,0,0.38613161,-38.14815,797.64427)"
         id="g5673">
        <path
           style="fill:none;fill-rule:evenodd;stroke:#7ac39f;stroke-width:9;stroke-linecap:butt;stroke-linejoin:miter;stroke-miterlimit:4;stroke-dasharray:none;stroke-opacity:1"
           d="m 142.50001,607.00507 84.64285,-122.5"
           id="path4249"
           inkscape:connector-curvature="0"
           sodipodi:nodetypes="cc" />
        <path
           inkscape:connector-curvature="0"
           id="path4251"
           d="m 168.57144,653.07649 194.28571,-0.71428"
           style="fill:none;fill-rule:evenodd;stroke:#7ac39f;stroke-width:9;stroke-linecap:butt;stroke-linejoin:miter;stroke-miterlimit:4;stroke-dasharray:none;stroke-opacity:1"
           sodipodi:nodetypes="cc" />
        <path
           sodipodi:nodetypes="cc"
           style="fill:none;fill-rule:evenodd;stroke:#967695;stroke-width:8.72185898;stroke-linecap:butt;stroke-linejoin:miter;stroke-miterlimit:4;stroke-dasharray:none;stroke-opacity:1"
           d="m 407.86477,653.07715 182.12764,-0.7156"
           id="path4253"
           inkscape:connector-curvature="0" />
        <path
           inkscape:connector-curvature="0"
           id="path4255"
           d="M 622.85715,608.0765 507.32144,447.54078"
           style="fill:none;fill-rule:evenodd;stroke:#967695;stroke-width:9;stroke-linecap:butt;stroke-linejoin:miter;stroke-miterlimit:4;stroke-dasharray:none;stroke-opacity:1"
           sodipodi:nodetypes="cc" />
        <path
           style="fill:none;fill-rule:evenodd;stroke:#fff500;stroke-width:9;stroke-linecap:butt;stroke-linejoin:miter;stroke-miterlimit:4;stroke-dasharray:none;stroke-opacity:1"
           d="M 525.71429,474.86222 411.42858,300.93365"
           id="path4257"
           inkscape:connector-curvature="0"
           sodipodi:nodetypes="cc" />
        <path
           sodipodi:nodetypes="cc"
           inkscape:connector-curvature="0"
           id="path4259"
           d="M 246.28573,453.29079 347.71431,301.14793"
           style="fill:none;fill-rule:evenodd;stroke:#fff500;stroke-width:9;stroke-linecap:butt;stroke-linejoin:miter;stroke-miterlimit:4;stroke-dasharray:none;stroke-opacity:1" />
        <path
           transform="matrix(0.15095089,0,0,0.12845739,324.59465,219.27221)"
           inkscape:transform-center-y="-9.5178112"
           d="m 620.95172,653.19121 -256.66598,0 -256.66598,0 128.33298,-222.27926 128.333,-222.27926 128.33298,222.27926 z"
           inkscape:randomized="0"
           inkscape:rounded="0"
           inkscape:flatsided="false"
           sodipodi:arg2="1.5707963"
           sodipodi:arg1="0.52359878"
           sodipodi:r2="148.18617"
           sodipodi:r1="296.37234"
           sodipodi:cy="505.00504"
           sodipodi:cx="364.28574"
           sodipodi:sides="3"
           id="path4243"
           style="opacity:1;fill:#f8c400;fill-opacity:1;stroke:none"
           sodipodi:type="star" />
        <path
           transform="matrix(0.15095089,0,0,0.12845739,86.166076,573.70079)"
           inkscape:transform-center-y="-9.5178112"
           d="m 620.95172,653.19121 -256.66598,0 -256.66598,0 128.33298,-222.27926 128.333,-222.27926 128.33298,222.27926 z"
           inkscape:randomized="0"
           inkscape:rounded="0"
           inkscape:flatsided="false"
           sodipodi:arg2="1.5707963"
           sodipodi:arg1="0.52359878"
           sodipodi:r2="148.18617"
           sodipodi:r1="296.37234"
           sodipodi:cy="505.00504"
           sodipodi:cx="364.28574"
           sodipodi:sides="3"
           id="path4247"
           style="opacity:1;fill:#5f7f7f;fill-opacity:1;stroke:none"
           sodipodi:type="star" />
        <path
           sodipodi:type="star"
           style="opacity:1;fill:#302254;fill-opacity:1;stroke:none"
           id="path4245"
           sodipodi:sides="3"
           sodipodi:cx="364.28574"
           sodipodi:cy="505.00504"
           sodipodi:r1="296.37234"
           sodipodi:r2="148.18617"
           sodipodi:arg1="0.52359878"
           sodipodi:arg2="1.5707963"
           inkscape:flatsided="false"
           inkscape:rounded="0"
           inkscape:randomized="0"
           d="m 620.95172,653.19121 -256.66598,0 -256.66598,0 128.33298,-222.27926 128.333,-222.27926 128.33298,222.27926 z"
           inkscape:transform-center-y="-9.5178112"
           transform="matrix(0.15095089,0,0,0.12845739,567.38037,572.77221)" />
        <path
           style="fill:#2d2354;fill-opacity:1;fill-rule:evenodd;stroke:none;stroke-width:1px;stroke-linecap:butt;stroke-linejoin:miter;stroke-opacity:1"
           d="m 345.28573,521.00507 -31.42857,-38.39286 224.64285,-0.35714 -129.64285,174.82143 -47.14286,0 109.64286,-135.35714 1.07143,-1.07143 z"
           id="path4263"
           inkscape:connector-curvature="0"
           sodipodi:nodetypes="cccccccc" />
        <path
           style="fill:#fffba8;fill-opacity:1;fill-rule:evenodd;stroke:none;stroke-width:4;stroke-linecap:butt;stroke-linejoin:miter;stroke-miterlimit:4;stroke-dasharray:none;stroke-opacity:1"
           d="M 513.53572,448.61221 244.0281,448.8341 362.64285,596.64792 384.96428,569.32649 314.26269,482.61475 538,482.18364 Z"
           id="path4261"
           inkscape:connector-curvature="0"
           sodipodi:nodetypes="ccccccc" />
        <path
           style="fill:#5f7f7f;fill-opacity:1;fill-rule:evenodd;stroke:none;stroke-width:4;stroke-linecap:butt;stroke-linejoin:miter;stroke-miterlimit:4;stroke-dasharray:none;stroke-opacity:1"
           d="m 361.64286,657.21934 111.25,-136.60714 -47.14286,0 -63.21429,75.89286 C 323.70289,546.7759 283.2056,498.0309 244.79587,447.97325 l -21.72445,34.96038 z"
           id="path4265"
           inkscape:connector-curvature="0"
           sodipodi:nodetypes="ccccccc" />
        <path
           style="fill:none;fill-rule:evenodd;stroke:#7ac39f;stroke-width:3;stroke-linecap:butt;stroke-linejoin:miter;stroke-miterlimit:4;stroke-dasharray:none;stroke-opacity:1"
           d="M 358.39811,655.13269 222.35579,484.22035"
           id="path4310"
           inkscape:connector-curvature="0"
           sodipodi:nodetypes="cc" />
        <path
           sodipodi:nodetypes="cc"
           style="fill:none;fill-rule:evenodd;stroke:#2d2354;stroke-width:2;stroke-linecap:butt;stroke-linejoin:miter;stroke-miterlimit:2;stroke-dasharray:none;stroke-opacity:1"
           d="m 425.65863,520.51267 -62.97841,77.25077"
           id="path4314"
           inkscape:connector-curvature="0" />
        <path
           style="fill:#b8da7d;fill-opacity:1;fill-rule:evenodd;stroke:none;stroke-width:1px;stroke-linecap:butt;stroke-linejoin:miter;stroke-opacity:1"
           d="m 431.35715,571.36219 -4.64285,6.42857 -24.5816,-30.29587 5.27422,-6.40689 z"
           id="path4285"
           inkscape:connector-curvature="0"
           sodipodi:nodetypes="ccccc" />
        <path
           inkscape:connector-curvature="0"
           id="path4316"
           d="M 472.18713,521.01772 345.72279,520.70474"
           style="fill:none;fill-rule:evenodd;stroke:#4d6364;stroke-width:2.00834036;stroke-linecap:butt;stroke-linejoin:miter;stroke-miterlimit:2;stroke-dasharray:none;stroke-opacity:1"
           sodipodi:nodetypes="cc" />
        <path
           inkscape:connector-curvature="0"
           id="path4312"
           d="M 384.99999,569.50507 316.17603,483.58158"
           style="fill:none;fill-rule:evenodd;stroke:#2d2354;stroke-width:2;stroke-linecap:butt;stroke-linejoin:miter;stroke-miterlimit:2;stroke-dasharray:none;stroke-opacity:1"
           sodipodi:nodetypes="cc" />
        <path
           style="fill:#9cb682;fill-opacity:1;fill-rule:evenodd;stroke:none;stroke-width:1px;stroke-linecap:butt;stroke-linejoin:miter;stroke-opacity:1"
           d="m 386.18501,521.78688 9.15944,0.12627 30.90555,-39.72951 -8.57143,0 z"
           id="path4279"
           inkscape:connector-curvature="0"
           sodipodi:nodetypes="ccccc" />
        <path
           sodipodi:nodetypes="ccccc"
           inkscape:connector-curvature="0"
           id="path4289"
           d="m 426.57166,482.45046 -9.09072,-0.096 -25.30481,-34.45302 9.85702,-0.10835 z"
           style="fill:#4d6364;fill-opacity:1;fill-rule:evenodd;stroke:none;stroke-width:1px;stroke-linecap:butt;stroke-linejoin:miter;stroke-opacity:1" />
        <path
           style="fill:#4d6364;fill-opacity:1;fill-rule:evenodd;stroke:none;stroke-width:1px;stroke-linecap:butt;stroke-linejoin:miter;stroke-opacity:1"
           d="m 538.30358,482.54078 -25.58531,-35.53572 -4.50399,0.18315 25.26787,35.08471 z"
           id="path4320"
           inkscape:connector-curvature="0"
           sodipodi:nodetypes="ccccc" />
        <path
           sodipodi:nodetypes="cc"
           inkscape:connector-curvature="0"
           id="path4328"
           d="M 362.32669,597.27554 245.57008,448.50606"
           style="fill:none;fill-rule:evenodd;stroke:#7ac39f;stroke-width:2;stroke-linecap:butt;stroke-linejoin:miter;stroke-miterlimit:4;stroke-dasharray:none;stroke-opacity:1" />
        <path
           sodipodi:nodetypes="cc"
           inkscape:connector-curvature="0"
           id="path4318"
           d="m 512.43715,448.68273 -266.08998,0.30858"
           style="fill:none;fill-rule:evenodd;stroke:#4d6364;stroke-width:2.9846518;stroke-linecap:butt;stroke-linejoin:miter;stroke-miterlimit:4;stroke-dasharray:none;stroke-opacity:1" />
        <path
           style="fill:#4d6364;fill-opacity:1;fill-rule:evenodd;stroke:none;stroke-width:1px;stroke-linecap:butt;stroke-linejoin:miter;stroke-opacity:1"
           d="m 245.84588,451.70025 0.75761,-1.51523 -0.25254,-2.77792 -1.6415,0 -1.13642,2.0203 z"
           id="path4326"
           inkscape:connector-curvature="0" />
        <path
           sodipodi:nodetypes="ccccc"
           inkscape:connector-curvature="0"
           id="path4281"
           d="m 292.79215,574.00369 4.01151,4.87373 26.38896,-31.64149 -4.76913,-6.15436 z"
           style="fill:#2d2354;fill-opacity:1;fill-rule:evenodd;stroke:none;stroke-width:1px;stroke-linecap:butt;stroke-linejoin:miter;stroke-opacity:1" />
        <path
           style="fill:#4d6364;fill-opacity:1;fill-rule:evenodd;stroke:none;stroke-width:1px;stroke-linecap:butt;stroke-linejoin:miter;stroke-opacity:1"
           d="m 318.19262,540.9553 45.63135,0.25254 5.02166,6.3023 -45.65301,0.23087 z"
           id="path4283"
           inkscape:connector-curvature="0"
           sodipodi:nodetypes="ccccc" />
        <path
           sodipodi:nodetypes="ccccc"
           inkscape:connector-curvature="0"
           id="path4322"
           d="m 223.09872,482.66705 21.90184,-35.51405 2.23115,2.70853 -22.08948,35.44185 z"
           style="fill:#2d2354;fill-opacity:1;fill-rule:evenodd;stroke:none;stroke-width:1px;stroke-linecap:butt;stroke-linejoin:miter;stroke-opacity:1" />
        <path
           sodipodi:nodetypes="cc"
           inkscape:connector-curvature="0"
           id="path4330"
           d="M 411.28436,655.48983 538.37273,484.42956"
           style="fill:none;fill-rule:evenodd;stroke:#967695;stroke-width:3;stroke-linecap:butt;stroke-linejoin:miter;stroke-miterlimit:4;stroke-dasharray:none;stroke-opacity:1" />
        <path
           inkscape:connector-curvature="0"
           id="path4287"
           d="m 426.35714,577.79077 41.717,0 4.39033,-6.42857 -41.10733,-0.35714 z"
           style="fill:#99b083;fill-opacity:1;fill-rule:evenodd;stroke:none;stroke-width:1px;stroke-linecap:butt;stroke-linejoin:miter;stroke-opacity:1"
           sodipodi:nodetypes="ccccc" />
      </g>
      <g
         id="text5703"
         style="font-style:normal;font-weight:normal;font-size:92.10561371px;line-height:125%;font-family:sans-serif;letter-spacing:0px;word-spacing:0px;fill:#ffffff;fill-opacity:1;stroke:none;stroke-width:1px;stroke-linecap:butt;stroke-linejoin:miter;stroke-opacity:1"
         transform="scale(0.94060529,1.0631452)">
        <path
           id="path5073"
           style="font-style:normal;font-variant:normal;font-weight:normal;font-stretch:normal;font-family:Copperplate;-inkscape-font-specification:Copperplate;fill:#ffffff;fill-opacity:1"
           d="m 233.06222,957.74963 q 0.73684,0 1.28948,-0.36842 0.55263,-0.46053 0.55263,-1.28948 l 0,-42.00016 q 0,-0.82895 -0.55263,-1.10527 -0.55264,-0.36842 -1.28948,-0.36842 l 0,-1.6579 17.22375,0 0,1.6579 q -0.46053,0 -1.01316,0.27632 -0.46053,0.27631 -0.46053,0.82895 0,0.46053 0.36842,1.19737 0.36842,0.73685 0.82895,1.5658 l 13.1711,23.94746 13.26321,-23.67115 q 0.64474,-1.19737 0.92106,-1.84211 0.36842,-0.73684 0.36842,-1.28948 0,-1.01316 -1.19737,-1.01316 l 0,-1.6579 17.03954,0 0,1.6579 q -0.73685,0 -1.28948,0.36842 -0.55264,0.27632 -0.55264,1.10527 l 0,42.00016 q 0,0.82895 0.55264,1.28948 0.55263,0.36842 1.28948,0.36842 l 0,1.6579 -14.46058,0 0,-1.6579 q 2.48685,0 2.48685,-1.6579 l 0,-30.57906 -0.18421,0 -18.51323,33.89486 -0.27632,0 -18.14481,-33.98697 -0.18421,0 0,30.67117 q 0,1.6579 2.57896,1.6579 l 0,1.6579 -13.81584,0 0,-1.6579 z"
           inkscape:connector-curvature="0" />
        <path
           id="path5075"
           style="font-style:normal;font-variant:normal;font-weight:normal;font-stretch:normal;font-family:Copperplate;-inkscape-font-specification:Copperplate;fill:#ffffff;fill-opacity:1"
           d="m 344.877,927.44688 q 0,-1.75 -2.85528,-1.75 l -22.47377,0 0,9.21056 14.18427,0 q 1.56579,0 2.30264,-0.18421 0.73684,-0.27632 0.73684,-1.28948 l 1.6579,0 0,9.76319 -1.84211,0 q 0.27632,-1.01316 -0.73684,-1.19737 -1.01317,-0.27632 -2.85528,-0.27632 l -13.44742,0 0,10.86847 23.57904,0 q 1.10527,0 1.84211,-0.46053 0.73685,-0.55264 0.73685,-1.38159 l 1.6579,0 0,9.67109 -1.6579,0 q 0,-0.82895 -0.73685,-0.92105 -0.73684,-0.0921 -1.84211,-0.0921 l -33.80276,0 0,-1.6579 q 0.46053,0 0.92105,-0.27632 0.46053,-0.36842 0.46053,-1.10526 l 0,-34.4475 q 0,-0.73685 -0.46053,-1.01316 -0.46052,-0.36843 -0.92105,-0.36843 l 0,-1.6579 32.69749,0 q 2.85528,0 2.85528,-1.6579 l 1.6579,0 0,10.22372 -1.6579,0 z"
           inkscape:connector-curvature="0" />
        <path
           id="path5077"
           style="font-style:normal;font-variant:normal;font-weight:normal;font-stretch:normal;font-family:Copperplate;-inkscape-font-specification:Copperplate;fill:#ffffff;fill-opacity:1"
           d="m 385.28258,936.38113 q 9.02635,0 9.02635,-5.71055 0,-2.30264 -2.21053,-3.59212 -2.11843,-1.38158 -6.81582,-1.38158 l -14.55269,0 0,10.68425 14.55269,0 z m 0.18421,-17.50007 q 8.1974,0 12.80268,2.76317 4.60528,2.67106 4.60528,9.21056 0,2.48685 -0.92105,4.42107 -0.92106,1.93422 -2.48686,3.40791 -1.47368,1.38158 -3.3158,2.30264 -1.84211,0.82895 -3.77633,1.28948 l 9.02635,13.1711 q 0.73685,1.01316 1.5658,1.5658 0.92105,0.46052 1.93422,0.73684 l 0,1.6579 -14.09216,0 0,-1.6579 q 1.19737,0 1.19737,-0.82895 0,-0.92106 -1.38158,-2.85527 l -7.27635,-10.86847 -12.80268,0 0,13.17111 q 0,0.73684 0.55264,1.10526 0.64474,0.27632 1.19737,0.27632 l 0,1.6579 -12.25005,0 0,-1.6579 q 1.6579,0 1.6579,-1.38158 l 0,-34.4475 q 0,-1.38159 -1.6579,-1.38159 l 0,-1.6579 25.42115,0 z"
           inkscape:connector-curvature="0" />
        <path
           id="path5079"
           style="font-style:normal;font-variant:normal;font-weight:normal;font-stretch:normal;font-family:Copperplate;-inkscape-font-specification:Copperplate;fill:#ffffff;fill-opacity:1"
           d="m 417.45766,957.74963 q 1.47369,0 2.02632,-0.27632 0.55263,-0.36842 0.55263,-1.10526 l 0,-34.4475 q 0,-0.73685 -0.55263,-1.01316 -0.55263,-0.36843 -2.02632,-0.36843 l 0,-1.6579 14.00005,0 0,1.6579 q -2.57896,0 -2.57896,1.38159 l 0,34.4475 q 0,1.38158 2.57896,1.38158 l 0,1.6579 -14.00005,0 0,-1.6579 z"
           inkscape:connector-curvature="0" />
        <path
           id="path5081"
           style="font-style:normal;font-variant:normal;font-weight:normal;font-stretch:normal;font-family:Copperplate;-inkscape-font-specification:Copperplate;fill:#ffffff;fill-opacity:1"
           d="m 457.15374,957.74963 q 0.46053,0 0.92106,-0.27632 0.46053,-0.36842 0.46053,-1.10526 l 0,-30.67117 -11.97373,0 q -0.73685,0 -1.38159,0.36842 -0.64474,0.36842 -0.64474,1.19737 l -1.6579,0 0,-10.59214 1.6579,0 q 0,1.28948 0.64474,1.75 0.64474,0.46053 1.38159,0.46053 l 32.7896,0 q 0.73684,0 1.38158,-0.46053 0.64474,-0.46052 0.64474,-1.75 l 1.6579,0 0,10.59214 -1.6579,0 q 0,-0.82895 -0.64474,-1.19737 -0.64474,-0.36842 -1.38158,-0.36842 l -11.97373,0 0,30.67117 q 0,1.38158 1.6579,1.38158 l 0,1.6579 -11.88163,0 0,-1.6579 z"
           inkscape:connector-curvature="0" />
        <path
           id="path5083"
           style="font-style:normal;font-variant:normal;font-weight:normal;font-stretch:normal;font-family:Copperplate;-inkscape-font-specification:Copperplate;fill:#ffffff;fill-opacity:1"
           d="m 513.89511,925.14424 q -2.94738,0 -5.80265,1.01317 -2.76317,0.92105 -4.9737,2.76316 -2.21054,1.75001 -3.59212,4.32897 -1.28948,2.57895 -1.28948,5.89476 0,3.3158 1.28948,5.89476 1.38158,2.57895 3.59212,4.42107 2.21053,1.75 4.9737,2.76316 2.85527,0.92106 5.80265,0.92106 2.94738,0 5.71055,-0.92106 2.85528,-1.01316 5.06581,-2.76316 2.21054,-1.84212 3.50001,-4.42107 1.38159,-2.57896 1.38159,-5.89476 0,-3.31581 -1.38159,-5.89476 -1.28947,-2.57896 -3.50001,-4.32897 -2.21053,-1.84211 -5.06581,-2.76316 -2.76317,-1.01317 -5.71055,-1.01317 z m 0,-6.81581 q 5.06581,0 9.48688,1.28948 4.51318,1.28948 7.82898,3.86843 3.3158,2.57896 5.25002,6.5395 1.93422,3.86844 1.93422,9.11846 0,5.25002 -1.93422,9.21056 -1.93422,3.86843 -5.25002,6.44739 -3.3158,2.57896 -7.82898,3.77633 -4.42107,1.10527 -9.48688,1.10527 -5.0658,0 -9.57898,-1.10527 -4.42107,-1.19737 -7.73687,-3.77633 -3.3158,-2.57896 -5.25002,-6.44739 -1.93422,-3.96054 -1.93422,-9.21056 0,-5.25002 1.93422,-9.11846 1.93422,-3.96054 5.25002,-6.5395 3.3158,-2.57895 7.73687,-3.86843 4.51318,-1.28948 9.57898,-1.28948 z"
           inkscape:connector-curvature="0" />
        <path
           id="path5085"
           style="font-style:normal;font-variant:normal;font-weight:normal;font-stretch:normal;font-family:Copperplate;-inkscape-font-specification:Copperplate;fill:#ffffff;fill-opacity:1"
           d="m 562.46501,918.88106 0,1.6579 q -2.11843,0 -2.11843,1.38159 l 0,30.67117 24.86851,0 q 1.10527,0 1.84211,-0.46053 0.73685,-0.55264 0.73685,-1.47369 l 1.6579,0 0,9.67109 -1.6579,0 q 0,-0.73685 -0.73685,-0.82895 -0.73684,-0.0921 -1.84211,-0.0921 l -36.1054,0 0,-1.6579 q 2.39475,0 2.39475,-1.38158 l 0,-34.4475 q 0,-1.38159 -2.39475,-1.38159 l 0,-1.6579 13.35532,0 z"
           inkscape:connector-curvature="0" />
        <path
           id="path5087"
           style="font-style:normal;font-variant:normal;font-weight:normal;font-stretch:normal;font-family:Copperplate;-inkscape-font-specification:Copperplate;fill:#ffffff;fill-opacity:1"
           d="m 621.47159,925.14424 q -2.94738,0 -5.80265,1.01317 -2.76317,0.92105 -4.97371,2.76316 -2.21053,1.75001 -3.59211,4.32897 -1.28948,2.57895 -1.28948,5.89476 0,3.3158 1.28948,5.89476 1.38158,2.57895 3.59211,4.42107 2.21054,1.75 4.97371,2.76316 2.85527,0.92106 5.80265,0.92106 2.94738,0 5.71055,-0.92106 2.85527,-1.01316 5.06581,-2.76316 2.21053,-1.84212 3.50001,-4.42107 1.38159,-2.57896 1.38159,-5.89476 0,-3.31581 -1.38159,-5.89476 -1.28948,-2.57896 -3.50001,-4.32897 -2.21054,-1.84211 -5.06581,-2.76316 -2.76317,-1.01317 -5.71055,-1.01317 z m 0,-6.81581 q 5.06581,0 9.48688,1.28948 4.51317,1.28948 7.82898,3.86843 3.3158,2.57896 5.25002,6.5395 1.93421,3.86844 1.93421,9.11846 0,5.25002 -1.93421,9.21056 -1.93422,3.86843 -5.25002,6.44739 -3.31581,2.57896 -7.82898,3.77633 -4.42107,1.10527 -9.48688,1.10527 -5.06581,0 -9.57898,-1.10527 -4.42107,-1.19737 -7.73687,-3.77633 -3.31581,-2.57896 -5.25002,-6.44739 -1.93422,-3.96054 -1.93422,-9.21056 0,-5.25002 1.93422,-9.11846 1.93421,-3.96054 5.25002,-6.5395 3.3158,-2.57895 7.73687,-3.86843 4.51317,-1.28948 9.57898,-1.28948 z"
           inkscape:connector-curvature="0" />
        <path
           id="path5089"
           style="font-style:normal;font-variant:normal;font-weight:normal;font-stretch:normal;font-family:Copperplate;-inkscape-font-specification:Copperplate;fill:#ffffff;fill-opacity:1"
           d="m 693.06789,932.23638 -1.10527,-0.64474 q 0.18421,-0.92106 0.18421,-1.01317 0,-0.82895 -1.19737,-1.75 -1.19738,-1.01316 -3.13159,-1.84211 -1.93422,-0.82895 -4.42107,-1.28948 -2.39475,-0.55264 -4.8816,-0.55264 -3.40791,0 -6.44739,0.82895 -3.03949,0.73685 -5.34213,2.48686 -2.30264,1.6579 -3.68422,4.32896 -1.38159,2.67106 -1.38159,6.5395 0,3.86843 1.47369,6.5395 1.47369,2.57895 3.77633,4.23685 2.39475,1.5658 5.25002,2.30265 2.85528,0.73684 5.52634,0.73684 3.96054,0 7.46055,-0.55263 3.59212,-0.55264 6.5395,-2.11843 l 0,-5.80266 -9.48688,0 q -1.01316,0 -1.75,0.46053 -0.73685,0.36842 -0.92106,1.47369 l -1.6579,0 0,-9.48688 1.6579,0 q 0.18421,0.92106 0.92106,1.19738 0.73684,0.27631 1.75,0.27631 l 18.0527,0 0,1.6579 q -0.82895,0.36843 -1.10526,0.82895 -0.27632,0.46053 -0.27632,1.38159 l 0,8.75003 q 0,0.82895 0.18421,1.19738 0.27632,0.27631 1.19737,0.64473 l 0,1.10527 q -0.82895,0.55264 -2.67106,1.5658 -1.75001,0.92105 -4.51317,1.84211 -2.67107,0.92106 -6.26319,1.56579 -3.59211,0.55264 -8.01318,0.55264 -5.98687,0 -10.86847,-1.28948 -4.78949,-1.38158 -8.1974,-4.05265 -3.3158,-2.67106 -5.15791,-6.44739 -1.75001,-3.86844 -1.75001,-8.75003 0,-4.8816 1.75001,-8.65793 1.84211,-3.86844 5.15791,-6.5395 3.40791,-2.76317 8.1974,-4.14475 4.8816,-1.47369 10.86847,-1.47369 3.59211,0 6.35528,0.64474 2.76317,0.64474 4.7895,1.38158 2.11842,0.73685 3.4079,1.38159 1.28948,0.64474 1.93422,0.64474 0.73685,0 1.10527,-0.0921 0.36842,-0.18421 0.92105,-0.64474 l 1.10527,0.55263 -5.34212,10.03952 z"
           inkscape:connector-curvature="0" />
        <path
           id="path5091"
           style="font-style:normal;font-variant:normal;font-weight:normal;font-stretch:normal;font-family:Copperplate;-inkscape-font-specification:Copperplate;fill:#ffffff;fill-opacity:1"
           d="m 711.33931,922.10476 q -0.64474,-0.82895 -1.5658,-1.19737 -0.92105,-0.36843 -1.75,-0.36843 l 0,-1.6579 15.19742,0 0,1.6579 q -0.46052,0 -1.01316,0.36843 -0.55263,0.27631 -0.55263,0.82895 0,0.55263 0.36842,1.01316 0.36842,0.46053 0.82895,1.10526 l 9.30267,12.15795 8.1974,-11.4211 q 0.82895,-1.19737 1.19737,-1.75001 0.46053,-0.64474 0.46053,-1.19737 0,-0.73684 -0.46053,-0.92106 -0.46053,-0.18421 -0.92105,-0.18421 l 0,-1.6579 14.09215,0 0,1.6579 q -1.10526,0 -2.48685,1.28948 -1.28948,1.19737 -2.30264,2.48685 l -14.09216,18.23691 0,13.81585 q 0,1.38158 1.75001,1.38158 l 0,1.6579 -12.25005,0 0,-1.6579 q 1.6579,0 1.6579,-1.38158 l 0,-14.18427 -15.65795,-20.07902 z"
           inkscape:connector-curvature="0" />
      </g>
    </g>
  </g>
</svg>
